<svg id="Layer_1" data-name="Layer 1" xmlns="http://www.w3.org/2000/svg" xmlns:xlink="http://www.w3.org/1999/xlink" viewBox="0 0 1593.26 745.76"><defs><clipPath id="clip-path" transform="translate(-8.56 -18.27)"><rect x="67.5" y="67.1" width="347.2" height="276.1" style="fill:none"/></clipPath><clipPath id="clip-path-3" transform="translate(-8.56 -18.27)"><rect x="460.5" y="67.1" width="347.2" height="276.1" style="fill:none"/></clipPath><clipPath id="clip-path-5" transform="translate(-8.56 -18.27)"><rect x="853.4" y="67.1" width="347.2" height="276.1" style="fill:none"/></clipPath><clipPath id="clip-path-7" transform="translate(-8.56 -18.27)"><rect x="1246.3" y="67.1" width="347.2" height="276.1" style="fill:none"/></clipPath><clipPath id="clip-path-9" transform="translate(-8.56 -18.27)"><rect x="67.5" y="433.4" width="347.2" height="276.1" style="fill:none"/></clipPath><clipPath id="clip-path-11" transform="translate(-8.56 -18.27)"><rect x="460.5" y="433.4" width="347.2" height="276.1" style="fill:none"/></clipPath><clipPath id="clip-path-13" transform="translate(-8.56 -18.27)"><rect x="853.4" y="433.4" width="347.2" height="276.1" style="fill:none"/></clipPath><clipPath id="clip-path-15" transform="translate(-8.56 -18.27)"><rect x="1246.3" y="433.4" width="347.2" height="276.1" style="fill:none"/></clipPath></defs><title>fig-3</title><rect x="58.94" y="48.83" width="347.2" height="276.1" style="fill:#fff"/><rect x="451.94" y="48.83" width="347.2" height="276.1" style="fill:#fff"/><rect x="844.84" y="48.83" width="347.2" height="276.1" style="fill:#fff"/><rect x="1237.74" y="48.83" width="347.2" height="276.1" style="fill:#fff"/><rect x="58.94" y="415.13" width="347.2" height="276.1" style="fill:#fff"/><rect x="451.94" y="415.13" width="347.2" height="276.1" style="fill:#fff"/><rect x="844.84" y="415.13" width="347.2" height="276.1" style="fill:#fff"/><rect x="1237.74" y="415.13" width="347.2" height="276.1" style="fill:#fff"/><line x1="145.74" y1="48.83" x2="145.74" y2="324.93" style="fill:none"/><line x1="145.74" y1="48.83" x2="145.74" y2="324.93" style="fill:none;stroke:#ebf0f8;stroke-width:0.7501999735832214px"/><line x1="319.34" y1="48.83" x2="319.34" y2="324.93" style="fill:none"/><line x1="319.34" y1="48.83" x2="319.34" y2="324.93" style="fill:none;stroke:#ebf0f8;stroke-width:0.7501999735832214px"/><line x1="58.94" y1="308.93" x2="406.14" y2="308.93" style="fill:none"/><line x1="58.94" y1="308.93" x2="406.14" y2="308.93" style="fill:none;stroke:#ebf0f8;stroke-width:0.7501999735832214px"/><line x1="58.94" y1="271.13" x2="406.14" y2="271.13" style="fill:none"/><line x1="58.94" y1="271.13" x2="406.14" y2="271.13" style="fill:none;stroke:#ebf0f8;stroke-width:0.7501999735832214px"/><line x1="58.94" y1="233.33" x2="406.14" y2="233.33" style="fill:none"/><line x1="58.94" y1="233.33" x2="406.14" y2="233.33" style="fill:none;stroke:#ebf0f8;stroke-width:0.7501999735832214px"/><line x1="58.94" y1="195.53" x2="406.14" y2="195.53" style="fill:none"/><line x1="58.94" y1="195.53" x2="406.14" y2="195.53" style="fill:none;stroke:#ebf0f8;stroke-width:0.7501999735832214px"/><line x1="58.94" y1="157.73" x2="406.14" y2="157.73" style="fill:none"/><line x1="58.94" y1="157.73" x2="406.14" y2="157.73" style="fill:none;stroke:#ebf0f8;stroke-width:0.7501999735832214px"/><line x1="58.94" y1="119.83" x2="406.14" y2="119.83" style="fill:none"/><line x1="58.94" y1="119.83" x2="406.14" y2="119.83" style="fill:none;stroke:#ebf0f8;stroke-width:0.7501999735832214px"/><line x1="58.94" y1="82.03" x2="406.14" y2="82.03" style="fill:none"/><line x1="58.94" y1="82.03" x2="406.14" y2="82.03" style="fill:none;stroke:#ebf0f8;stroke-width:0.7501999735832214px"/><line x1="232.54" y1="48.83" x2="232.54" y2="324.93" style="fill:none"/><line x1="232.54" y1="48.83" x2="232.54" y2="324.93" style="fill:none;stroke:#ebf0f8;stroke-width:1.5003999471664429px"/><g style="clip-path:url(#clip-path)"><polyline points="58.94 267.03 60.74 259.33 62.44 245.13 64.14 244.93 65.94 255.53 67.64 252.83 69.34 254.73 71.14 260.83 72.84 235.73 74.54 224.63 76.34 259.13 79.74 260.23 81.54 258.83 83.24 261.03 85.04 248.03 86.74 262.83 88.44 263.73 90.24 260.23 91.94 252.93 93.64 255.93 95.44 270.13 97.14 255.33 98.84 268.43 100.64 280.73 102.34 262.83 104.14 266.63 105.84 240.53 109.34 264.43 111.04 254.13 112.74 252.33 114.54 261.43 116.24 247.33 117.94 247.93 119.74 259.83 121.44 254.13 123.14 251.93 124.94 268.53 126.64 275.43 128.44 268.53 130.14 258.23 131.84 264.73 133.64 247.73 135.34 263.13 137.04 261.73 138.84 265.03 140.54 275.33 142.24 264.43 144.04 247.93 145.74 255.83 147.44 263.03 149.24 262.23 152.74 254.53 154.44 255.63 156.14 250.23 157.94 270.23 159.64 248.53 161.34 257.83 163.14 264.33 164.84 253.73 166.54 255.53 168.34 255.73 170.04 242.43 171.74 250.33 173.54 253.73 175.24 235.03 177.04 237.43 178.74 236.33 180.44 245.33 182.24 243.63 183.94 246.73 185.64 240.43 187.44 223.03 189.14 250.93 190.84 246.23 192.64 245.53 194.34 231.53 196.04 239.63 197.84 235.93 199.54 237.83 201.34 226.23 203.04 228.53 204.74 212.63 206.54 208.93 208.24 198.13 209.94 205.93 211.74 206.73 213.44 200.33 215.14 188.03 216.94 206.83 218.64 163.23 220.34 175.73 222.14 174.63 223.84 149.83 225.64 156.43 227.34 148.63 229.04 153.03 230.84 92.73 232.54 108.83 234.24 102.23 236.04 84.53 237.74 76.03 239.44 111.83 241.24 119.43 242.94 142.83 244.64 151.33 246.44 180.23 248.14 174.33 249.94 189.03 251.64 183.63 253.34 193.83 255.14 194.93 256.84 168.73 258.54 201.83 260.34 219.13 262.04 217.53 263.74 226.33 265.54 221.93 267.24 216.03 268.94 214.73 270.74 220.33 272.44 232.43 275.94 225.03 277.64 236.53 279.44 236.63 281.14 233.73 282.84 238.03 284.64 229.63 286.34 224.23 288.04 211.53 289.84 230.63 291.54 237.73 293.34 222.13 295.04 233.03 296.74 252.73 298.54 222.33 300.24 230.63 301.94 225.93 303.74 239.53 305.44 245.93 307.14 248.33 308.94 223.53 310.64 232.63 312.34 231.03 314.14 232.03 315.84 235.93 319.34 255.83 321.04 244.23 322.84 230.53 324.54 231.93 326.24 255.43 328.04 242.73 329.74 262.03 331.44 258.33 333.24 239.23 334.94 252.83 336.64 241.83 338.44 238.53 340.14 241.43 341.94 247.73 343.64 247.33 345.34 251.13 347.14 253.13 348.84 252.23 350.54 247.43 352.34 248.63 357.54 256.33 359.24 228.93 360.94 231.13 362.74 227.43 366.24 227.13 367.94 241.43 369.64 225.23 371.44 241.73 373.14 248.53 374.84 240.83 376.64 246.73 378.34 247.23 381.84 273.83 383.54 238.23 387.04 250.73 388.74 251.03 390.54 231.53 392.24 244.93 395.74 256.23 397.44 249.53 399.14 245.53 400.94 248.73 402.64 250.93 404.34 247.93 406.14 247.93" style="fill:none;stroke:#d62728;stroke-miterlimit:2;stroke-width:1.5003999471664429px"/></g><g style="clip-path:url(#clip-path)"><polyline points="58.94 255.93 60.74 251.93 62.44 238.43 64.14 251.93 65.94 245.43 67.64 240.63 69.34 247.03 71.14 261.03 72.84 251.63 74.54 254.13 76.34 257.63 78.04 224.93 79.74 246.03 81.54 248.33 83.24 255.63 85.04 242.23 86.74 248.43 90.24 258.43 91.94 234.03 93.64 247.33 95.44 240.43 98.84 261.63 100.64 248.03 102.34 235.73 104.14 258.33 105.84 240.23 107.54 255.23 109.34 230.33 111.04 234.23 112.74 236.83 114.54 225.53 116.24 247.23 117.94 233.93 121.44 242.63 123.14 234.03 124.94 242.53 126.64 236.43 128.44 235.43 130.14 230.23 133.64 239.83 135.34 240.03 137.04 232.23 138.84 228.13 140.54 238.83 142.24 231.73 144.04 242.83 145.74 244.53 147.44 232.53 149.24 234.93 150.94 235.03 152.74 236.53 154.44 227.23 156.14 229.53 157.94 196.83 159.64 235.33 161.34 226.13 163.14 225.23 164.84 229.83 166.54 238.53 168.34 231.43 170.04 211.03 171.74 192.83 173.54 224.23 175.24 215.23 177.04 227.43 178.74 211.63 180.44 178.83 183.94 210.33 185.64 221.13 187.44 199.43 189.14 201.83 190.84 201.73 192.64 202.23 194.34 206.13 196.04 181.23 197.84 161.73 199.54 187.43 201.34 191.53 203.04 179.53 206.54 165.43 208.24 173.53 209.94 159.43 211.74 181.13 213.44 151.63 215.14 151.13 216.94 135.43 218.64 139.13 220.34 121.03 222.14 125.43 223.84 161.13 225.64 109.93 227.34 116.43 229.04 127.83 230.84 61.33 232.54 124.83 234.24 139.33 236.04 175.53 237.74 175.63 239.44 172.33 241.24 174.33 242.94 199.53 244.64 205.83 246.44 214.53 249.94 222.23 251.64 220.53 253.34 238.73 255.14 221.53 256.84 231.83 258.54 234.63 260.34 224.53 262.04 248.33 263.74 248.63 265.54 258.03 267.24 246.73 268.94 246.83 270.74 238.93 272.44 247.83 275.94 257.93 277.64 260.13 279.44 249.63 281.14 252.83 282.84 251.83 284.64 243.33 286.34 254.23 288.04 254.33 289.84 255.43 291.54 263.03 293.34 252.23 295.04 249.23 296.74 256.53 298.54 260.13 300.24 272.23 301.94 252.33 303.74 243.73 305.44 263.33 307.14 252.13 308.94 245.83 310.64 254.53 312.34 266.33 314.14 245.43 315.84 257.23 317.64 246.33 319.34 256.83 321.04 261.43 322.84 246.23 324.54 253.83 326.24 257.03 328.04 258.03 329.74 263.63 331.44 273.63 333.24 273.63 334.94 259.83 336.64 278.13 338.44 253.03 340.14 271.33 343.64 267.63 345.34 285.13 348.84 261.03 350.54 261.63 352.34 266.73 354.04 265.93 355.74 253.93 357.54 276.13 359.24 249.23 360.94 262.23 362.74 258.83 364.44 265.33 366.24 257.83 367.94 269.43 369.64 261.43 371.44 269.63 373.14 263.53 374.84 259.83 376.64 259.03 378.34 273.23 381.84 259.23 383.54 273.33 385.24 280.03 387.04 256.73 388.74 251.13 390.54 250.73 392.24 248.23 393.94 270.23 395.74 265.23 397.44 256.33 399.14 270.43 400.94 272.03 402.64 279.13 404.34 265.53 406.14 265.53" style="fill:none;stroke:#1f76b4;stroke-miterlimit:2;stroke-width:1.5003999471664429px"/></g><text transform="translate(46.24 340.7)" style="isolation:isolate;font-size:15.004400253295898px;fill:#2a3f5f;font-family:ArialMT, Arial">−10</text><text transform="translate(137.2 340.7)" style="isolation:isolate;font-size:15.004400253295898px;fill:#2a3f5f;font-family:ArialMT, Arial">−5</text><text transform="translate(228.37 340.7)" style="isolation:isolate;font-size:15.004400253295898px;fill:#2a3f5f;font-family:ArialMT, Arial">0</text><text transform="translate(315.16 340.7)" style="isolation:isolate;font-size:15.004400253295898px;fill:#2a3f5f;font-family:ArialMT, Arial">5</text><text transform="translate(397.78 340.7)" style="isolation:isolate;font-size:15.004400253295898px;fill:#2a3f5f;font-family:ArialMT, Arial">10</text><text transform="translate(37.36 314.19)" style="isolation:isolate;font-size:15.004400253295898px;fill:#2a3f5f;font-family:ArialMT, Arial">0.6</text><text transform="translate(37.36 276.38)" style="isolation:isolate;font-size:15.004400253295898px;fill:#2a3f5f;font-family:ArialMT, Arial">0.8</text><text transform="translate(49.87 238.57)" style="isolation:isolate;font-size:15.004400253295898px;fill:#2a3f5f;font-family:ArialMT, Arial">1</text><text transform="translate(37.36 200.76)" style="isolation:isolate;font-size:15.004400253295898px;fill:#2a3f5f;font-family:ArialMT, Arial">1.2</text><text transform="translate(37.36 162.95)" style="isolation:isolate;font-size:15.004400253295898px;fill:#2a3f5f;font-family:ArialMT, Arial">1.4</text><text transform="translate(37.36 125.14)" style="isolation:isolate;font-size:15.004400253295898px;fill:#2a3f5f;font-family:ArialMT, Arial">1.6</text><text transform="translate(37.36 87.32)" style="isolation:isolate;font-size:15.004400253295898px;fill:#2a3f5f;font-family:ArialMT, Arial">1.8</text><line x1="538.64" y1="48.83" x2="538.64" y2="324.93" style="fill:none"/><line x1="538.64" y1="48.83" x2="538.64" y2="324.93" style="fill:none;stroke:#ebf0f8;stroke-width:0.7501999735832214px"/><line x1="712.24" y1="48.83" x2="712.24" y2="324.93" style="fill:none"/><line x1="712.24" y1="48.83" x2="712.24" y2="324.93" style="fill:none;stroke:#ebf0f8;stroke-width:0.7501999735832214px"/><line x1="451.94" y1="308.93" x2="799.04" y2="308.93" style="fill:none"/><line x1="451.94" y1="308.93" x2="799.04" y2="308.93" style="fill:none;stroke:#ebf0f8;stroke-width:0.7501999735832214px"/><line x1="451.94" y1="271.13" x2="799.04" y2="271.13" style="fill:none"/><line x1="451.94" y1="271.13" x2="799.04" y2="271.13" style="fill:none;stroke:#ebf0f8;stroke-width:0.7501999735832214px"/><line x1="451.94" y1="233.33" x2="799.04" y2="233.33" style="fill:none"/><line x1="451.94" y1="233.33" x2="799.04" y2="233.33" style="fill:none;stroke:#ebf0f8;stroke-width:0.7501999735832214px"/><line x1="451.94" y1="195.53" x2="799.04" y2="195.53" style="fill:none"/><line x1="451.94" y1="195.53" x2="799.04" y2="195.53" style="fill:none;stroke:#ebf0f8;stroke-width:0.7501999735832214px"/><line x1="451.94" y1="157.73" x2="799.04" y2="157.73" style="fill:none"/><line x1="451.94" y1="157.73" x2="799.04" y2="157.73" style="fill:none;stroke:#ebf0f8;stroke-width:0.7501999735832214px"/><line x1="451.94" y1="119.83" x2="799.04" y2="119.83" style="fill:none"/><line x1="451.94" y1="119.83" x2="799.04" y2="119.83" style="fill:none;stroke:#ebf0f8;stroke-width:0.7501999735832214px"/><line x1="451.94" y1="82.03" x2="799.04" y2="82.03" style="fill:none"/><line x1="451.94" y1="82.03" x2="799.04" y2="82.03" style="fill:none;stroke:#ebf0f8;stroke-width:0.7501999735832214px"/><line x1="625.44" y1="48.83" x2="625.44" y2="324.93" style="fill:none"/><line x1="625.44" y1="48.83" x2="625.44" y2="324.93" style="fill:none;stroke:#ebf0f8;stroke-width:1.5003999471664429px"/><g style="clip-path:url(#clip-path-3)"><polyline points="451.94 237.93 453.64 258.93 455.34 251.13 457.14 243.83 458.84 248.13 460.54 234.43 462.34 236.03 464.04 233.73 465.74 239.73 469.24 251.13 470.94 266.23 472.74 249.83 474.44 265.73 476.24 267.63 477.94 248.93 479.64 267.13 481.44 246.13 483.14 240.03 484.84 248.53 486.64 261.73 488.34 244.63 490.04 248.83 491.84 256.93 493.54 256.43 495.24 267.73 497.04 260.83 498.74 234.73 500.54 229.03 502.24 235.63 503.94 243.43 505.74 238.53 509.14 244.93 510.94 251.13 512.64 223.83 514.34 250.23 516.14 255.73 517.84 243.63 519.54 243.93 521.34 269.93 523.04 228.03 524.84 247.33 526.54 233.03 528.24 256.23 530.04 256.83 531.74 252.13 533.44 253.33 535.24 249.43 536.94 250.93 538.64 262.13 540.44 258.93 542.14 251.83 543.84 224.93 545.64 254.63 547.34 225.23 549.14 253.43 550.84 244.43 552.54 242.53 554.34 244.23 556.04 258.93 557.74 238.53 559.54 240.83 561.24 241.33 562.94 237.03 564.74 245.93 566.44 227.33 568.24 234.63 569.94 250.53 571.64 236.63 573.44 230.33 575.14 231.53 576.84 245.23 578.64 227.83 580.34 221.03 582.04 253.43 583.84 233.33 585.54 258.43 587.24 210.63 589.04 243.93 590.74 240.23 592.54 236.43 594.24 234.53 595.94 216.33 597.74 190.83 599.44 220.13 601.14 189.43 602.94 207.53 604.64 186.63 606.34 198.23 608.14 176.43 609.84 205.33 611.54 179.83 613.34 158.83 615.04 164.13 620.24 73.23 622.04 82.43 623.74 116.33 625.44 103.93 627.24 148.03 628.94 150.53 630.64 137.23 632.44 152.13 634.14 139.33 635.84 147.43 637.64 177.63 639.34 180.43 641.14 179.23 642.84 179.83 646.34 211.03 648.04 208.83 649.74 204.63 651.54 219.03 653.24 212.73 654.94 214.03 656.74 220.33 658.44 235.13 660.14 236.93 661.94 228.63 663.64 214.53 665.44 222.33 667.14 233.43 668.84 239.53 670.64 238.63 672.34 235.63 674.04 245.53 675.84 239.13 677.54 219.93 679.24 238.33 681.04 224.43 682.74 227.03 684.44 238.73 686.24 238.43 687.94 244.63 689.74 260.43 691.44 250.93 693.14 236.23 694.94 256.03 696.64 258.53 698.34 265.73 700.14 240.63 703.54 262.53 705.34 225.33 707.04 264.63 708.74 250.93 710.54 253.63 712.24 245.13 713.94 275.73 715.74 271.63 717.44 261.03 719.24 244.93 720.94 240.33 722.64 250.73 724.44 259.03 726.14 253.83 727.84 249.93 729.64 237.03 731.34 227.33 733.14 253.33 734.84 254.13 736.54 247.73 738.34 253.43 740.04 239.13 741.74 254.03 743.54 253.73 745.24 246.83 746.94 243.93 748.74 254.63 750.44 253.53 752.14 244.73 753.94 259.23 755.64 252.23 757.44 260.23 759.14 247.53 760.84 242.43 764.34 253.83 766.04 240.73 767.84 235.13 769.54 256.33 771.24 252.23 773.04 251.43 774.74 253.83 776.44 258.83 778.24 262.33 779.94 269.23 781.64 256.53 783.44 253.73 785.14 250.83 786.94 264.83 788.64 234.83 790.34 234.53 792.14 268.03 793.84 262.23 795.54 247.63 797.34 250.03 799.04 250.03" style="fill:none;stroke:#d62728;stroke-miterlimit:2;stroke-width:1.5003999471664429px"/></g><g style="clip-path:url(#clip-path-3)"><polyline points="451.94 270.43 453.64 257.03 455.34 264.33 457.14 260.63 458.84 270.23 462.34 245.53 464.04 259.33 465.74 271.23 467.54 254.33 469.24 264.73 470.94 257.03 472.74 249.03 474.44 267.63 476.24 274.43 477.94 254.93 479.64 258.23 481.44 267.63 483.14 247.63 484.84 264.03 486.64 266.83 488.34 257.93 490.04 251.63 491.84 272.23 493.54 266.43 495.24 249.43 497.04 253.03 498.74 248.13 500.54 263.43 502.24 249.83 503.94 259.53 505.74 263.23 507.44 256.73 509.14 240.33 510.94 263.63 512.64 269.53 514.34 263.13 516.14 241.23 517.84 251.63 519.54 253.53 521.34 252.73 523.04 262.13 524.84 245.03 526.54 266.33 528.24 270.23 530.04 261.43 531.74 252.73 533.44 259.93 535.24 253.53 536.94 265.93 538.64 265.83 540.44 260.83 542.14 276.53 543.84 265.73 545.64 251.13 547.34 253.83 549.14 261.13 550.84 259.83 552.54 256.63 554.34 264.93 556.04 274.53 557.74 255.83 559.54 257.13 561.24 270.53 562.94 267.53 564.74 253.93 566.44 266.13 568.24 261.13 569.94 253.53 571.64 265.13 575.14 254.93 576.84 251.23 578.64 256.43 580.34 271.53 582.04 261.03 583.84 256.63 585.54 267.53 587.24 264.13 589.04 265.53 590.74 246.33 592.54 258.83 594.24 251.23 597.74 241.33 599.44 247.93 601.14 241.93 602.94 246.83 604.64 230.93 606.34 229.73 608.14 231.23 609.84 239.13 611.54 226.23 613.34 205.13 615.04 209.43 616.84 191.63 618.54 181.23 620.24 140.13 623.74 167.63 625.44 103.93 627.24 117.23 628.94 118.03 630.64 141.13 632.44 139.83 634.14 136.63 635.84 118.33 637.64 106.03 639.34 134.83 641.14 153.03 642.84 150.93 644.54 145.53 646.34 156.43 648.04 189.23 649.74 181.63 651.54 176.63 653.24 182.33 654.94 176.43 656.74 184.33 658.44 164.83 660.14 187.83 661.94 191.93 663.64 204.63 665.44 173.53 667.14 191.63 668.84 190.73 670.64 222.93 674.04 180.23 675.84 202.93 677.54 210.83 679.24 206.23 681.04 202.33 682.74 203.73 684.44 223.13 686.24 232.33 687.94 213.13 689.74 225.33 691.44 230.63 693.14 205.43 694.94 230.23 696.64 224.73 698.34 238.63 700.14 224.73 703.54 240.13 705.34 245.53 707.04 226.03 708.74 231.43 710.54 216.83 712.24 222.73 715.74 234.23 717.44 223.13 719.24 228.23 720.94 223.53 722.64 239.13 724.44 234.93 726.14 224.73 727.84 224.63 729.64 246.23 731.34 220.93 733.14 230.83 734.84 237.33 738.34 248.63 740.04 242.23 741.74 229.43 743.54 237.63 745.24 243.93 746.94 245.33 748.74 234.63 750.44 229.93 752.14 236.53 753.94 236.43 755.64 244.73 757.44 243.43 759.14 245.23 760.84 249.43 762.64 249.03 764.34 247.03 766.04 259.13 767.84 239.53 769.54 253.03 771.24 248.33 773.04 242.63 774.74 246.33 776.44 241.33 778.24 251.03 779.94 233.13 781.64 249.63 783.44 259.03 785.14 264.93 788.64 246.83 790.34 265.03 793.84 240.63 795.54 242.33 797.34 232.63 799.04 232.63" style="fill:none;stroke:#1f76b4;stroke-miterlimit:2;stroke-width:1.5003999471664429px"/></g><text transform="translate(439.17 340.7)" style="isolation:isolate;font-size:15.004400253295898px;fill:#2a3f5f;font-family:ArialMT, Arial">−10</text><text transform="translate(530.13 340.7)" style="isolation:isolate;font-size:15.004400253295898px;fill:#2a3f5f;font-family:ArialMT, Arial">−5</text><text transform="translate(621.3 340.7)" style="isolation:isolate;font-size:15.004400253295898px;fill:#2a3f5f;font-family:ArialMT, Arial">0</text><text transform="translate(708.09 340.7)" style="isolation:isolate;font-size:15.004400253295898px;fill:#2a3f5f;font-family:ArialMT, Arial">5</text><text transform="translate(790.71 340.7)" style="isolation:isolate;font-size:15.004400253295898px;fill:#2a3f5f;font-family:ArialMT, Arial">10</text><line x1="931.64" y1="48.83" x2="931.64" y2="324.93" style="fill:none"/><line x1="931.64" y1="48.83" x2="931.64" y2="324.93" style="fill:none;stroke:#ebf0f8;stroke-width:0.7501999735832214px"/><line x1="1105.14" y1="48.83" x2="1105.14" y2="324.93" style="fill:none"/><line x1="1105.14" y1="48.83" x2="1105.14" y2="324.93" style="fill:none;stroke:#ebf0f8;stroke-width:0.7501999735832214px"/><line x1="844.84" y1="308.93" x2="1191.94" y2="308.93" style="fill:none"/><line x1="844.84" y1="308.93" x2="1191.94" y2="308.93" style="fill:none;stroke:#ebf0f8;stroke-width:0.7501999735832214px"/><line x1="844.84" y1="271.13" x2="1191.94" y2="271.13" style="fill:none"/><line x1="844.84" y1="271.13" x2="1191.94" y2="271.13" style="fill:none;stroke:#ebf0f8;stroke-width:0.7501999735832214px"/><line x1="844.84" y1="233.33" x2="1191.94" y2="233.33" style="fill:none"/><line x1="844.84" y1="233.33" x2="1191.94" y2="233.33" style="fill:none;stroke:#ebf0f8;stroke-width:0.7501999735832214px"/><line x1="844.84" y1="195.53" x2="1191.94" y2="195.53" style="fill:none"/><line x1="844.84" y1="195.53" x2="1191.94" y2="195.53" style="fill:none;stroke:#ebf0f8;stroke-width:0.7501999735832214px"/><line x1="844.84" y1="157.73" x2="1191.94" y2="157.73" style="fill:none"/><line x1="844.84" y1="157.73" x2="1191.94" y2="157.73" style="fill:none;stroke:#ebf0f8;stroke-width:0.7501999735832214px"/><line x1="844.84" y1="119.83" x2="1191.94" y2="119.83" style="fill:none"/><line x1="844.84" y1="119.83" x2="1191.94" y2="119.83" style="fill:none;stroke:#ebf0f8;stroke-width:0.7501999735832214px"/><line x1="844.84" y1="82.03" x2="1191.94" y2="82.03" style="fill:none"/><line x1="844.84" y1="82.03" x2="1191.94" y2="82.03" style="fill:none;stroke:#ebf0f8;stroke-width:0.7501999735832214px"/><line x1="1018.44" y1="48.83" x2="1018.44" y2="324.93" style="fill:none"/><line x1="1018.44" y1="48.83" x2="1018.44" y2="324.93" style="fill:none;stroke:#ebf0f8;stroke-width:1.5003999471664429px"/><g style="clip-path:url(#clip-path-5)"><polyline points="844.84 279.13 846.54 286.83 848.34 281.03 850.04 285.03 851.74 287.13 853.54 282.43 855.24 283.13 856.94 284.03 858.74 295.93 860.44 280.73 862.14 281.93 863.94 285.03 865.64 277.83 870.84 274.23 872.64 282.43 874.34 286.23 876.04 268.13 877.84 288.33 879.54 271.13 881.24 287.23 883.04 276.53 884.74 272.53 886.44 272.13 888.24 281.73 889.94 272.53 891.74 279.23 893.44 278.03 895.14 273.43 896.94 273.63 898.64 277.73 900.34 275.53 902.14 280.23 903.84 275.03 905.54 279.63 907.34 289.13 909.04 268.93 910.74 272.13 912.54 284.33 914.24 283.13 916.04 287.33 917.74 285.13 919.44 265.13 921.24 284.43 922.94 280.43 924.64 280.43 926.44 291.63 928.14 271.63 929.84 265.93 931.64 280.43 933.34 279.73 935.04 277.13 936.84 273.63 938.54 278.43 940.34 290.43 942.04 280.53 943.74 283.13 945.54 276.23 947.24 277.13 948.94 281.63 950.74 275.63 952.44 281.73 954.14 273.43 955.94 281.13 957.64 282.13 959.34 275.83 961.14 279.43 962.84 274.93 964.64 266.13 966.34 278.43 968.04 286.33 969.84 279.63 971.54 274.23 973.24 277.23 975.04 268.43 976.74 268.73 978.44 270.73 980.24 265.43 981.94 270.13 983.64 259.83 985.44 261.63 987.14 260.73 988.94 261.53 990.64 269.13 992.34 265.13 994.14 251.03 995.84 251.63 997.54 241.63 999.34 240.63 1001.04 237.83 1002.74 232.43 1004.54 237.53 1006.24 224.23 1008.04 224.23 1009.74 226.73 1011.44 220.03 1013.24 228.33 1014.94 220.53 1016.64 218.23 1018.44 217.33 1021.84 112.93 1023.64 121.43 1025.34 91.73 1027.04 121.23 1028.84 130.43 1030.54 132.53 1032.34 135.93 1034.04 137.13 1035.74 121.13 1037.54 143.13 1039.24 152.53 1040.94 152.23 1042.74 163.43 1044.44 186.33 1046.14 163.43 1047.94 175.13 1049.64 185.33 1051.34 204.63 1053.14 189.13 1054.84 195.43 1056.54 185.33 1058.34 186.33 1060.04 175.13 1061.84 188.33 1063.54 189.73 1065.24 197.83 1067.04 194.43 1068.74 214.13 1070.44 192.43 1072.24 193.33 1073.94 191.53 1075.64 181.23 1077.44 193.93 1079.14 197.53 1080.84 196.23 1082.64 194.23 1084.34 178.53 1086.14 188.63 1087.84 195.03 1089.54 195.33 1091.34 213.23 1093.04 197.13 1094.74 195.63 1096.54 218.63 1098.24 198.73 1099.94 207.23 1101.74 195.23 1103.44 202.03 1105.14 201.33 1106.94 209.13 1108.64 212.83 1110.44 207.73 1112.14 219.23 1113.84 203.23 1115.64 210.33 1117.34 205.23 1119.04 217.63 1120.84 208.63 1122.54 203.43 1124.24 214.33 1126.04 213.23 1127.74 196.93 1129.44 220.93 1131.24 198.23 1132.94 207.13 1134.74 210.13 1136.44 207.23 1138.14 214.63 1139.94 218.03 1141.64 213.73 1145.14 213.93 1146.84 205.63 1148.54 213.33 1150.34 211.53 1152.04 212.63 1153.74 205.33 1155.54 214.83 1157.24 206.43 1159.04 214.33 1160.74 212.43 1162.44 214.53 1164.24 217.93 1165.94 214.63 1167.64 206.53 1169.44 208.73 1171.14 221.53 1172.84 207.33 1174.64 218.03 1176.34 228.83 1178.14 220.63 1179.84 210.23 1181.54 212.33 1183.34 214.63 1185.04 220.83 1186.74 228.93 1188.54 209.73 1190.24 229.83 1191.94 229.83" style="fill:none;stroke:#d62728;stroke-miterlimit:2;stroke-width:1.5003999471664429px"/></g><g style="clip-path:url(#clip-path-5)"><polyline points="844.84 231.93 846.54 232.93 848.34 229.93 850.04 233.73 851.74 235.63 853.54 235.13 855.24 230.43 856.94 225.83 858.74 226.53 860.44 234.63 862.14 213.33 863.94 222.63 865.64 222.13 867.44 229.23 869.14 224.83 870.84 224.03 872.64 217.73 874.34 214.33 876.04 231.93 877.84 224.43 879.54 229.13 881.24 221.83 883.04 224.23 884.74 228.03 886.44 220.93 888.24 216.13 889.94 204.03 891.74 196.53 893.44 204.73 895.14 213.83 896.94 198.43 898.64 209.43 900.34 214.63 902.14 218.13 903.84 218.93 905.54 201.63 907.34 195.73 909.04 195.93 910.74 202.43 912.54 205.93 914.24 203.23 916.04 190.33 917.74 194.93 919.44 195.63 921.24 200.03 922.94 191.93 924.64 178.63 928.14 189.13 929.84 181.43 931.64 176.83 933.34 188.83 935.04 185.53 936.84 195.13 938.54 170.13 940.34 182.93 942.04 190.93 943.74 175.83 945.54 174.33 947.24 170.83 948.94 174.53 950.74 166.33 952.44 167.03 954.14 177.23 955.94 158.93 957.64 169.83 959.34 157.83 961.14 137.13 962.84 146.63 964.64 135.93 966.34 154.13 968.04 131.93 969.84 141.13 971.54 141.03 973.24 130.23 975.04 128.93 976.74 123.73 978.44 132.63 980.24 119.23 981.94 115.83 983.64 128.33 985.44 133.73 987.14 113.93 988.94 106.83 990.64 96.23 992.34 110.43 994.14 109.13 995.84 96.63 997.54 102.03 999.34 89.73 1001.04 101.03 1002.74 70.63 1006.24 85.23 1008.04 119.43 1009.74 101.63 1011.44 123.53 1013.24 124.23 1014.94 145.43 1016.64 153.33 1018.44 225.23 1020.14 223.83 1021.84 221.63 1023.64 236.23 1025.34 232.63 1027.04 234.83 1028.84 247.93 1030.54 240.23 1032.34 238.83 1035.74 267.03 1037.54 260.33 1039.24 266.93 1040.94 261.83 1042.74 265.63 1044.44 266.93 1046.14 272.93 1047.94 275.23 1049.64 266.73 1051.34 271.93 1053.14 276.63 1054.84 273.73 1056.54 285.73 1058.34 276.93 1060.04 278.43 1061.84 286.23 1063.54 290.63 1065.24 281.83 1067.04 274.83 1068.74 282.13 1070.44 289.03 1072.24 285.33 1073.94 283.83 1075.64 295.33 1077.44 288.83 1079.14 291.83 1080.84 283.33 1082.64 283.03 1084.34 287.13 1086.14 300.13 1087.84 285.03 1089.54 296.73 1091.34 295.13 1093.04 295.53 1094.74 297.43 1096.54 295.83 1098.24 299.03 1099.94 291.83 1101.74 296.93 1103.44 293.53 1105.14 294.63 1106.94 308.13 1108.64 294.73 1110.44 300.53 1112.14 309.93 1113.84 299.43 1115.64 299.33 1117.34 297.43 1119.04 295.73 1120.84 296.63 1122.54 296.53 1124.24 294.83 1126.04 301.23 1127.74 296.93 1129.44 305.33 1131.24 296.13 1134.74 306.73 1136.44 302.13 1138.14 298.93 1139.94 298.73 1141.64 301.63 1143.34 300.13 1145.14 302.23 1146.84 306.93 1148.54 306.13 1150.34 302.73 1153.74 306.13 1155.54 304.23 1157.24 307.53 1159.04 305.93 1160.74 310.03 1162.44 306.33 1164.24 303.53 1165.94 311.53 1167.64 305.23 1169.44 305.13 1171.14 305.33 1172.84 309.13 1176.34 302.33 1178.14 303.43 1179.84 300.53 1181.54 303.13 1183.34 306.03 1185.04 299.93 1188.54 303.13 1190.24 311.33 1191.94 311.33" style="fill:none;stroke:#1f76b4;stroke-miterlimit:2;stroke-width:1.5003999471664429px"/></g><text transform="translate(832.1 340.7)" style="isolation:isolate;font-size:15.004400253295898px;fill:#2a3f5f;font-family:ArialMT, Arial">−10</text><text transform="translate(923.06 340.7)" style="isolation:isolate;font-size:15.004400253295898px;fill:#2a3f5f;font-family:ArialMT, Arial">−5</text><text transform="translate(1014.24 340.7)" style="isolation:isolate;font-size:15.004400253295898px;fill:#2a3f5f;font-family:ArialMT, Arial">0</text><text transform="translate(1101.02 340.7)" style="isolation:isolate;font-size:15.004400253295898px;fill:#2a3f5f;font-family:ArialMT, Arial">5</text><text transform="translate(1183.64 340.7)" style="isolation:isolate;font-size:15.004400253295898px;fill:#2a3f5f;font-family:ArialMT, Arial">10</text><line x1="1324.54" y1="48.83" x2="1324.54" y2="324.93" style="fill:none"/><line x1="1324.54" y1="48.83" x2="1324.54" y2="324.93" style="fill:none;stroke:#ebf0f8;stroke-width:0.7501999735832214px"/><line x1="1498.14" y1="48.83" x2="1498.14" y2="324.93" style="fill:none"/><line x1="1498.14" y1="48.83" x2="1498.14" y2="324.93" style="fill:none;stroke:#ebf0f8;stroke-width:0.7501999735832214px"/><line x1="1237.74" y1="308.93" x2="1584.94" y2="308.93" style="fill:none"/><line x1="1237.74" y1="308.93" x2="1584.94" y2="308.93" style="fill:none;stroke:#ebf0f8;stroke-width:0.7501999735832214px"/><line x1="1237.74" y1="271.13" x2="1584.94" y2="271.13" style="fill:none"/><line x1="1237.74" y1="271.13" x2="1584.94" y2="271.13" style="fill:none;stroke:#ebf0f8;stroke-width:0.7501999735832214px"/><line x1="1237.74" y1="233.33" x2="1584.94" y2="233.33" style="fill:none"/><line x1="1237.74" y1="233.33" x2="1584.94" y2="233.33" style="fill:none;stroke:#ebf0f8;stroke-width:0.7501999735832214px"/><line x1="1237.74" y1="195.53" x2="1584.94" y2="195.53" style="fill:none"/><line x1="1237.74" y1="195.53" x2="1584.94" y2="195.53" style="fill:none;stroke:#ebf0f8;stroke-width:0.7501999735832214px"/><line x1="1237.74" y1="157.73" x2="1584.94" y2="157.73" style="fill:none"/><line x1="1237.74" y1="157.73" x2="1584.94" y2="157.73" style="fill:none;stroke:#ebf0f8;stroke-width:0.7501999735832214px"/><line x1="1237.74" y1="119.83" x2="1584.94" y2="119.83" style="fill:none"/><line x1="1237.74" y1="119.83" x2="1584.94" y2="119.83" style="fill:none;stroke:#ebf0f8;stroke-width:0.7501999735832214px"/><line x1="1237.74" y1="82.03" x2="1584.94" y2="82.03" style="fill:none"/><line x1="1237.74" y1="82.03" x2="1584.94" y2="82.03" style="fill:none;stroke:#ebf0f8;stroke-width:0.7501999735832214px"/><line x1="1411.34" y1="48.83" x2="1411.34" y2="324.93" style="fill:none"/><line x1="1411.34" y1="48.83" x2="1411.34" y2="324.93" style="fill:none;stroke:#ebf0f8;stroke-width:1.5003999471664429px"/><g style="clip-path:url(#clip-path-7)"><polyline points="1237.74 209.83 1239.54 193.43 1241.24 208.83 1242.94 221.33 1244.74 211.73 1246.44 227.83 1248.14 218.03 1249.94 224.43 1251.64 200.63 1253.34 215.93 1255.14 213.83 1256.84 209.73 1258.54 210.63 1260.34 216.93 1262.04 204.43 1263.84 215.33 1265.54 209.43 1267.24 195.23 1269.04 203.43 1270.74 191.83 1272.44 207.43 1274.24 223.03 1275.94 199.03 1277.64 217.23 1279.44 210.13 1281.14 194.63 1282.94 211.63 1284.64 193.73 1286.34 205.13 1288.14 191.63 1289.84 193.43 1291.54 191.53 1293.34 214.23 1295.04 202.03 1296.74 203.13 1298.54 194.53 1300.24 194.03 1301.94 207.93 1303.74 197.43 1305.44 225.33 1307.24 208.33 1308.94 192.73 1310.64 205.53 1312.44 211.23 1314.14 196.73 1315.84 193.63 1317.64 207.03 1319.34 205.83 1321.04 213.93 1322.84 199.73 1324.54 196.73 1326.24 215.03 1328.04 196.83 1329.74 191.43 1331.44 211.63 1333.24 196.33 1334.94 192.53 1336.74 199.33 1338.44 194.03 1340.14 199.73 1341.94 196.93 1343.64 205.43 1345.34 199.53 1350.54 182.73 1352.34 196.43 1354.04 195.33 1355.74 190.43 1357.54 205.53 1359.24 201.23 1362.74 204.83 1364.44 192.43 1366.24 187.03 1367.94 203.43 1369.64 201.73 1371.44 182.23 1373.14 186.53 1374.84 184.93 1376.64 191.23 1378.34 178.63 1380.04 164.33 1381.84 175.33 1383.54 175.83 1385.34 189.23 1387.04 181.03 1388.74 168.63 1390.54 176.63 1392.24 171.73 1393.94 157.93 1395.74 157.63 1397.44 128.23 1399.14 133.43 1400.94 119.13 1402.64 111.43 1404.34 90.83 1406.14 123.33 1409.64 232.53 1411.34 218.33 1413.04 210.23 1414.84 233.33 1416.54 235.33 1418.24 229.63 1420.04 228.33 1421.74 231.03 1423.44 234.23 1425.24 244.13 1426.94 250.73 1428.64 272.83 1432.14 255.03 1433.94 263.33 1435.64 259.43 1437.34 261.33 1439.14 273.43 1440.84 269.43 1442.54 271.83 1444.34 278.03 1446.04 271.83 1447.74 272.03 1449.54 280.43 1451.24 269.93 1453.04 263.23 1454.74 274.03 1456.44 280.53 1458.24 266.83 1461.64 273.73 1463.44 281.33 1465.14 287.33 1466.84 278.83 1468.64 281.43 1470.34 290.03 1472.04 291.53 1473.84 275.03 1475.54 278.23 1477.34 275.43 1479.04 286.33 1480.74 287.93 1482.54 283.63 1484.24 284.63 1485.94 281.23 1487.74 280.63 1489.44 281.33 1491.14 258.93 1492.94 279.83 1494.64 285.63 1496.34 279.13 1498.14 277.83 1499.84 293.23 1501.64 281.23 1503.34 284.93 1505.04 278.33 1506.84 267.33 1508.54 284.93 1510.24 276.23 1512.04 278.73 1513.74 278.53 1515.44 284.03 1517.24 276.43 1518.94 287.03 1520.64 281.13 1522.44 278.03 1524.14 284.43 1525.94 282.63 1527.64 280.83 1529.34 280.43 1531.14 269.43 1532.84 283.33 1534.54 282.53 1536.34 279.83 1538.04 283.93 1539.74 278.83 1541.54 272.23 1543.24 279.43 1546.74 273.23 1548.44 283.43 1550.24 266.63 1551.94 277.33 1553.64 268.93 1555.44 270.83 1557.14 272.93 1558.84 263.63 1560.64 272.33 1562.34 268.33 1564.04 268.33 1565.84 264.93 1567.54 281.03 1569.24 275.03 1571.04 277.23 1572.74 272.33 1574.54 268.23 1576.24 274.03 1577.94 255.03 1579.74 271.93 1581.44 269.43 1583.14 276.93 1584.94 276.93" style="fill:none;stroke:#d62728;stroke-miterlimit:2;stroke-width:1.5003999471664429px"/></g><g style="clip-path:url(#clip-path-7)"><polyline points="1237.74 297.43 1239.54 301.13 1241.24 295.73 1242.94 308.33 1244.74 300.13 1246.44 302.63 1248.14 300.83 1249.94 301.33 1251.64 307.03 1255.14 300.03 1256.84 307.23 1258.54 303.13 1260.34 307.03 1262.04 298.63 1263.84 304.03 1265.54 298.83 1267.24 289.53 1269.04 300.63 1270.74 290.63 1272.44 290.83 1274.24 303.23 1275.94 296.63 1277.64 297.73 1279.44 309.13 1281.14 306.23 1282.94 306.13 1284.64 303.73 1286.34 305.53 1288.14 298.63 1289.84 294.03 1291.54 292.63 1293.34 309.23 1295.04 305.43 1296.74 308.23 1298.54 299.43 1300.24 306.73 1301.94 308.33 1303.74 295.13 1305.44 295.73 1307.24 300.73 1308.94 295.83 1310.64 312.13 1312.44 303.33 1314.14 306.43 1315.84 303.53 1317.64 299.53 1319.34 307.53 1321.04 308.93 1322.84 300.53 1324.54 301.33 1326.24 304.03 1328.04 301.43 1329.74 304.13 1331.44 300.13 1333.24 304.53 1334.94 291.33 1336.74 300.03 1338.44 288.83 1340.14 299.83 1341.94 300.53 1343.64 292.33 1345.34 302.93 1347.14 304.23 1348.84 297.93 1350.54 286.73 1352.34 289.93 1354.04 296.73 1355.74 301.53 1357.54 289.73 1359.24 296.23 1361.04 293.63 1362.74 297.03 1364.44 292.93 1366.24 294.73 1367.94 283.33 1369.64 285.63 1371.44 294.33 1374.84 280.23 1376.64 286.33 1378.34 278.43 1380.04 284.23 1381.84 284.43 1383.54 269.23 1385.34 262.03 1387.04 276.33 1388.74 270.53 1390.54 270.23 1392.24 258.83 1393.94 262.23 1395.74 268.83 1397.44 263.53 1399.14 250.23 1400.94 254.33 1402.64 251.63 1404.34 239.73 1406.14 228.13 1407.84 239.63 1409.64 227.33 1411.34 165.73 1413.04 155.13 1414.84 153.53 1416.54 119.13 1418.24 127.83 1420.04 108.03 1421.74 106.73 1423.44 92.13 1425.24 91.23 1426.94 92.23 1428.64 101.33 1432.14 96.43 1433.94 105.73 1435.64 113.73 1437.34 112.53 1439.14 119.53 1440.84 114.83 1442.54 129.33 1444.34 103.33 1446.04 134.53 1447.74 121.93 1451.24 133.13 1453.04 147.33 1454.74 146.73 1456.44 141.83 1459.94 160.63 1461.64 156.23 1463.44 171.13 1465.14 160.43 1466.84 161.63 1468.64 157.83 1470.34 154.13 1472.04 164.23 1473.84 166.03 1475.54 161.13 1477.34 173.43 1479.04 162.13 1480.74 155.53 1482.54 160.53 1485.94 174.53 1487.74 156.13 1491.14 167.53 1492.94 163.63 1494.64 177.13 1496.34 163.93 1498.14 184.33 1499.84 176.63 1501.64 194.33 1503.34 190.93 1505.04 194.43 1506.84 186.93 1508.54 203.63 1510.24 186.33 1512.04 184.13 1513.74 185.83 1515.44 184.13 1517.24 192.53 1518.94 195.03 1520.64 204.13 1522.44 193.73 1524.14 198.33 1525.94 215.23 1527.64 206.03 1529.34 214.83 1531.14 200.33 1532.84 208.43 1534.54 199.93 1536.34 206.53 1538.04 203.23 1539.74 213.63 1541.54 206.73 1543.24 202.53 1544.94 203.73 1546.74 217.63 1548.44 222.03 1550.24 215.33 1551.94 220.73 1553.64 217.13 1555.44 215.53 1557.14 230.03 1558.84 221.73 1560.64 224.73 1562.34 213.03 1564.04 221.53 1565.84 218.53 1567.54 226.53 1569.24 218.33 1571.04 237.03 1572.74 224.23 1574.54 228.93 1576.24 229.83 1577.94 224.33 1579.74 237.23 1581.44 227.03 1583.14 226.43 1584.94 226.43" style="fill:none;stroke:#1f76b4;stroke-miterlimit:2;stroke-width:1.5003999471664429px"/></g><text transform="translate(1225.04 340.7)" style="isolation:isolate;font-size:15.004400253295898px;fill:#2a3f5f;font-family:ArialMT, Arial">−10</text><text transform="translate(1315.99 340.7)" style="isolation:isolate;font-size:15.004400253295898px;fill:#2a3f5f;font-family:ArialMT, Arial">−5</text><text transform="translate(1407.17 340.7)" style="isolation:isolate;font-size:15.004400253295898px;fill:#2a3f5f;font-family:ArialMT, Arial">0</text><text transform="translate(1493.95 340.7)" style="isolation:isolate;font-size:15.004400253295898px;fill:#2a3f5f;font-family:ArialMT, Arial">5</text><text transform="translate(1576.57 340.7)" style="isolation:isolate;font-size:15.004400253295898px;fill:#2a3f5f;font-family:ArialMT, Arial">10</text><line x1="145.74" y1="415.13" x2="145.74" y2="691.13" style="fill:none"/><line x1="145.74" y1="415.13" x2="145.74" y2="691.13" style="fill:none;stroke:#ebf0f8;stroke-width:0.7501999735832214px"/><line x1="319.34" y1="415.13" x2="319.34" y2="691.13" style="fill:none"/><line x1="319.34" y1="415.13" x2="319.34" y2="691.13" style="fill:none;stroke:#ebf0f8;stroke-width:0.7501999735832214px"/><line x1="58.94" y1="671.43" x2="406.14" y2="671.43" style="fill:none"/><line x1="58.94" y1="671.43" x2="406.14" y2="671.43" style="fill:none;stroke:#ebf0f8;stroke-width:0.7501999735832214px"/><line x1="58.94" y1="619.53" x2="406.14" y2="619.53" style="fill:none"/><line x1="58.94" y1="619.53" x2="406.14" y2="619.53" style="fill:none;stroke:#ebf0f8;stroke-width:0.7501999735832214px"/><line x1="58.94" y1="567.63" x2="406.14" y2="567.63" style="fill:none"/><line x1="58.94" y1="567.63" x2="406.14" y2="567.63" style="fill:none;stroke:#ebf0f8;stroke-width:0.7501999735832214px"/><line x1="58.94" y1="515.73" x2="406.14" y2="515.73" style="fill:none"/><line x1="58.94" y1="515.73" x2="406.14" y2="515.73" style="fill:none;stroke:#ebf0f8;stroke-width:0.7501999735832214px"/><line x1="58.94" y1="463.93" x2="406.14" y2="463.93" style="fill:none"/><line x1="58.94" y1="463.93" x2="406.14" y2="463.93" style="fill:none;stroke:#ebf0f8;stroke-width:0.7501999735832214px"/><line x1="232.54" y1="415.13" x2="232.54" y2="691.13" style="fill:none"/><line x1="232.54" y1="415.13" x2="232.54" y2="691.13" style="fill:none;stroke:#ebf0f8;stroke-width:1.5003999471664429px"/><g style="clip-path:url(#clip-path-9)"><polyline points="58.94 631.63 60.74 631.73 62.44 639.63 64.14 633.83 65.94 635.93 67.64 636.73 69.34 627.53 71.14 627.73 72.84 631.83 74.54 626.93 76.34 635.43 78.04 619.83 79.74 632.23 81.54 641.13 83.24 617.83 85.04 631.13 86.74 626.73 88.44 622.43 90.24 626.13 91.94 636.33 93.64 632.73 95.44 626.43 97.14 632.13 98.84 625.63 100.64 636.83 102.34 622.03 104.14 634.13 105.84 629.43 107.54 626.43 109.34 632.33 111.04 628.63 112.74 625.03 114.54 626.93 116.24 644.13 117.94 633.13 119.74 622.93 121.44 626.53 123.14 630.83 124.94 631.53 126.64 611.83 128.44 615.93 130.14 626.53 131.84 613.03 135.34 639.83 137.04 624.93 138.84 619.33 140.54 631.03 142.24 610.23 144.04 613.83 147.44 620.73 149.24 630.43 150.94 612.03 152.74 613.03 154.44 620.33 156.14 621.23 157.94 621.43 159.64 626.83 161.34 610.03 163.14 628.03 164.84 620.73 166.54 624.93 168.34 623.23 170.04 611.93 171.74 605.63 173.54 628.33 177.04 610.73 178.74 616.43 180.44 637.83 182.24 614.33 183.94 617.53 185.64 609.63 187.44 604.83 189.14 610.13 190.84 618.23 192.64 606.73 194.34 607.03 196.04 600.73 197.84 596.23 199.54 589.33 201.34 608.13 203.04 600.93 204.74 604.83 206.54 606.33 208.24 586.53 209.94 593.13 211.74 596.43 213.44 567.13 215.14 591.53 216.94 583.63 218.64 573.43 220.34 551.83 222.14 563.43 223.84 551.43 227.34 526.63 229.04 530.83 230.84 532.23 232.54 546.23 237.74 568.33 239.44 577.73 241.24 570.93 242.94 576.33 244.64 582.73 246.44 598.93 248.14 592.13 249.94 604.83 251.64 604.63 253.34 599.33 255.14 589.83 256.84 622.23 258.54 605.33 260.34 611.33 262.04 620.53 263.74 604.23 265.54 609.63 267.24 621.53 268.94 614.93 270.74 637.03 272.44 623.23 274.24 629.33 275.94 611.13 277.64 624.13 279.44 619.83 281.14 631.03 282.84 617.13 284.64 623.63 286.34 616.93 288.04 624.83 289.84 607.13 291.54 610.83 293.34 629.23 295.04 634.63 296.74 611.83 298.54 639.73 300.24 633.43 301.94 634.53 303.74 636.23 305.44 622.13 307.14 625.63 308.94 631.23 310.64 636.63 312.34 632.83 314.14 618.73 315.84 630.53 317.64 632.83 319.34 629.63 321.04 634.33 322.84 626.43 324.54 629.43 326.24 627.33 328.04 620.53 329.74 626.33 331.44 629.23 333.24 627.23 336.64 644.63 338.44 632.43 341.94 647.83 343.64 637.23 345.34 634.23 347.14 658.03 350.54 626.53 352.34 645.83 354.04 639.23 355.74 646.53 357.54 641.73 359.24 640.93 360.94 645.13 362.74 638.23 364.44 628.23 366.24 630.83 367.94 636.53 369.64 652.63 371.44 628.63 373.14 640.83 374.84 636.53 376.64 644.93 378.34 647.53 380.04 635.63 381.84 639.53 383.54 628.73 385.24 646.93 387.04 635.23 388.74 633.13 390.54 640.53 392.24 643.23 393.94 631.03 395.74 641.53 397.44 644.43 399.14 639.63 400.94 638.23 402.64 641.13 404.34 653.13 406.14 653.13" style="fill:none;stroke:#d62728;stroke-miterlimit:2;stroke-width:1.5003999471664429px"/></g><g style="clip-path:url(#clip-path-9)"><polyline points="58.94 633.43 60.74 639.93 62.44 631.03 64.14 627.73 65.94 631.83 67.64 626.63 69.34 629.73 71.14 628.23 72.84 634.23 76.34 643.53 78.04 631.93 79.74 629.63 81.54 635.13 83.24 637.53 85.04 623.63 86.74 634.73 88.44 639.13 90.24 639.73 91.94 620.73 95.44 639.03 97.14 639.43 100.64 620.53 102.34 623.13 104.14 639.33 105.84 638.73 107.54 612.43 109.34 631.43 111.04 625.43 112.74 629.23 114.54 621.83 116.24 629.93 117.94 615.13 119.74 619.43 121.44 637.03 123.14 619.63 124.94 604.83 126.64 616.33 128.44 622.63 130.14 611.33 131.84 626.13 133.64 622.93 135.34 621.53 137.04 606.73 138.84 624.73 140.54 620.13 142.24 633.43 144.04 622.03 145.74 628.83 147.44 626.63 149.24 614.13 150.94 623.23 152.74 614.13 154.44 611.43 156.14 616.03 157.94 610.73 159.64 612.43 161.34 624.43 163.14 621.03 164.84 631.53 166.54 613.53 168.34 609.83 170.04 629.43 171.74 611.83 173.54 618.13 175.24 617.53 177.04 608.53 178.74 615.23 180.44 619.83 182.24 609.53 183.94 617.23 185.64 613.03 187.44 617.83 189.14 613.73 190.84 617.43 192.64 607.43 194.34 605.43 196.04 604.33 197.84 598.33 199.54 607.23 201.34 598.93 203.04 598.43 204.74 592.13 206.54 600.43 208.24 599.63 209.94 604.23 211.74 588.43 213.44 590.63 215.14 595.23 216.94 580.73 218.64 582.93 220.34 574.93 222.14 551.23 223.84 548.93 225.64 539.23 227.34 536.13 229.04 525.53 230.84 487.63 234.24 540.43 236.04 542.13 237.74 570.33 239.44 581.13 242.94 583.93 244.64 594.63 246.44 585.33 248.14 592.73 249.94 599.23 251.64 588.83 253.34 607.33 255.14 606.43 256.84 621.83 258.54 600.33 260.34 606.33 262.04 619.33 263.74 618.63 265.54 626.33 267.24 620.73 268.94 605.03 270.74 624.03 272.44 616.83 274.24 613.43 275.94 625.83 277.64 625.33 279.44 620.63 281.14 612.33 282.84 622.73 286.34 629.23 288.04 610.33 289.84 633.03 291.54 629.33 293.34 628.43 295.04 635.13 296.74 612.93 298.54 620.73 300.24 629.93 301.94 621.73 303.74 632.03 305.44 632.83 307.14 636.33 308.94 626.13 310.64 628.93 312.34 622.73 314.14 638.73 315.84 626.83 317.64 621.63 319.34 634.93 321.04 627.13 322.84 630.73 324.54 624.53 326.24 626.93 328.04 643.43 329.74 630.43 331.44 643.63 333.24 642.93 334.94 633.03 336.64 642.83 338.44 637.93 340.14 649.83 341.94 626.63 343.64 640.93 345.34 646.43 347.14 636.83 348.84 644.83 350.54 628.43 352.34 634.83 354.04 637.13 355.74 639.43 357.54 639.63 359.24 643.13 360.94 628.23 362.74 641.63 364.44 637.83 366.24 641.13 367.94 636.43 369.64 637.53 371.44 640.13 373.14 651.93 374.84 636.93 376.64 639.83 378.34 650.23 380.04 644.93 381.84 644.23 383.54 660.83 385.24 644.33 387.04 634.13 388.74 642.83 390.54 634.73 392.24 634.43 393.94 643.03 395.74 633.03 397.44 649.93 399.14 650.53 400.94 644.53 402.64 648.23 404.34 638.83 406.14 638.83" style="fill:none;stroke:#1f76b4;stroke-miterlimit:2;stroke-width:1.5003999471664429px"/></g><text transform="translate(46.24 706.94)" style="isolation:isolate;font-size:15.004400253295898px;fill:#2a3f5f;font-family:ArialMT, Arial">−10</text><text transform="translate(137.2 706.94)" style="isolation:isolate;font-size:15.004400253295898px;fill:#2a3f5f;font-family:ArialMT, Arial">−5</text><text transform="translate(228.37 706.94)" style="isolation:isolate;font-size:15.004400253295898px;fill:#2a3f5f;font-family:ArialMT, Arial">0</text><text transform="translate(315.16 706.94)" style="isolation:isolate;font-size:15.004400253295898px;fill:#2a3f5f;font-family:ArialMT, Arial">5</text><text transform="translate(397.78 706.94)" style="isolation:isolate;font-size:15.004400253295898px;fill:#2a3f5f;font-family:ArialMT, Arial">10</text><text transform="translate(37.36 676.64)" style="isolation:isolate;font-size:15.004400253295898px;fill:#2a3f5f;font-family:ArialMT, Arial">0.8</text><text transform="translate(49.87 624.77)" style="isolation:isolate;font-size:15.004400253295898px;fill:#2a3f5f;font-family:ArialMT, Arial">1</text><text transform="translate(37.36 572.89)" style="isolation:isolate;font-size:15.004400253295898px;fill:#2a3f5f;font-family:ArialMT, Arial">1.2</text><text transform="translate(37.36 521.02)" style="isolation:isolate;font-size:15.004400253295898px;fill:#2a3f5f;font-family:ArialMT, Arial">1.4</text><text transform="translate(37.36 469.15)" style="isolation:isolate;font-size:15.004400253295898px;fill:#2a3f5f;font-family:ArialMT, Arial">1.6</text><line x1="538.64" y1="415.13" x2="538.64" y2="691.13" style="fill:none"/><line x1="538.64" y1="415.13" x2="538.64" y2="691.13" style="fill:none;stroke:#ebf0f8;stroke-width:0.7501999735832214px"/><line x1="712.24" y1="415.13" x2="712.24" y2="691.13" style="fill:none"/><line x1="712.24" y1="415.13" x2="712.24" y2="691.13" style="fill:none;stroke:#ebf0f8;stroke-width:0.7501999735832214px"/><line x1="451.94" y1="671.43" x2="799.04" y2="671.43" style="fill:none"/><line x1="451.94" y1="671.43" x2="799.04" y2="671.43" style="fill:none;stroke:#ebf0f8;stroke-width:0.7501999735832214px"/><line x1="451.94" y1="619.53" x2="799.04" y2="619.53" style="fill:none"/><line x1="451.94" y1="619.53" x2="799.04" y2="619.53" style="fill:none;stroke:#ebf0f8;stroke-width:0.7501999735832214px"/><line x1="451.94" y1="567.63" x2="799.04" y2="567.63" style="fill:none"/><line x1="451.94" y1="567.63" x2="799.04" y2="567.63" style="fill:none;stroke:#ebf0f8;stroke-width:0.7501999735832214px"/><line x1="451.94" y1="515.73" x2="799.04" y2="515.73" style="fill:none"/><line x1="451.94" y1="515.73" x2="799.04" y2="515.73" style="fill:none;stroke:#ebf0f8;stroke-width:0.7501999735832214px"/><line x1="451.94" y1="463.93" x2="799.04" y2="463.93" style="fill:none"/><line x1="451.94" y1="463.93" x2="799.04" y2="463.93" style="fill:none;stroke:#ebf0f8;stroke-width:0.7501999735832214px"/><line x1="625.44" y1="415.13" x2="625.44" y2="691.13" style="fill:none"/><line x1="625.44" y1="415.13" x2="625.44" y2="691.13" style="fill:none;stroke:#ebf0f8;stroke-width:1.5003999471664429px"/><g style="clip-path:url(#clip-path-11)"><polyline points="451.94 629.53 455.34 637.93 457.14 631.83 458.84 630.43 460.54 639.63 465.74 625.93 467.54 627.13 469.24 633.23 470.94 633.53 472.74 625.83 474.44 636.53 476.24 639.93 477.94 627.13 479.64 640.23 481.44 606.93 483.14 631.63 484.84 627.73 486.64 625.53 488.34 621.73 490.04 621.13 491.84 616.93 493.54 614.23 495.24 629.33 498.74 633.03 500.54 633.63 502.24 627.53 503.94 638.43 505.74 626.43 507.44 630.43 509.14 625.53 510.94 634.23 512.64 624.53 514.34 633.63 517.84 626.23 519.54 631.53 523.04 627.43 524.84 628.93 526.54 626.73 528.24 619.63 530.04 625.13 531.74 624.73 533.44 640.13 535.24 644.23 536.94 624.73 538.64 630.73 540.44 639.63 542.14 632.03 543.84 623.13 545.64 622.33 547.34 621.83 549.14 614.83 550.84 620.73 552.54 616.13 554.34 622.03 556.04 638.23 557.74 618.13 559.54 624.13 561.24 642.03 562.94 622.23 566.44 631.53 568.24 610.83 569.94 633.43 571.64 633.53 573.44 617.13 575.14 639.23 576.84 621.63 578.64 626.13 580.34 622.33 582.04 631.33 585.54 617.33 587.24 613.13 589.04 619.53 590.74 623.63 592.54 615.53 594.24 619.53 595.94 619.13 597.74 607.13 599.44 600.33 601.14 601.43 602.94 607.13 604.64 587.73 606.34 593.73 608.14 586.63 609.84 601.83 611.54 602.73 613.34 587.43 615.04 589.93 616.84 594.43 618.54 568.23 620.24 563.63 622.04 538.93 623.74 564.03 625.44 529.13 627.24 523.03 628.94 536.93 630.64 558.73 632.44 545.33 634.14 563.83 635.84 563.23 637.64 561.03 639.34 572.53 644.54 596.83 646.34 574.03 648.04 594.03 649.74 593.33 651.54 584.93 653.24 602.03 654.94 607.43 656.74 605.13 658.44 597.43 660.14 594.53 661.94 617.43 663.64 600.83 665.44 603.53 667.14 611.23 668.84 608.83 670.64 605.53 672.34 598.13 674.04 612.83 675.84 619.43 677.54 608.93 679.24 610.23 681.04 610.23 682.74 613.63 684.44 605.13 687.94 622.43 689.74 619.63 691.44 617.23 693.14 626.83 694.94 627.23 696.64 628.63 698.34 619.73 700.14 631.73 701.84 620.93 703.54 627.93 705.34 633.93 707.04 620.43 708.74 622.33 710.54 634.03 712.24 626.63 713.94 630.23 715.74 631.43 717.44 628.43 719.24 618.33 720.94 617.53 722.64 641.43 724.44 633.13 726.14 628.73 727.84 627.53 729.64 632.53 731.34 643.63 733.14 635.93 734.84 632.23 736.54 643.33 738.34 641.33 740.04 634.33 741.74 653.13 745.24 636.53 746.94 633.93 748.74 622.73 750.44 630.33 752.14 639.43 753.94 620.83 755.64 633.43 757.44 627.73 759.14 625.83 760.84 635.23 762.64 642.33 764.34 625.03 766.04 642.23 767.84 638.93 769.54 632.93 771.24 641.33 773.04 640.63 774.74 640.43 776.44 647.23 778.24 650.93 779.94 645.33 781.64 651.93 783.44 642.53 785.14 637.03 786.94 644.13 788.64 645.73 790.34 644.73 792.14 624.43 795.54 640.93 797.34 643.53 799.04 643.53" style="fill:none;stroke:#d62728;stroke-miterlimit:2;stroke-width:1.5003999471664429px"/></g><g style="clip-path:url(#clip-path-11)"><polyline points="451.94 634.03 455.34 638.33 457.14 634.13 458.84 622.43 460.54 630.63 462.34 630.63 464.04 633.33 465.74 625.33 467.54 638.53 469.24 641.03 470.94 637.63 472.74 632.73 474.44 631.93 476.24 632.93 477.94 636.23 479.64 645.13 481.44 632.73 483.14 626.43 484.84 646.13 486.64 633.33 488.34 643.03 491.84 623.53 493.54 635.33 495.24 632.63 497.04 631.43 498.74 628.33 500.54 630.63 502.24 636.73 503.94 621.63 507.44 639.33 509.14 621.83 510.94 637.63 512.64 635.23 514.34 623.43 516.14 619.43 517.84 630.23 519.54 631.13 521.34 637.23 523.04 628.63 524.84 631.13 526.54 640.03 528.24 628.33 530.04 634.43 531.74 631.03 533.44 625.23 535.24 645.03 536.94 640.73 538.64 644.53 540.44 623.93 542.14 649.23 543.84 631.43 545.64 626.33 547.34 629.93 549.14 623.23 550.84 630.33 552.54 619.53 554.34 618.83 556.04 632.83 557.74 633.23 559.54 612.03 561.24 634.33 562.94 635.23 564.74 625.33 566.44 619.73 568.24 638.13 571.64 622.83 573.44 625.73 575.14 616.93 576.84 620.53 578.64 616.83 580.34 621.63 582.04 625.23 583.84 611.53 585.54 618.13 587.24 617.63 589.04 627.33 590.74 617.83 592.54 626.73 594.24 620.23 595.94 607.23 597.74 608.13 599.44 601.53 601.14 606.43 602.94 606.03 604.64 594.63 606.34 599.73 608.14 597.83 609.84 610.63 611.54 583.43 613.34 589.53 615.04 577.13 616.84 579.43 618.54 572.23 620.24 556.73 622.04 548.93 623.74 538.13 625.44 480.73 628.94 539.43 630.64 549.63 632.44 548.03 634.14 538.53 635.84 544.93 637.64 557.63 639.34 584.13 641.14 580.23 642.84 587.13 644.54 585.03 646.34 590.03 648.04 571.63 649.74 608.53 651.54 585.43 653.24 600.33 654.94 599.43 656.74 611.93 658.44 595.83 660.14 588.83 661.94 588.93 663.64 605.63 665.44 603.23 667.14 603.53 668.84 611.93 670.64 592.73 672.34 604.73 674.04 617.13 675.84 603.43 677.54 622.03 679.24 620.23 681.04 609.73 682.74 603.13 684.44 602.93 686.24 622.03 687.94 620.33 689.74 616.33 691.44 635.63 693.14 622.53 694.94 622.33 696.64 616.93 700.14 633.43 701.84 624.23 703.54 635.13 705.34 629.93 707.04 633.33 708.74 630.83 710.54 625.73 712.24 628.33 713.94 630.83 715.74 654.23 717.44 638.63 719.24 631.93 720.94 634.13 722.64 634.83 724.44 625.53 726.14 638.13 727.84 635.43 729.64 621.83 731.34 635.53 733.14 625.73 734.84 618.63 736.54 635.03 738.34 632.33 740.04 624.53 741.74 642.73 743.54 627.63 745.24 632.93 746.94 627.63 748.74 630.73 750.44 627.83 752.14 632.83 753.94 620.53 755.64 630.93 757.44 636.23 759.14 633.13 760.84 648.33 762.64 641.03 764.34 640.63 766.04 646.13 767.84 625.03 769.54 634.43 771.24 639.13 773.04 626.43 774.74 646.43 776.44 635.63 778.24 644.83 779.94 650.93 781.64 639.63 783.44 634.03 785.14 633.33 786.94 644.83 788.64 638.03 790.34 654.13 792.14 641.03 797.34 637.13 799.04 637.13" style="fill:none;stroke:#1f76b4;stroke-miterlimit:2;stroke-width:1.5003999471664429px"/></g><text transform="translate(439.17 706.94)" style="isolation:isolate;font-size:15.004400253295898px;fill:#2a3f5f;font-family:ArialMT, Arial">−10</text><text transform="translate(530.13 706.94)" style="isolation:isolate;font-size:15.004400253295898px;fill:#2a3f5f;font-family:ArialMT, Arial">−5</text><text transform="translate(621.3 706.94)" style="isolation:isolate;font-size:15.004400253295898px;fill:#2a3f5f;font-family:ArialMT, Arial">0</text><text transform="translate(708.09 706.94)" style="isolation:isolate;font-size:15.004400253295898px;fill:#2a3f5f;font-family:ArialMT, Arial">5</text><text transform="translate(790.71 706.94)" style="isolation:isolate;font-size:15.004400253295898px;fill:#2a3f5f;font-family:ArialMT, Arial">10</text><line x1="931.64" y1="415.13" x2="931.64" y2="691.13" style="fill:none"/><line x1="931.64" y1="415.13" x2="931.64" y2="691.13" style="fill:none;stroke:#ebf0f8;stroke-width:0.7501999735832214px"/><line x1="1105.14" y1="415.13" x2="1105.14" y2="691.13" style="fill:none"/><line x1="1105.14" y1="415.13" x2="1105.14" y2="691.13" style="fill:none;stroke:#ebf0f8;stroke-width:0.7501999735832214px"/><line x1="844.84" y1="671.43" x2="1191.94" y2="671.43" style="fill:none"/><line x1="844.84" y1="671.43" x2="1191.94" y2="671.43" style="fill:none;stroke:#ebf0f8;stroke-width:0.7501999735832214px"/><line x1="844.84" y1="619.53" x2="1191.94" y2="619.53" style="fill:none"/><line x1="844.84" y1="619.53" x2="1191.94" y2="619.53" style="fill:none;stroke:#ebf0f8;stroke-width:0.7501999735832214px"/><line x1="844.84" y1="567.63" x2="1191.94" y2="567.63" style="fill:none"/><line x1="844.84" y1="567.63" x2="1191.94" y2="567.63" style="fill:none;stroke:#ebf0f8;stroke-width:0.7501999735832214px"/><line x1="844.84" y1="515.73" x2="1191.94" y2="515.73" style="fill:none"/><line x1="844.84" y1="515.73" x2="1191.94" y2="515.73" style="fill:none;stroke:#ebf0f8;stroke-width:0.7501999735832214px"/><line x1="844.84" y1="463.93" x2="1191.94" y2="463.93" style="fill:none"/><line x1="844.84" y1="463.93" x2="1191.94" y2="463.93" style="fill:none;stroke:#ebf0f8;stroke-width:0.7501999735832214px"/><line x1="1018.44" y1="415.13" x2="1018.44" y2="691.13" style="fill:none"/><line x1="1018.44" y1="415.13" x2="1018.44" y2="691.13" style="fill:none;stroke:#ebf0f8;stroke-width:1.5003999471664429px"/><g style="clip-path:url(#clip-path-13)"><polyline points="844.84 646.73 846.54 646.43 848.34 637.93 850.04 623.43 851.74 637.83 853.54 636.63 855.24 664.63 856.94 635.53 858.74 638.13 860.44 660.13 862.14 638.93 863.94 642.53 865.64 632.23 869.14 618.73 870.84 636.43 872.64 627.03 874.34 627.13 876.04 628.63 877.84 633.93 879.54 642.33 881.24 644.73 883.04 636.83 884.74 647.33 888.24 635.13 889.94 632.33 891.74 633.53 893.44 650.53 895.14 630.53 896.94 629.33 898.64 640.63 900.34 637.13 902.14 624.83 903.84 654.83 905.54 635.53 907.34 659.03 909.04 618.03 910.74 639.03 912.54 636.93 914.24 643.23 916.04 639.13 917.74 628.53 919.44 626.33 921.24 646.63 922.94 617.53 924.64 626.63 926.44 644.23 928.14 629.33 929.84 630.33 931.64 635.83 935.04 622.83 936.84 628.83 938.54 629.53 940.34 632.73 942.04 610.33 943.74 622.23 945.54 637.53 947.24 619.23 948.94 622.73 950.74 614.93 952.44 630.63 954.14 614.83 955.94 624.63 957.64 607.93 961.14 635.43 962.84 631.93 964.64 613.03 966.34 626.33 968.04 623.53 969.84 617.93 971.54 608.63 973.24 616.33 975.04 625.43 976.74 630.13 978.44 614.83 980.24 618.33 983.64 597.93 985.44 610.63 987.14 582.03 988.94 611.53 990.64 597.33 992.34 570.53 994.14 584.43 995.84 574.33 997.54 561.53 999.34 580.33 1002.74 549.63 1004.54 542.43 1006.24 542.33 1008.04 524.83 1009.74 506.93 1011.44 479.83 1013.24 482.73 1014.94 508.53 1016.64 447.73 1018.44 546.33 1020.14 505.33 1021.84 523.23 1023.64 547.03 1025.34 539.13 1027.04 543.23 1028.84 540.13 1030.54 548.33 1032.34 579.73 1034.04 577.13 1035.74 579.03 1037.54 585.23 1039.24 578.53 1040.94 594.83 1042.74 623.13 1044.44 630.83 1046.14 617.23 1047.94 605.53 1049.64 632.83 1051.34 628.63 1053.14 617.33 1054.84 614.83 1056.54 616.03 1058.34 631.43 1060.04 627.03 1061.84 610.83 1063.54 613.83 1065.24 630.33 1067.04 611.03 1068.74 614.23 1070.44 607.33 1073.94 627.13 1075.64 642.13 1077.44 630.13 1079.14 610.93 1080.84 623.03 1082.64 622.83 1084.34 609.83 1086.14 621.13 1087.84 615.03 1089.54 636.13 1091.34 612.33 1093.04 614.13 1094.74 626.13 1096.54 643.13 1099.94 631.13 1101.74 630.03 1103.44 633.33 1105.14 625.73 1106.94 648.63 1108.64 637.03 1110.44 643.23 1112.14 635.53 1113.84 646.53 1115.64 616.33 1117.34 638.73 1119.04 616.33 1120.84 652.73 1122.54 634.63 1124.24 639.13 1126.04 653.53 1127.74 630.33 1129.44 639.43 1131.24 630.93 1132.94 646.73 1134.74 653.13 1136.44 626.33 1138.14 658.73 1139.94 641.33 1141.64 626.83 1143.34 642.53 1145.14 638.93 1146.84 645.63 1148.54 639.83 1150.34 626.63 1152.04 635.13 1153.74 639.93 1155.54 660.43 1157.24 644.83 1159.04 640.63 1160.74 641.23 1162.44 635.03 1164.24 659.93 1165.94 639.93 1167.64 656.63 1169.44 657.83 1171.14 655.13 1172.84 646.83 1174.64 644.73 1176.34 635.73 1178.14 652.03 1179.84 650.13 1181.54 633.33 1183.34 650.33 1185.04 648.73 1186.74 656.83 1188.54 642.33 1190.24 646.73 1191.94 646.73" style="fill:none;stroke:#d62728;stroke-miterlimit:2;stroke-width:1.5003999471664429px"/></g><g style="clip-path:url(#clip-path-13)"><polyline points="844.84 649.93 846.54 630.93 848.34 636.03 850.04 645.43 851.74 645.63 853.54 641.93 855.24 629.53 856.94 624.63 858.74 643.33 860.44 650.83 862.14 635.93 863.94 634.73 865.64 648.83 867.44 629.13 869.14 637.43 870.84 636.53 872.64 625.13 874.34 629.23 876.04 629.93 877.84 633.13 879.54 642.53 881.24 641.43 883.04 643.83 884.74 655.83 886.44 649.33 888.24 640.93 889.94 639.53 891.74 630.13 893.44 631.03 895.14 637.23 896.94 625.23 898.64 629.73 900.34 629.33 902.14 630.43 903.84 639.63 905.54 644.33 907.34 639.23 909.04 628.93 910.74 642.13 912.54 628.63 914.24 622.93 916.04 624.33 917.74 620.13 921.24 636.53 922.94 618.63 924.64 645.13 926.44 623.93 928.14 625.13 929.84 625.53 931.64 636.63 933.34 636.23 935.04 620.83 936.84 619.03 938.54 620.53 940.34 633.53 942.04 633.63 943.74 611.83 945.54 638.13 947.24 610.23 948.94 624.93 950.74 634.03 952.44 616.83 954.14 632.13 955.94 618.03 957.64 636.73 959.34 621.83 961.14 616.03 962.84 606.53 964.64 618.53 966.34 625.93 968.04 615.23 969.84 619.73 971.54 641.53 973.24 615.23 975.04 624.33 976.74 620.43 978.44 614.83 980.24 600.83 981.94 594.03 983.64 591.53 985.44 593.83 987.14 582.73 988.94 587.83 990.64 576.33 992.34 578.73 994.14 582.13 995.84 573.53 997.54 546.23 999.34 576.13 1001.04 546.43 1002.74 546.73 1004.54 543.33 1006.24 529.43 1008.04 536.53 1009.74 503.23 1011.44 517.73 1013.24 447.83 1014.94 451.63 1016.64 431.43 1018.44 518.93 1020.14 509.93 1021.84 533.03 1023.64 527.93 1025.34 534.83 1027.04 539.03 1028.84 544.23 1030.54 528.53 1032.34 568.73 1034.04 578.53 1035.74 556.83 1037.54 598.13 1039.24 595.03 1040.94 609.63 1042.74 609.83 1044.44 596.53 1046.14 591.23 1047.94 603.53 1049.64 618.93 1051.34 618.03 1053.14 622.43 1054.84 593.63 1056.54 617.83 1058.34 622.63 1060.04 616.73 1061.84 617.63 1063.54 614.23 1065.24 626.63 1067.04 611.03 1068.74 614.93 1070.44 629.33 1072.24 621.23 1073.94 620.83 1075.64 614.63 1077.44 644.53 1079.14 615.43 1080.84 630.13 1082.64 621.53 1084.34 639.23 1086.14 618.03 1087.84 626.93 1089.54 625.33 1091.34 649.13 1093.04 645.03 1094.74 639.93 1096.54 639.83 1098.24 641.53 1099.94 632.63 1101.74 632.23 1103.44 626.43 1105.14 632.43 1106.94 645.63 1108.64 624.83 1110.44 641.03 1112.14 640.03 1113.84 636.33 1115.64 635.93 1117.34 644.43 1119.04 631.33 1120.84 652.13 1122.54 646.73 1124.24 645.43 1126.04 654.53 1127.74 647.63 1129.44 654.33 1131.24 647.33 1134.74 658.53 1136.44 649.93 1138.14 655.63 1139.94 641.73 1141.64 640.43 1143.34 661.63 1145.14 660.73 1146.84 648.03 1148.54 640.53 1150.34 654.33 1152.04 659.33 1153.74 650.53 1155.54 645.43 1157.24 629.43 1159.04 677.53 1160.74 661.43 1162.44 644.73 1164.24 649.43 1165.94 656.03 1167.64 657.33 1169.44 648.23 1171.14 658.33 1172.84 650.23 1174.64 654.83 1176.34 635.83 1178.14 641.93 1179.84 631.23 1181.54 667.93 1185.04 639.53 1186.74 656.83 1188.54 642.13 1190.24 661.23 1191.94 661.23" style="fill:none;stroke:#1f76b4;stroke-miterlimit:2;stroke-width:1.5003999471664429px"/></g><text transform="translate(832.1 706.94)" style="isolation:isolate;font-size:15.004400253295898px;fill:#2a3f5f;font-family:ArialMT, Arial">−10</text><text transform="translate(923.06 706.94)" style="isolation:isolate;font-size:15.004400253295898px;fill:#2a3f5f;font-family:ArialMT, Arial">−5</text><text transform="translate(1014.24 706.94)" style="isolation:isolate;font-size:15.004400253295898px;fill:#2a3f5f;font-family:ArialMT, Arial">0</text><text transform="translate(1101.02 706.94)" style="isolation:isolate;font-size:15.004400253295898px;fill:#2a3f5f;font-family:ArialMT, Arial">5</text><text transform="translate(1183.64 706.94)" style="isolation:isolate;font-size:15.004400253295898px;fill:#2a3f5f;font-family:ArialMT, Arial">10</text><line x1="1324.54" y1="415.13" x2="1324.54" y2="691.13" style="fill:none"/><line x1="1324.54" y1="415.13" x2="1324.54" y2="691.13" style="fill:none;stroke:#ebf0f8;stroke-width:0.7501999735832214px"/><line x1="1498.14" y1="415.13" x2="1498.14" y2="691.13" style="fill:none"/><line x1="1498.14" y1="415.13" x2="1498.14" y2="691.13" style="fill:none;stroke:#ebf0f8;stroke-width:0.7501999735832214px"/><line x1="1237.74" y1="671.43" x2="1584.94" y2="671.43" style="fill:none"/><line x1="1237.74" y1="671.43" x2="1584.94" y2="671.43" style="fill:none;stroke:#ebf0f8;stroke-width:0.7501999735832214px"/><line x1="1237.74" y1="619.53" x2="1584.94" y2="619.53" style="fill:none"/><line x1="1237.74" y1="619.53" x2="1584.94" y2="619.53" style="fill:none;stroke:#ebf0f8;stroke-width:0.7501999735832214px"/><line x1="1237.74" y1="567.63" x2="1584.94" y2="567.63" style="fill:none"/><line x1="1237.74" y1="567.63" x2="1584.94" y2="567.63" style="fill:none;stroke:#ebf0f8;stroke-width:0.7501999735832214px"/><line x1="1237.74" y1="515.73" x2="1584.94" y2="515.73" style="fill:none"/><line x1="1237.74" y1="515.73" x2="1584.94" y2="515.73" style="fill:none;stroke:#ebf0f8;stroke-width:0.7501999735832214px"/><line x1="1237.74" y1="463.93" x2="1584.94" y2="463.93" style="fill:none"/><line x1="1237.74" y1="463.93" x2="1584.94" y2="463.93" style="fill:none;stroke:#ebf0f8;stroke-width:0.7501999735832214px"/><line x1="1411.34" y1="415.13" x2="1411.34" y2="691.13" style="fill:none"/><line x1="1411.34" y1="415.13" x2="1411.34" y2="691.13" style="fill:none;stroke:#ebf0f8;stroke-width:1.5003999471664429px"/><g style="clip-path:url(#clip-path-15)"><polyline points="1237.74 643.83 1239.54 634.73 1241.24 640.83 1242.94 664.33 1244.74 648.93 1246.44 640.83 1248.14 643.93 1249.94 657.43 1251.64 646.13 1253.34 639.93 1255.14 653.23 1256.84 655.53 1258.54 625.53 1262.04 652.43 1263.84 638.83 1265.54 651.93 1267.24 645.53 1269.04 647.43 1270.74 617.13 1272.44 634.73 1274.24 620.03 1275.94 634.23 1277.64 625.63 1279.44 639.63 1281.14 647.93 1282.94 637.33 1284.64 647.63 1286.34 636.33 1288.14 629.83 1289.84 649.63 1291.54 647.23 1293.34 633.53 1295.04 633.03 1296.74 649.83 1298.54 622.53 1300.24 627.83 1301.94 636.13 1303.74 630.83 1305.44 645.53 1307.24 639.33 1308.94 642.03 1310.64 638.53 1312.44 655.73 1314.14 624.53 1315.84 634.03 1317.64 630.93 1319.34 640.33 1321.04 633.53 1322.84 629.63 1324.54 631.33 1326.24 651.23 1328.04 617.73 1329.74 623.23 1331.44 631.53 1333.24 623.83 1334.94 629.73 1336.74 639.43 1340.14 620.23 1341.94 621.23 1343.64 638.73 1345.34 630.23 1347.14 643.33 1348.84 632.83 1350.54 647.03 1352.34 624.83 1354.04 629.43 1355.74 623.43 1357.54 613.33 1359.24 629.43 1361.04 622.63 1362.74 625.63 1364.44 627.03 1366.24 608.63 1367.94 619.83 1369.64 621.53 1371.44 604.93 1373.14 604.83 1374.84 621.43 1376.64 599.73 1380.04 607.23 1381.84 613.23 1383.54 583.63 1385.34 586.33 1388.74 602.73 1390.54 602.83 1392.24 580.83 1393.94 594.83 1395.74 571.43 1397.44 538.73 1399.14 568.33 1400.94 545.43 1402.64 520.93 1404.34 535.53 1406.14 502.33 1407.84 525.13 1409.64 541.83 1411.34 481.13 1414.84 502.23 1416.54 511.43 1418.24 514.23 1420.04 506.83 1423.44 554.43 1425.24 565.73 1426.94 553.63 1428.64 576.03 1430.44 572.73 1432.14 577.23 1433.94 583.23 1435.64 575.83 1437.34 598.23 1439.14 588.43 1440.84 585.43 1442.54 590.23 1444.34 608.13 1446.04 610.93 1447.74 615.23 1449.54 612.33 1451.24 603.63 1453.04 606.43 1454.74 621.83 1456.44 616.03 1458.24 616.03 1459.94 610.73 1461.64 618.53 1463.44 629.63 1465.14 642.63 1466.84 632.03 1468.64 632.73 1470.34 630.93 1472.04 625.13 1473.84 631.63 1477.34 618.33 1479.04 605.73 1480.74 625.43 1482.54 631.03 1484.24 624.13 1485.94 600.53 1487.74 624.63 1489.44 631.23 1491.14 622.23 1492.94 624.63 1494.64 651.93 1496.34 624.43 1498.14 642.63 1499.84 637.53 1501.64 636.03 1503.34 641.43 1505.04 645.23 1506.84 626.53 1508.54 633.03 1510.24 632.33 1512.04 629.13 1513.74 635.23 1515.44 627.83 1517.24 644.03 1518.94 639.23 1520.64 624.23 1522.44 649.63 1524.14 640.23 1525.94 634.73 1527.64 644.33 1529.34 623.33 1531.14 631.53 1534.54 635.03 1536.34 635.73 1538.04 652.53 1539.74 630.03 1543.24 640.13 1544.94 654.33 1546.74 642.73 1548.44 636.53 1550.24 625.83 1551.94 637.63 1553.64 637.03 1555.44 645.33 1557.14 648.63 1558.84 649.53 1560.64 632.33 1562.34 657.63 1564.04 639.63 1565.84 647.63 1567.54 646.13 1569.24 650.73 1571.04 633.63 1572.74 629.03 1574.54 636.13 1576.24 627.03 1577.94 641.53 1579.74 650.43 1581.44 632.93 1583.14 642.53 1584.94 642.53" style="fill:none;stroke:#d62728;stroke-miterlimit:2;stroke-width:1.5003999471664429px"/></g><g style="clip-path:url(#clip-path-15)"><polyline points="1237.74 657.83 1239.54 648.43 1241.24 654.33 1242.94 655.53 1244.74 659.13 1246.44 652.33 1248.14 653.03 1249.94 647.03 1251.64 654.63 1253.34 646.73 1255.14 666.63 1256.84 656.03 1258.54 650.93 1260.34 642.73 1262.04 650.93 1263.84 638.83 1265.54 642.93 1267.24 629.03 1269.04 647.73 1270.74 644.03 1272.44 644.63 1274.24 653.73 1275.94 636.83 1277.64 654.23 1279.44 657.33 1281.14 644.03 1282.94 659.63 1284.64 637.93 1286.34 644.23 1288.14 643.93 1289.84 650.23 1291.54 657.63 1293.34 651.73 1295.04 648.73 1296.74 656.63 1298.54 646.63 1300.24 642.53 1301.94 648.73 1303.74 651.63 1305.44 627.73 1307.24 640.33 1308.94 651.83 1310.64 651.93 1312.44 647.03 1314.14 636.33 1315.84 632.83 1317.64 633.23 1319.34 649.73 1321.04 649.23 1324.54 629.83 1326.24 659.13 1328.04 640.23 1329.74 647.93 1331.44 638.43 1333.24 639.43 1334.94 629.43 1336.74 624.23 1338.44 657.73 1340.14 637.43 1341.94 621.53 1343.64 626.63 1345.34 632.03 1347.14 651.33 1348.84 619.93 1350.54 649.13 1352.34 627.03 1354.04 631.83 1355.74 629.53 1357.54 633.13 1359.24 631.33 1361.04 622.43 1362.74 618.73 1364.44 621.63 1366.24 616.13 1367.94 637.53 1369.64 646.33 1371.44 622.43 1373.14 621.53 1374.84 604.73 1376.64 619.83 1378.34 591.63 1380.04 605.33 1381.84 600.33 1383.54 607.73 1385.34 591.13 1387.04 591.13 1388.74 607.03 1390.54 578.13 1392.24 587.13 1393.94 583.53 1395.74 562.63 1397.44 553.53 1399.14 562.93 1400.94 550.53 1402.64 544.43 1404.34 540.93 1406.14 540.33 1407.84 512.83 1409.64 533.63 1411.34 428.33 1413.04 464.03 1416.54 491.73 1418.24 515.93 1420.04 496.63 1421.74 520.83 1423.44 538.23 1425.24 529.83 1426.94 539.53 1428.64 558.03 1430.44 588.23 1432.14 547.83 1433.94 572.53 1435.64 559.13 1437.34 572.63 1439.14 575.63 1440.84 597.13 1442.54 574.73 1444.34 595.73 1446.04 602.03 1447.74 604.03 1449.54 588.43 1451.24 595.63 1453.04 595.43 1454.74 620.33 1456.44 611.53 1459.94 613.73 1461.64 611.03 1463.44 621.53 1465.14 618.03 1466.84 610.73 1468.64 626.83 1470.34 632.63 1472.04 612.73 1473.84 621.83 1475.54 625.23 1477.34 620.53 1479.04 609.83 1480.74 636.93 1482.54 623.33 1484.24 615.03 1485.94 621.43 1487.74 628.33 1489.44 620.73 1491.14 614.63 1492.94 632.23 1494.64 638.83 1496.34 635.03 1498.14 628.93 1499.84 637.93 1501.64 626.93 1503.34 650.13 1505.04 629.63 1506.84 620.03 1512.04 640.43 1513.74 634.23 1515.44 630.03 1517.24 631.13 1518.94 625.13 1520.64 627.83 1522.44 632.93 1524.14 633.63 1525.94 623.73 1527.64 628.73 1529.34 639.73 1531.14 657.73 1532.84 633.73 1534.54 635.93 1536.34 627.23 1538.04 636.93 1539.74 634.93 1541.54 622.33 1543.24 629.73 1544.94 631.13 1546.74 647.93 1548.44 630.93 1550.24 644.53 1551.94 650.63 1553.64 636.93 1555.44 633.53 1557.14 641.13 1558.84 645.33 1560.64 628.43 1562.34 633.13 1564.04 633.33 1565.84 641.43 1567.54 638.53 1569.24 642.73 1571.04 638.13 1572.74 646.83 1574.54 628.73 1576.24 636.73 1577.94 640.93 1579.74 640.93 1581.44 638.33 1583.14 641.53 1584.94 641.53" style="fill:none;stroke:#1f76b4;stroke-miterlimit:2;stroke-width:1.5003999471664429px"/></g><text transform="translate(1225.04 706.94)" style="isolation:isolate;font-size:15.004400253295898px;fill:#2a3f5f;font-family:ArialMT, Arial">−10</text><text transform="translate(1315.99 706.94)" style="isolation:isolate;font-size:15.004400253295898px;fill:#2a3f5f;font-family:ArialMT, Arial">−5</text><text transform="translate(1407.17 706.94)" style="isolation:isolate;font-size:15.004400253295898px;fill:#2a3f5f;font-family:ArialMT, Arial">0</text><text transform="translate(1493.95 706.94)" style="isolation:isolate;font-size:15.004400253295898px;fill:#2a3f5f;font-family:ArialMT, Arial">5</text><text transform="translate(1576.57 706.94)" style="isolation:isolate;font-size:15.004400253295898px;fill:#2a3f5f;font-family:ArialMT, Arial">10</text><text transform="translate(117.46 386.46)" style="isolation:isolate;font-size:18.005300521850586px;fill:#2a3f5f;font-family:ArialMT, Arial">Position Relative to<tspan x="154.13" y="0" style="letter-spacing:-0.018061087739432876em"> </tspan><tspan x="158.8" y="0" style="letter-spacing:-0.000027118750359508825em">TSS (kb)</tspan></text><text transform="translate(510.4 386.46)" style="isolation:isolate;font-size:18.005300521850586px;fill:#2a3f5f;font-family:ArialMT, Arial">Position Relative to<tspan x="154.13" y="0" style="letter-spacing:-0.018061087739432876em"> </tspan><tspan x="158.8" y="0" style="letter-spacing:-0.000027118750359508825em">TES (kb)</tspan></text><text transform="translate(903.33 386.46)" style="isolation:isolate;font-size:18.005300521850586px;fill:#2a3f5f;font-family:ArialMT, Arial">Position Relative to<tspan x="154.13" y="0" style="letter-spacing:-0.018061087739432876em"> </tspan><tspan x="158.8" y="0" style="letter-spacing:-0.000027118750359508825em">TSS (kb)</tspan></text><text transform="translate(1296.26 386.46)" style="isolation:isolate;font-size:18.005300521850586px;fill:#2a3f5f;font-family:ArialMT, Arial">Position Relative to<tspan x="154.13" y="0" style="letter-spacing:-0.018061087739432876em"> </tspan><tspan x="158.8" y="0" style="letter-spacing:-0.000027118750359508825em">TES (kb)</tspan></text><text transform="translate(117.46 739.91)" style="isolation:isolate;font-size:18.005300521850586px;fill:#2a3f5f;font-family:ArialMT, Arial">Position Relative to<tspan x="154.13" y="0" style="letter-spacing:-0.018061087739432876em"> </tspan><tspan x="158.8" y="0" style="letter-spacing:-0.000027118750359508825em">TSS (kb)</tspan></text><text transform="translate(510.4 739.91)" style="isolation:isolate;font-size:18.005300521850586px;fill:#2a3f5f;font-family:ArialMT, Arial">Position Relative to<tspan x="154.13" y="0" style="letter-spacing:-0.018061087739432876em"> </tspan><tspan x="158.8" y="0" style="letter-spacing:-0.000027118750359508825em">TES (kb)</tspan></text><text transform="translate(903.33 739.91)" style="isolation:isolate;font-size:18.005300521850586px;fill:#2a3f5f;font-family:ArialMT, Arial">Position Relative to<tspan x="154.13" y="0" style="letter-spacing:-0.018061087739432876em"> </tspan><tspan x="158.8" y="0" style="letter-spacing:-0.000027118750359508825em">TSS (kb)</tspan></text><text transform="translate(1296.26 739.91)" style="isolation:isolate;font-size:18.005300521850586px;fill:#2a3f5f;font-family:ArialMT, Arial">Position Relative to<tspan x="154.13" y="0" style="letter-spacing:-0.018061087739432876em"> </tspan><tspan x="158.8" y="0" style="letter-spacing:-0.000027118750359508825em">TES (kb)</tspan></text><text transform="translate(15.45 275.46) rotate(-90)" style="isolation:isolate;font-size:18.005300521850586px;fill:#2a3f5f;font-family:ArialMT, Arial">Relative CPD Repair</text><text transform="translate(15.45 653.7) rotate(-90)" style="isolation:isolate;font-size:18.005300521850586px;fill:#2a3f5f;font-family:ArialMT, Arial"><tspan xml:space="preserve">Relative  (6-4)P</tspan><tspan x="125.08" y="0" style="letter-spacing:-0.018061087739432876em">P</tspan><tspan x="136.76" y="0" xml:space="preserve"> Repair</tspan></text><rect x="285.44" y="75.83" width="82.1" height="65.6" style="fill:#fff"/><text transform="translate(324.06 102.17)" style="isolation:isolate;font-size:19.308300018310547px;fill:#2a3f5f;font-family:ArialMT, Arial">TS</text><line x1="290.24" y1="94.63" x2="319.24" y2="94.63" style="fill:none;stroke:#d62728;stroke-width:1.930799961090088px"/><rect x="285.44" y="80.63" width="120.7" height="28" style="fill-opacity:0"/><text transform="translate(324.06 130.17)" style="isolation:isolate;font-size:19.308300018310547px;fill:#2a3f5f;font-family:ArialMT, Arial">NTS</text><line x1="290.24" y1="122.63" x2="319.24" y2="122.63" style="fill:none;stroke:#1f76b4;stroke-width:1.930799961090088px"/><rect x="285.44" y="108.63" width="120.7" height="28" style="fill-opacity:0"/><rect x="285.44" y="75.83" width="82.1" height="65.6" style="fill:none"/><line x1="58.94" y1="35.83" x2="1584.94" y2="35.83" style="fill:none;stroke:#8e8e8e;stroke-miterlimit:10;stroke-width:4px"/><rect x="799.04" y="20.63" width="45.8" height="30.9" style="fill:#fff;stroke:#fff;stroke-miterlimit:10;stroke-width:3.947200059890747px"/><text transform="translate(391.94 20.6)" style="isolation:isolate;font-size:24px;fill:#2a3f5f;font-family:ArialMT, Arial">Human</text><text transform="translate(1158.85 20.6)" style="isolation:isolate;font-size:24px;fill:#2a3f5f;font-family:ArialMT, Arial">Mouse Lemur</text></svg>