<?xml version="1.0" encoding="utf-8"?>
<!-- Generator: Adobe Illustrator 24.0.1, SVG Export Plug-In . SVG Version: 6.00 Build 0)  -->
<svg version="1.1" id="Layer_1" xmlns="http://www.w3.org/2000/svg" xmlns:xlink="http://www.w3.org/1999/xlink" x="0px" y="0px"
	 viewBox="0 0 727.3 595" style="enable-background:new 0 0 727.3 595;" xml:space="preserve">
<style type="text/css">
	.st0{clip-path:url(#SVGID_2_);fill:none;stroke:#EBEBEB;stroke-width:0.53;stroke-linejoin:round;stroke-miterlimit:10;}
	.st1{clip-path:url(#SVGID_2_);fill:none;stroke:#EBEBEB;stroke-width:1.07;stroke-linejoin:round;stroke-miterlimit:10;}
	.st2{opacity:0.702;clip-path:url(#SVGID_2_);fill:#482576;}
	.st3{opacity:0.702;clip-path:url(#SVGID_2_);fill:#95D840;}
	
		.st4{clip-path:url(#SVGID_2_);fill:none;stroke:#BEBEBE;stroke-width:1.07;stroke-linecap:round;stroke-linejoin:round;stroke-miterlimit:10;}
	.st5{clip-path:url(#SVGID_2_);fill:#FFFFFF;}
	.st6{clip-path:url(#SVGID_2_);}
	.st7{font-family:'Helvetica-Bold';}
	.st8{font-size:12px;}
	.st9{clip-path:url(#SVGID_8_);fill:#FFFFFF;}
	.st10{clip-path:url(#SVGID_8_);}
	
		.st11{clip-path:url(#SVGID_14_);fill:none;stroke:#BEBEBE;stroke-width:1.07;stroke-linecap:round;stroke-linejoin:round;stroke-miterlimit:10;}
	.st12{fill:#4D4D4D;}
	.st13{font-family:'Helvetica';}
	.st14{font-size:14px;}
	.st15{fill:#FFFFFF;stroke:#727272;stroke-width:1.1571;stroke-miterlimit:10;}
	.st16{opacity:0.702;fill:#95D840;}
	
		.st17{opacity:0.702;fill:none;stroke:#95D840;stroke-width:0.71;stroke-linecap:round;stroke-linejoin:round;stroke-miterlimit:10;}
	.st18{opacity:0.702;fill:#482576;}
	
		.st19{opacity:0.702;fill:none;stroke:#482576;stroke-width:0.71;stroke-linecap:round;stroke-linejoin:round;stroke-miterlimit:10;}
	.st20{opacity:0.702;}
</style>
<g>
	<defs>
		<rect id="SVGID_1_" x="90.1" y="27.9" width="613.4" height="490.9"/>
	</defs>
	<clipPath id="SVGID_2_">
		<use xlink:href="#SVGID_1_"  style="overflow:visible;"/>
	</clipPath>
	<line class="st0" x1="90.1" y1="469.3" x2="703.5" y2="469.3"/>
	<line class="st0" x1="90.1" y1="336.9" x2="703.5" y2="336.9"/>
	<line class="st0" x1="90.1" y1="204.5" x2="703.5" y2="204.5"/>
	<line class="st0" x1="90.1" y1="72" x2="703.5" y2="72"/>
	<line class="st0" x1="195.4" y1="518.8" x2="195.4" y2="27.9"/>
	<line class="st0" x1="350.3" y1="518.8" x2="350.3" y2="27.9"/>
	<line class="st0" x1="505.2" y1="518.8" x2="505.2" y2="27.9"/>
	<line class="st0" x1="660.1" y1="518.8" x2="660.1" y2="27.9"/>
	<line class="st1" x1="90.1" y1="403.1" x2="703.5" y2="403.1"/>
	<line class="st1" x1="90.1" y1="270.7" x2="703.5" y2="270.7"/>
	<line class="st1" x1="90.1" y1="138.3" x2="703.5" y2="138.3"/>
	<line class="st1" x1="118" y1="518.8" x2="118" y2="27.9"/>
	<line class="st1" x1="272.9" y1="518.8" x2="272.9" y2="27.9"/>
	<line class="st1" x1="427.8" y1="518.8" x2="427.8" y2="27.9"/>
	<line class="st1" x1="582.7" y1="518.8" x2="582.7" y2="27.9"/>
	<path class="st2" d="M497.1,55.5c0-4.3,3.5-7.8,7.8-7.8c4.3,0,7.8,3.5,7.8,7.8c0,4.3-3.5,7.8-7.8,7.8
		C500.6,63.4,497.1,59.9,497.1,55.5"/>
	<polygon class="st2" points="511.5,38 522,56.3 501,56.3 	"/>
	<path class="st2" d="M525,62.9c0-4.3,3.5-7.8,7.8-7.8c4.3,0,7.8,3.5,7.8,7.8s-3.5,7.8-7.8,7.8C528.5,70.7,525,67.2,525,62.9"/>
	<polygon class="st2" points="522.1,47 532.6,65.3 511.5,65.3 	"/>
	<path class="st3" d="M528.3,104.7c0-4.3,3.5-7.8,7.8-7.8c4.3,0,7.8,3.5,7.8,7.8c0,4.3-3.5,7.8-7.8,7.8
		C531.8,112.5,528.3,109,528.3,104.7"/>
	<polygon class="st3" points="553.4,65.8 563.9,84.1 542.9,84.1 	"/>
	<path class="st3" d="M543.8,114.6c0-4.3,3.5-7.8,7.8-7.8c4.3,0,7.8,3.5,7.8,7.8c0,4.3-3.5,7.8-7.8,7.8
		C547.4,122.4,543.8,118.9,543.8,114.6"/>
	<polygon class="st3" points="564.2,85.8 574.7,104.1 553.6,104.1 	"/>
	<path class="st2" d="M220.6,482.9c0-4.3,3.5-7.8,7.8-7.8c4.3,0,7.8,3.5,7.8,7.8c0,4.3-3.5,7.8-7.8,7.8
		C224.1,490.7,220.6,487.1,220.6,482.9"/>
	<path class="st2" d="M177.3,496.5c0-4.3,3.5-7.8,7.8-7.8s7.8,3.5,7.8,7.8s-3.5,7.8-7.8,7.8S177.3,500.8,177.3,496.5"/>
	<polyline class="st4" points="187,515.2 187.5,515.2 188.3,515.2 188.9,515.1 189.5,515.1 190.1,515 190.6,514.9 191.4,514.8 
		191.8,514.8 192.6,514.6 192.9,514.6 193.8,514.4 194,514.4 194.9,514.2 195.2,514.2 196.2,513.9 196.4,513.9 197.4,513.7 
		197.6,513.6 198.7,513.4 198.9,513.3 200.1,513 200.2,513 201.4,512.7 201.6,512.7 202.8,512.3 202.9,512.3 204.2,512 204.3,511.9 
		205.6,511.6 205.7,511.5 207.1,511.2 207.2,511.1 208.5,510.8 208.6,510.7 210,510.3 210.1,510.3 211.4,509.9 211.6,509.8 
		212.9,509.4 213,509.4 214.4,508.9 214.5,508.9 215.8,508.5 216,508.4 217.3,508 217.4,507.9 218.7,507.5 218.8,507.5 220.1,507 
		220.3,507 221.5,506.5 221.6,506.5 222.9,506 223,506 224.2,505.5 224.3,505.5 225.5,505 225.6,505 226.8,504.5 226.9,504.5 
		228,504 228.1,504 229.1,503.6 229.3,503.5 230.3,503.1 230.5,503 231.4,502.6 231.6,502.5 232.4,502.1 232.7,502 233.4,501.6 
		233.8,501.4 234.4,501.1 234.9,500.9 235.4,500.6 236,500.3 236.5,500 237.2,499.5 237.6,499.3 238.5,498.6 238.8,498.4 
		240.1,497.4 240.4,497.1 242.2,495.2 242.4,495 244.9,491.2 245,491 246.6,486.1 246.8,483 246.8,482.8 246.1,477.7 243.5,472.3 
		243.4,472.2 239.9,468.4 237.3,466.6 237.1,466.5 232.8,464.8 232.6,464.8 230,464.3 229.7,464.2 228,464.1 227.6,464.1 
		226.5,464.1 226,464.1 225.2,464.2 224.6,464.2 224,464.3 223.4,464.4 222.9,464.4 222.1,464.5 221.8,464.6 220.9,464.7 
		220.6,464.8 219.8,464.9 219.5,465 218.6,465.1 218.3,465.2 217.3,465.4 217.1,465.5 216.1,465.7 215.9,465.7 214.8,466 214.6,466 
		213.4,466.3 213.3,466.3 212.1,466.6 211.9,466.7 210.7,467 210.6,467 209.3,467.4 209.2,467.4 207.9,467.8 207.8,467.8 
		206.4,468.2 206.3,468.2 205,468.6 204.9,468.6 203.5,469 203.4,469.1 202.1,469.5 201.9,469.5 200.6,469.9 200.5,470 199.1,470.4 
		199,470.4 197.7,470.9 197.6,470.9 196.2,471.4 196.1,471.4 194.8,471.9 194.7,471.9 193.4,472.3 193.2,472.4 192,472.8 
		191.9,472.9 190.6,473.3 190.5,473.4 189.3,473.8 189.2,473.9 188,474.3 187.9,474.4 186.8,474.8 186.6,474.9 185.5,475.3 
		185.4,475.4 184.4,475.8 184.2,475.9 183.2,476.3 183,476.4 182.1,476.7 181.9,476.9 181.1,477.2 180.8,477.4 180.1,477.7 
		179.7,477.9 179.1,478.2 178.6,478.5 178.1,478.8 177.5,479.1 177,479.4 176.3,479.8 175.9,480.1 175,480.7 174.7,481 173.4,482 
		173.1,482.2 171.3,484.1 171.1,484.3 168.6,488.1 168.5,488.3 166.9,493.3 166.7,496.4 166.7,496.5 167.4,501.7 170,507 
		170.1,507.2 173.6,511 176.2,512.7 176.4,512.8 180.7,514.5 180.9,514.6 183.5,515.1 183.8,515.1 185.5,515.2 185.9,515.2 
		187,515.2 	"/>
	<polyline class="st4" points="560.7,134.3 561.9,134.2 564.2,134 565.3,133.8 567.8,133.1 568.8,132.8 571.4,131.6 572.3,131.1 
		574.8,129.5 575.7,128.9 578,126.9 578.7,126.1 580.5,123.8 581.1,122.9 582.5,120.4 583,119.5 583.9,117.1 584.2,116 584.7,113.8 
		584.9,112.6 585.2,110.7 585.3,109.4 585.3,107.7 585.3,106.3 585.2,104.8 585,103.3 584.9,102 584.6,100.4 584.4,99.3 584,97.7 
		583.7,96.7 583.2,94.9 582.9,94.1 582.3,92.3 582,91.5 581.3,89.6 581,89 580.1,87 579.9,86.4 578.9,84.4 578.6,83.9 577.5,81.8 
		577.3,81.3 576.1,79.3 575.8,78.8 574.6,76.7 574.3,76.3 572.9,74.2 572.7,73.8 571.2,71.7 571,71.3 569.4,69.2 569.2,68.8 
		567.6,66.7 567.3,66.3 565.6,64.2 565.4,63.9 563.6,61.8 563.4,61.5 561.6,59.5 561.3,59.2 559.5,57.2 559.2,56.9 557.3,54.9 
		557,54.6 555.1,52.7 554.8,52.4 552.9,50.6 552.5,50.3 550.6,48.6 550.2,48.3 548.3,46.6 547.9,46.3 546,44.7 545.6,44.4 
		543.6,42.9 543.2,42.6 541.3,41.2 540.8,40.9 538.9,39.6 538.4,39.2 536.5,38.1 535.9,37.7 534.1,36.7 533.4,36.3 531.6,35.4 
		530.9,35 529.2,34.2 528.4,33.8 526.7,33.1 525.8,32.8 524.1,32.2 523.1,31.9 521.5,31.4 520.3,31.1 518.8,30.8 517.4,30.5 
		516,30.4 514.3,30.2 513,30.2 511,30.2 509.8,30.3 507.6,30.6 506.5,30.8 504,31.4 503,31.8 500.4,32.9 499.5,33.4 496.9,35 
		496.1,35.6 493.8,37.7 493.1,38.4 491.2,40.8 490.6,41.6 489.2,44.1 488.8,45.1 487.9,47.5 487.5,48.5 487,50.7 486.8,51.9 
		486.6,53.9 486.5,55.2 486.4,56.9 486.5,58.3 486.5,59.7 486.7,61.2 486.9,62.5 487.1,64.1 487.4,65.2 487.8,66.9 488,67.8 
		488.5,69.6 488.8,70.4 489.4,72.3 489.7,73 490.5,74.9 490.7,75.6 491.6,77.5 491.9,78.1 492.8,80.1 493.1,80.7 494.2,82.7 
		494.5,83.2 495.6,85.3 495.9,85.7 497.2,87.8 497.4,88.2 498.8,90.4 499.1,90.8 500.5,92.9 500.8,93.3 502.3,95.4 502.6,95.8 
		504.2,97.9 504.4,98.2 506.1,100.3 506.4,100.6 508.1,102.7 508.4,103 510.2,105 510.4,105.4 512.3,107.4 512.6,107.7 514.4,109.6 
		514.7,109.9 516.6,111.8 517,112.1 518.9,113.9 519.2,114.2 521.1,116 521.5,116.3 523.4,117.9 523.8,118.2 525.8,119.8 
		526.2,120.1 528.1,121.6 528.5,122 530.5,123.3 530.9,123.7 532.8,125 533.4,125.3 535.2,126.5 535.8,126.8 537.7,127.9 
		538.3,128.2 540.1,129.2 540.8,129.5 542.5,130.3 543.4,130.7 545,131.4 546,131.8 547.6,132.3 548.7,132.7 550.2,133.1 
		551.5,133.4 552.9,133.7 554.4,134 555.8,134.2 557.5,134.3 558.8,134.4 560.7,134.3 	"/>
	<rect x="156.4" y="407.7" class="st5" width="100.7" height="22.4"/>
	<g class="st6">
		<text transform="matrix(1 0 0 1 162.0698 421.9102)"><tspan x="0" y="0" class="st7 st8">B </tspan><tspan x="12" y="0" class="st7 st8">L</tspan><tspan x="19" y="0" class="st7 st8">ympho</tspan><tspan x="58.3" y="0" class="st7 st8">c</tspan><tspan x="64.9" y="0" class="st7 st8">ytes</tspan></text>
	</g>
</g>
<g>
	<defs>
		<rect id="SVGID_3_" x="90.1" y="27.9" width="613.4" height="490.9"/>
	</defs>
	<clipPath id="SVGID_4_">
		<use xlink:href="#SVGID_3_"  style="overflow:visible;"/>
	</clipPath>
</g>
<g>
	<defs>
		<rect id="SVGID_5_" x="90.1" y="27.9" width="613.4" height="490.9"/>
	</defs>
	<clipPath id="SVGID_6_">
		<use xlink:href="#SVGID_5_"  style="overflow:visible;"/>
	</clipPath>
</g>
<g>
	<defs>
		<rect id="SVGID_7_" x="90.1" y="27.9" width="613.4" height="490.9"/>
	</defs>
	<clipPath id="SVGID_8_">
		<use xlink:href="#SVGID_7_"  style="overflow:visible;"/>
	</clipPath>
	<rect x="497.9" y="168.4" class="st9" width="76" height="20.1"/>
	<g class="st10">
		<text transform="matrix(1 0 0 1 503.5303 182.6499)"><tspan x="0" y="0" class="st7 st8">Fib</tspan><tspan x="18" y="0" class="st7 st8">r</tspan><tspan x="22.4" y="0" class="st7 st8">o</tspan><tspan x="29.8" y="0" class="st7 st8">b</tspan><tspan x="37" y="0" class="st7 st8">lasts</tspan></text>
	</g>
</g>
<g>
	<defs>
		<rect id="SVGID_9_" x="90.1" y="27.9" width="613.4" height="490.9"/>
	</defs>
	<clipPath id="SVGID_10_">
		<use xlink:href="#SVGID_9_"  style="overflow:visible;"/>
	</clipPath>
</g>
<g>
	<defs>
		<rect id="SVGID_11_" x="90.1" y="27.9" width="613.4" height="490.9"/>
	</defs>
	<clipPath id="SVGID_12_">
		<use xlink:href="#SVGID_11_"  style="overflow:visible;"/>
	</clipPath>
</g>
<g>
	<defs>
		<rect id="SVGID_13_" x="90.1" y="27.9" width="613.4" height="490.9"/>
	</defs>
	<clipPath id="SVGID_14_">
		<use xlink:href="#SVGID_13_"  style="overflow:visible;"/>
	</clipPath>
	<polyline class="st11" points="156.4,430.1 257.1,430.1 241.2,459.1 	"/>
	<polyline class="st11" points="497.9,168.4 573.9,168.4 567.3,142 	"/>
</g>
<text transform="matrix(1 0 0 1 49.75 393.0303)" class="st12 st13 st14">−0.50</text>
<text transform="matrix(1 0 0 1 49.75 260.6201)" class="st12 st13 st14">−0.25</text>
<text transform="matrix(1 0 0 1 57.9302 128.2002)" class="st12 st13 st14">0.00</text>
<text transform="matrix(1 0 0 1 104.3599 539.6904)" class="st12 st13 st14">0.20</text>
<text transform="matrix(1 0 0 1 259.25 539.6904)" class="st12 st13 st14">0.25</text>
<text transform="matrix(1 0 0 1 414.1401 539.6904)" class="st12 st13 st14">0.30</text>
<text transform="matrix(1 0 0 1 569.0303 539.6904)" class="st12 st13 st14">0.35</text>
<text transform="matrix(1 0 0 1 352.8198 567.21)" class="st13 st14">PC1 (%63.96)</text>
<text transform="matrix(-6.123234e-17 -1 1 -6.123234e-17 32.2803 317.3198)" class="st13 st14">PC2 (%13.94)</text>
<rect x="505.2" y="336.4" class="st15" width="154.9" height="132.9"/>
<g>
	<g>
		<path class="st16" d="M533.3,364.5c0-4.3,3.5-7.8,7.8-7.8s7.8,3.5,7.8,7.8c0,4.3-3.5,7.8-7.8,7.8S533.3,368.8,533.3,364.5"/>
		<path class="st17" d="M533.3,364.5c0-4.3,3.5-7.8,7.8-7.8s7.8,3.5,7.8,7.8c0,4.3-3.5,7.8-7.8,7.8S533.3,368.8,533.3,364.5"/>
	</g>
	<g>
		<path class="st18" d="M533.3,384.4c0-4.3,3.5-7.8,7.8-7.8s7.8,3.5,7.8,7.8c0,4.3-3.5,7.8-7.8,7.8S533.3,388.7,533.3,384.4"/>
		<path class="st19" d="M533.3,384.4c0-4.3,3.5-7.8,7.8-7.8s7.8,3.5,7.8,7.8c0,4.3-3.5,7.8-7.8,7.8S533.3,388.7,533.3,384.4"/>
	</g>
	<text transform="matrix(1 0 0 1 558.0253 387.9618)" class="st13 st8">CPD</text>
	<path class="st20" d="M533.3,425.4c0-4.3,3.5-7.8,7.8-7.8s7.8,3.5,7.8,7.8c0,4.3-3.5,7.8-7.8,7.8S533.3,429.7,533.3,425.4"/>
	<polygon class="st20" points="541.1,435.6 551.7,453.9 530.6,453.9 	"/>
	<text transform="matrix(1 0 0 1 558.0253 429.0191)" class="st13 st8">Human</text>
	<text transform="matrix(1 0 0 1 558.0253 451.3715)"><tspan x="0" y="0" class="st13 st8">Mouse Le</tspan><tspan x="52.7" y="0" class="st13 st8">m</tspan><tspan x="62.6" y="0" class="st13 st8">ur</tspan></text>
	<text transform="matrix(1 0 0 1 558.0256 368.2022)" class="st13 st8">(6-4)PP</text>
</g>
</svg>
