<?xml version="1.0" encoding="utf-8"?>
<!-- Generator: Adobe Illustrator 24.0.1, SVG Export Plug-In . SVG Version: 6.00 Build 0)  -->
<svg version="1.1" id="Layer_1" xmlns="http://www.w3.org/2000/svg" xmlns:xlink="http://www.w3.org/1999/xlink" x="0px" y="0px"
	 viewBox="0 0 1691 774.3" style="enable-background:new 0 0 1691 774.3;" xml:space="preserve">
<style type="text/css">
	.st0{fill:#FFFFFF;}
	.st1{fill:none;stroke:#EBF0F8;stroke-width:0.7502;}
	.st2{fill:none;stroke:#EBF0F8;stroke-width:1.5004;}
	.st3{clip-path:url(#SVGID_2_);fill:none;stroke:#D62728;stroke-width:1.5004;stroke-miterlimit:2;}
	.st4{clip-path:url(#SVGID_2_);fill:none;stroke:#1F76B4;stroke-width:1.5004;stroke-miterlimit:2;}
	.st5{fill:#2A3F5F;}
	.st6{font-family:'ArialMT';}
	.st7{font-size:15.0044px;}
	.st8{clip-path:url(#SVGID_4_);fill:none;stroke:#D62728;stroke-width:1.5004;stroke-miterlimit:2;}
	.st9{clip-path:url(#SVGID_4_);fill:none;stroke:#1F76B4;stroke-width:1.5004;stroke-miterlimit:2;}
	.st10{clip-path:url(#SVGID_6_);fill:none;stroke:#D62728;stroke-width:1.5004;stroke-miterlimit:2;}
	.st11{clip-path:url(#SVGID_6_);fill:none;stroke:#1F76B4;stroke-width:1.5004;stroke-miterlimit:2;}
	.st12{clip-path:url(#SVGID_8_);fill:none;stroke:#D62728;stroke-width:1.5004;stroke-miterlimit:2;}
	.st13{clip-path:url(#SVGID_8_);fill:none;stroke:#1F76B4;stroke-width:1.5004;stroke-miterlimit:2;}
	.st14{clip-path:url(#SVGID_10_);fill:none;stroke:#D62728;stroke-width:1.5004;stroke-miterlimit:2;}
	.st15{clip-path:url(#SVGID_10_);fill:none;stroke:#1F76B4;stroke-width:1.5004;stroke-miterlimit:2;}
	.st16{clip-path:url(#SVGID_12_);fill:none;stroke:#D62728;stroke-width:1.5004;stroke-miterlimit:2;}
	.st17{clip-path:url(#SVGID_12_);fill:none;stroke:#1F76B4;stroke-width:1.5004;stroke-miterlimit:2;}
	.st18{clip-path:url(#SVGID_14_);fill:none;stroke:#D62728;stroke-width:1.5004;stroke-miterlimit:2;}
	.st19{clip-path:url(#SVGID_14_);fill:none;stroke:#1F76B4;stroke-width:1.5004;stroke-miterlimit:2;}
	.st20{clip-path:url(#SVGID_16_);fill:none;stroke:#D62728;stroke-width:1.5004;stroke-miterlimit:2;}
	.st21{clip-path:url(#SVGID_16_);fill:none;stroke:#1F76B4;stroke-width:1.5004;stroke-miterlimit:2;}
	.st22{font-size:18.0053px;}
	.st23{font-size:19.3083px;}
	.st24{fill:none;stroke:#D62728;stroke-width:1.9308;}
	.st25{opacity:0;}
	.st26{fill:none;stroke:#1F76B4;stroke-width:1.9308;}
	.st27{fill-rule:evenodd;clip-rule:evenodd;fill:none;}
	.st28{fill:none;stroke:#8E8E8E;stroke-width:4;stroke-miterlimit:10;}
	.st29{fill:#FFFFFF;stroke:#FFFFFF;stroke-width:3.9472;stroke-miterlimit:10;}
	.st30{font-size:24px;}
</style>
<rect x="67.5" y="67.1" class="st0" width="347.2" height="276.1"/>
<rect x="460.5" y="67.1" class="st0" width="347.2" height="276.1"/>
<rect x="853.4" y="67.1" class="st0" width="347.2" height="276.1"/>
<rect x="1246.3" y="67.1" class="st0" width="347.2" height="276.1"/>
<rect x="67.5" y="433.4" class="st0" width="347.2" height="276.1"/>
<rect x="460.5" y="433.4" class="st0" width="347.2" height="276.1"/>
<rect x="853.4" y="433.4" class="st0" width="347.2" height="276.1"/>
<rect x="1246.3" y="433.4" class="st0" width="347.2" height="276.1"/>
<line x1="154.3" y1="67.1" x2="154.3" y2="343.2"/>
<line class="st1" x1="154.3" y1="67.1" x2="154.3" y2="343.2"/>
<line x1="327.9" y1="67.1" x2="327.9" y2="343.2"/>
<line class="st1" x1="327.9" y1="67.1" x2="327.9" y2="343.2"/>
<line x1="67.5" y1="327.2" x2="414.7" y2="327.2"/>
<line class="st1" x1="67.5" y1="327.2" x2="414.7" y2="327.2"/>
<line x1="67.5" y1="289.4" x2="414.7" y2="289.4"/>
<line class="st1" x1="67.5" y1="289.4" x2="414.7" y2="289.4"/>
<line x1="67.5" y1="251.6" x2="414.7" y2="251.6"/>
<line class="st1" x1="67.5" y1="251.6" x2="414.7" y2="251.6"/>
<line x1="67.5" y1="213.8" x2="414.7" y2="213.8"/>
<line class="st1" x1="67.5" y1="213.8" x2="414.7" y2="213.8"/>
<line x1="67.5" y1="176" x2="414.7" y2="176"/>
<line class="st1" x1="67.5" y1="176" x2="414.7" y2="176"/>
<line x1="67.5" y1="138.1" x2="414.7" y2="138.1"/>
<line class="st1" x1="67.5" y1="138.1" x2="414.7" y2="138.1"/>
<line x1="67.5" y1="100.3" x2="414.7" y2="100.3"/>
<line class="st1" x1="67.5" y1="100.3" x2="414.7" y2="100.3"/>
<line x1="241.1" y1="67.1" x2="241.1" y2="343.2"/>
<line class="st2" x1="241.1" y1="67.1" x2="241.1" y2="343.2"/>
<g>
	<defs>
		<rect id="SVGID_1_" x="67.5" y="67.1" width="347.2" height="276.1"/>
	</defs>
	<clipPath id="SVGID_2_">
		<use xlink:href="#SVGID_1_"  style="overflow:visible;"/>
	</clipPath>
	<polyline class="st3" points="67.5,285.3 69.3,277.6 71,263.4 72.7,263.2 74.5,273.8 76.2,271.1 77.9,273 79.7,279.1 81.4,254 
		83.1,242.9 84.9,277.4 88.3,278.5 90.1,277.1 91.8,279.3 93.6,266.3 95.3,281.1 97,282 98.8,278.5 100.5,271.2 102.2,274.2 
		104,288.4 105.7,273.6 107.4,286.7 109.2,299 110.9,281.1 112.7,284.9 114.4,258.8 117.9,282.7 119.6,272.4 121.3,270.6 
		123.1,279.7 124.8,265.6 126.5,266.2 128.3,278.1 130,272.4 131.7,270.2 133.5,286.8 135.2,293.7 137,286.8 138.7,276.5 140.4,283 
		142.2,266 143.9,281.4 145.6,280 147.4,283.3 149.1,293.6 150.8,282.7 152.6,266.2 154.3,274.1 156,281.3 157.8,280.5 161.3,272.8 
		163,273.9 164.7,268.5 166.5,288.5 168.2,266.8 169.9,276.1 171.7,282.6 173.4,272 175.1,273.8 176.9,274 178.6,260.7 180.3,268.6 
		182.1,272 183.8,253.3 185.6,255.7 187.3,254.6 189,263.6 190.8,261.9 192.5,265 194.2,258.7 196,241.3 197.7,269.2 199.4,264.5 
		201.2,263.8 202.9,249.8 204.6,257.9 206.4,254.2 208.1,256.1 209.9,244.5 211.6,246.8 213.3,230.9 215.1,227.2 216.8,216.4 
		218.5,224.2 220.3,225 222,218.6 223.7,206.3 225.5,225.1 227.2,181.5 228.9,194 230.7,192.9 232.4,168.1 234.2,174.7 235.9,166.9 
		237.6,171.3 239.4,111 241.1,127.1 242.8,120.5 244.6,102.8 246.3,94.3 248,130.1 249.8,137.7 251.5,161.1 253.2,169.6 255,198.5 
		256.7,192.6 258.5,207.3 260.2,201.9 261.9,212.1 263.7,213.2 265.4,187 267.1,220.1 268.9,237.4 270.6,235.8 272.3,244.6 
		274.1,240.2 275.8,234.3 277.5,233 279.3,238.6 281,250.7 284.5,243.3 286.2,254.8 288,254.9 289.7,252 291.4,256.3 293.2,247.9 
		294.9,242.5 296.6,229.8 298.4,248.9 300.1,256 301.9,240.4 303.6,251.3 305.3,271 307.1,240.6 308.8,248.9 310.5,244.2 
		312.3,257.8 314,264.2 315.7,266.6 317.5,241.8 319.2,250.9 320.9,249.3 322.7,250.3 324.4,254.2 327.9,274.1 329.6,262.5 
		331.4,248.8 333.1,250.2 334.8,273.7 336.6,261 338.3,280.3 340,276.6 341.8,257.5 343.5,271.1 345.2,260.1 347,256.8 348.7,259.7 
		350.5,266 352.2,265.6 353.9,269.4 355.7,271.4 357.4,270.5 359.1,265.7 360.9,266.9 366.1,274.6 367.8,247.2 369.5,249.4 
		371.3,245.7 374.8,245.4 376.5,259.7 378.2,243.5 380,260 381.7,266.8 383.4,259.1 385.2,265 386.9,265.5 390.4,292.1 392.1,256.5 
		395.6,269 397.3,269.3 399.1,249.8 400.8,263.2 404.3,274.5 406,267.8 407.7,263.8 409.5,267 411.2,269.2 412.9,266.2 414.7,266.2 
			"/>
	<polyline class="st4" points="67.5,274.2 69.3,270.2 71,256.7 72.7,270.2 74.5,263.7 76.2,258.9 77.9,265.3 79.7,279.3 81.4,269.9 
		83.1,272.4 84.9,275.9 86.6,243.2 88.3,264.3 90.1,266.6 91.8,273.9 93.6,260.5 95.3,266.7 98.8,276.7 100.5,252.3 102.2,265.6 
		104,258.7 107.4,279.9 109.2,266.3 110.9,254 112.7,276.6 114.4,258.5 116.1,273.5 117.9,248.6 119.6,252.5 121.3,255.1 
		123.1,243.8 124.8,265.5 126.5,252.2 130,260.9 131.7,252.3 133.5,260.8 135.2,254.7 137,253.7 138.7,248.5 142.2,258.1 
		143.9,258.3 145.6,250.5 147.4,246.4 149.1,257.1 150.8,250 152.6,261.1 154.3,262.8 156,250.8 157.8,253.2 159.5,253.3 
		161.3,254.8 163,245.5 164.7,247.8 166.5,215.1 168.2,253.6 169.9,244.4 171.7,243.5 173.4,248.1 175.1,256.8 176.9,249.7 
		178.6,229.3 180.3,211.1 182.1,242.5 183.8,233.5 185.6,245.7 187.3,229.9 189,197.1 192.5,228.6 194.2,239.4 196,217.7 
		197.7,220.1 199.4,220 201.2,220.5 202.9,224.4 204.6,199.5 206.4,180 208.1,205.7 209.9,209.8 211.6,197.8 215.1,183.7 
		216.8,191.8 218.5,177.7 220.3,199.4 222,169.9 223.7,169.4 225.5,153.7 227.2,157.4 228.9,139.3 230.7,143.7 232.4,179.4 
		234.2,128.2 235.9,134.7 237.6,146.1 239.4,79.6 241.1,143.1 242.8,157.6 244.6,193.8 246.3,193.9 248,190.6 249.8,192.6 
		251.5,217.8 253.2,224.1 255,232.8 258.5,240.5 260.2,238.8 261.9,257 263.7,239.8 265.4,250.1 267.1,252.9 268.9,242.8 
		270.6,266.6 272.3,266.9 274.1,276.3 275.8,265 277.5,265.1 279.3,257.2 281,266.1 284.5,276.2 286.2,278.4 288,267.9 289.7,271.1 
		291.4,270.1 293.2,261.6 294.9,272.5 296.6,272.6 298.4,273.7 300.1,281.3 301.9,270.5 303.6,267.5 305.3,274.8 307.1,278.4 
		308.8,290.5 310.5,270.6 312.3,262 314,281.6 315.7,270.4 317.5,264.1 319.2,272.8 320.9,284.6 322.7,263.7 324.4,275.5 
		326.2,264.6 327.9,275.1 329.6,279.7 331.4,264.5 333.1,272.1 334.8,275.3 336.6,276.3 338.3,281.9 340,291.9 341.8,291.9 
		343.5,278.1 345.2,296.4 347,271.3 348.7,289.6 352.2,285.9 353.9,303.4 357.4,279.3 359.1,279.9 360.9,285 362.6,284.2 
		364.3,272.2 366.1,294.4 367.8,267.5 369.5,280.5 371.3,277.1 373,283.6 374.8,276.1 376.5,287.7 378.2,279.7 380,287.9 
		381.7,281.8 383.4,278.1 385.2,277.3 386.9,291.5 390.4,277.5 392.1,291.6 393.8,298.3 395.6,275 397.3,269.4 399.1,269 
		400.8,266.5 402.5,288.5 404.3,283.5 406,274.6 407.7,288.7 409.5,290.3 411.2,297.4 412.9,283.8 414.7,283.8 	"/>
</g>
<text transform="matrix(1 0 0 1 54.7939 358.9623)" class="st5 st6 st7">−10</text>
<text transform="matrix(1 0 0 1 145.752 358.9623)" class="st5 st6 st7">−5</text>
<text transform="matrix(1 0 0 1 236.9263 358.9623)" class="st5 st6 st7">0</text>
<text transform="matrix(1 0 0 1 323.7119 358.9623)" class="st5 st6 st7">5</text>
<text transform="matrix(1 0 0 1 406.333 358.9623)" class="st5 st6 st7">10</text>
<text transform="matrix(1 0 0 1 45.9116 332.457)" class="st5 st6 st7">0.6</text>
<text transform="matrix(1 0 0 1 45.9116 294.6459)" class="st5 st6 st7">0.8</text>
<text transform="matrix(1 0 0 1 58.4248 256.8349)" class="st5 st6 st7">1</text>
<text transform="matrix(1 0 0 1 45.9116 219.0234)" class="st5 st6 st7">1.2</text>
<text transform="matrix(1 0 0 1 45.9116 181.2124)" class="st5 st6 st7">1.4</text>
<text transform="matrix(1 0 0 1 45.9116 143.4013)" class="st5 st6 st7">1.6</text>
<text transform="matrix(1 0 0 1 45.9116 105.5898)" class="st5 st6 st7">1.8</text>
<line x1="547.2" y1="67.1" x2="547.2" y2="343.2"/>
<line class="st1" x1="547.2" y1="67.1" x2="547.2" y2="343.2"/>
<line x1="720.8" y1="67.1" x2="720.8" y2="343.2"/>
<line class="st1" x1="720.8" y1="67.1" x2="720.8" y2="343.2"/>
<line x1="460.5" y1="327.2" x2="807.6" y2="327.2"/>
<line class="st1" x1="460.5" y1="327.2" x2="807.6" y2="327.2"/>
<line x1="460.5" y1="289.4" x2="807.6" y2="289.4"/>
<line class="st1" x1="460.5" y1="289.4" x2="807.6" y2="289.4"/>
<line x1="460.5" y1="251.6" x2="807.6" y2="251.6"/>
<line class="st1" x1="460.5" y1="251.6" x2="807.6" y2="251.6"/>
<line x1="460.5" y1="213.8" x2="807.6" y2="213.8"/>
<line class="st1" x1="460.5" y1="213.8" x2="807.6" y2="213.8"/>
<line x1="460.5" y1="176" x2="807.6" y2="176"/>
<line class="st1" x1="460.5" y1="176" x2="807.6" y2="176"/>
<line x1="460.5" y1="138.1" x2="807.6" y2="138.1"/>
<line class="st1" x1="460.5" y1="138.1" x2="807.6" y2="138.1"/>
<line x1="460.5" y1="100.3" x2="807.6" y2="100.3"/>
<line class="st1" x1="460.5" y1="100.3" x2="807.6" y2="100.3"/>
<line x1="634" y1="67.1" x2="634" y2="343.2"/>
<line class="st2" x1="634" y1="67.1" x2="634" y2="343.2"/>
<g>
	<defs>
		<rect id="SVGID_3_" x="460.5" y="67.1" width="347.2" height="276.1"/>
	</defs>
	<clipPath id="SVGID_4_">
		<use xlink:href="#SVGID_3_"  style="overflow:visible;"/>
	</clipPath>
	<polyline class="st8" points="460.5,256.2 462.2,277.2 463.9,269.4 465.7,262.1 467.4,266.4 469.1,252.7 470.9,254.3 472.6,252 
		474.3,258 477.8,269.4 479.5,284.5 481.3,268.1 483,284 484.8,285.9 486.5,267.2 488.2,285.4 490,264.4 491.7,258.3 493.4,266.8 
		495.2,280 496.9,262.9 498.6,267.1 500.4,275.2 502.1,274.7 503.8,286 505.6,279.1 507.3,253 509.1,247.3 510.8,253.9 512.5,261.7 
		514.3,256.8 517.7,263.2 519.5,269.4 521.2,242.1 522.9,268.5 524.7,274 526.4,261.9 528.1,262.2 529.9,288.2 531.6,246.3 
		533.4,265.6 535.1,251.3 536.8,274.5 538.6,275.1 540.3,270.4 542,271.6 543.8,267.7 545.5,269.2 547.2,280.4 549,277.2 
		550.7,270.1 552.4,243.2 554.2,272.9 555.9,243.5 557.7,271.7 559.4,262.7 561.1,260.8 562.9,262.5 564.6,277.2 566.3,256.8 
		568.1,259.1 569.8,259.6 571.5,255.3 573.3,264.2 575,245.6 576.8,252.9 578.5,268.8 580.2,254.9 582,248.6 583.7,249.8 
		585.4,263.5 587.2,246.1 588.9,239.3 590.6,271.7 592.4,251.6 594.1,276.7 595.8,228.9 597.6,262.2 599.3,258.5 601.1,254.7 
		602.8,252.8 604.5,234.6 606.3,209.1 608,238.4 609.7,207.7 611.5,225.8 613.2,204.9 614.9,216.5 616.7,194.7 618.4,223.6 
		620.1,198.1 621.9,177.1 623.6,182.4 628.8,91.5 630.6,100.7 632.3,134.6 634,122.2 635.8,166.3 637.5,168.8 639.2,155.5 
		641,170.4 642.7,157.6 644.4,165.7 646.2,195.9 647.9,198.7 649.7,197.5 651.4,198.1 654.9,229.3 656.6,227.1 658.3,222.9 
		660.1,237.3 661.8,231 663.5,232.3 665.3,238.6 667,253.4 668.7,255.2 670.5,246.9 672.2,232.8 674,240.6 675.7,251.7 677.4,257.8 
		679.2,256.9 680.9,253.9 682.6,263.8 684.4,257.4 686.1,238.2 687.8,256.6 689.6,242.7 691.3,245.3 693,257 694.8,256.7 
		696.5,262.9 698.3,278.7 700,269.2 701.7,254.5 703.5,274.3 705.2,276.8 706.9,284 708.7,258.9 712.1,280.8 713.9,243.6 
		715.6,282.9 717.3,269.2 719.1,271.9 720.8,263.4 722.5,294 724.3,289.9 726,279.3 727.8,263.2 729.5,258.6 731.2,269 733,277.3 
		734.7,272.1 736.4,268.2 738.2,255.3 739.9,245.6 741.7,271.6 743.4,272.4 745.1,266 746.9,271.7 748.6,257.4 750.3,272.3 
		752.1,272 753.8,265.1 755.5,262.2 757.3,272.9 759,271.8 760.7,263 762.5,277.5 764.2,270.5 766,278.5 767.7,265.8 769.4,260.7 
		772.9,272.1 774.6,259 776.4,253.4 778.1,274.6 779.8,270.5 781.6,269.7 783.3,272.1 785,277.1 786.8,280.6 788.5,287.5 
		790.2,274.8 792,272 793.7,269.1 795.5,283.1 797.2,253.1 798.9,252.8 800.7,286.3 802.4,280.5 804.1,265.9 805.9,268.3 
		807.6,268.3 	"/>
	<polyline class="st9" points="460.5,288.7 462.2,275.3 463.9,282.6 465.7,278.9 467.4,288.5 470.9,263.8 472.6,277.6 474.3,289.5 
		476.1,272.6 477.8,283 479.5,275.3 481.3,267.3 483,285.9 484.8,292.7 486.5,273.2 488.2,276.5 490,285.9 491.7,265.9 493.4,282.3 
		495.2,285.1 496.9,276.2 498.6,269.9 500.4,290.5 502.1,284.7 503.8,267.7 505.6,271.3 507.3,266.4 509.1,281.7 510.8,268.1 
		512.5,277.8 514.3,281.5 516,275 517.7,258.6 519.5,281.9 521.2,287.8 522.9,281.4 524.7,259.5 526.4,269.9 528.1,271.8 529.9,271 
		531.6,280.4 533.4,263.3 535.1,284.6 536.8,288.5 538.6,279.7 540.3,271 542,278.2 543.8,271.8 545.5,284.2 547.2,284.1 549,279.1 
		550.7,294.8 552.4,284 554.2,269.4 555.9,272.1 557.7,279.4 559.4,278.1 561.1,274.9 562.9,283.2 564.6,292.8 566.3,274.1 
		568.1,275.4 569.8,288.8 571.5,285.8 573.3,272.2 575,284.4 576.8,279.4 578.5,271.8 580.2,283.4 583.7,273.2 585.4,269.5 
		587.2,274.7 588.9,289.8 590.6,279.3 592.4,274.9 594.1,285.8 595.8,282.4 597.6,283.8 599.3,264.6 601.1,277.1 602.8,269.5 
		606.3,259.6 608,266.2 609.7,260.2 611.5,265.1 613.2,249.2 614.9,248 616.7,249.5 618.4,257.4 620.1,244.5 621.9,223.4 
		623.6,227.7 625.4,209.9 627.1,199.5 628.8,158.4 632.3,185.9 634,122.2 635.8,135.5 637.5,136.3 639.2,159.4 641,158.1 
		642.7,154.9 644.4,136.6 646.2,124.3 647.9,153.1 649.7,171.3 651.4,169.2 653.1,163.8 654.9,174.7 656.6,207.5 658.3,199.9 
		660.1,194.9 661.8,200.6 663.5,194.7 665.3,202.6 667,183.1 668.7,206.1 670.5,210.2 672.2,222.9 674,191.8 675.7,209.9 677.4,209 
		679.2,241.2 682.6,198.5 684.4,221.2 686.1,229.1 687.8,224.5 689.6,220.6 691.3,222 693,241.4 694.8,250.6 696.5,231.4 
		698.3,243.6 700,248.9 701.7,223.7 703.5,248.5 705.2,243 706.9,256.9 708.7,243 712.1,258.4 713.9,263.8 715.6,244.3 717.3,249.7 
		719.1,235.1 720.8,241 724.3,252.5 726,241.4 727.8,246.5 729.5,241.8 731.2,257.4 733,253.2 734.7,243 736.4,242.9 738.2,264.5 
		739.9,239.2 741.7,249.1 743.4,255.6 746.9,266.9 748.6,260.5 750.3,247.7 752.1,255.9 753.8,262.2 755.5,263.6 757.3,252.9 
		759,248.2 760.7,254.8 762.5,254.7 764.2,263 766,261.7 767.7,263.5 769.4,267.7 771.2,267.3 772.9,265.3 774.6,277.4 776.4,257.8 
		778.1,271.3 779.8,266.6 781.6,260.9 783.3,264.6 785,259.6 786.8,269.3 788.5,251.4 790.2,267.9 792,277.3 793.7,283.2 
		797.2,265.1 798.9,283.3 802.4,258.9 804.1,260.6 805.9,250.9 807.6,250.9 	"/>
</g>
<text transform="matrix(1 0 0 1 447.7266 358.9623)" class="st5 st6 st7">−10</text>
<text transform="matrix(1 0 0 1 538.6846 358.9623)" class="st5 st6 st7">−5</text>
<text transform="matrix(1 0 0 1 629.8589 358.9623)" class="st5 st6 st7">0</text>
<text transform="matrix(1 0 0 1 716.6445 358.9623)" class="st5 st6 st7">5</text>
<text transform="matrix(1 0 0 1 799.2656 358.9623)" class="st5 st6 st7">10</text>
<line x1="940.2" y1="67.1" x2="940.2" y2="343.2"/>
<line class="st1" x1="940.2" y1="67.1" x2="940.2" y2="343.2"/>
<line x1="1113.7" y1="67.1" x2="1113.7" y2="343.2"/>
<line class="st1" x1="1113.7" y1="67.1" x2="1113.7" y2="343.2"/>
<line x1="853.4" y1="327.2" x2="1200.5" y2="327.2"/>
<line class="st1" x1="853.4" y1="327.2" x2="1200.5" y2="327.2"/>
<line x1="853.4" y1="289.4" x2="1200.5" y2="289.4"/>
<line class="st1" x1="853.4" y1="289.4" x2="1200.5" y2="289.4"/>
<line x1="853.4" y1="251.6" x2="1200.5" y2="251.6"/>
<line class="st1" x1="853.4" y1="251.6" x2="1200.5" y2="251.6"/>
<line x1="853.4" y1="213.8" x2="1200.5" y2="213.8"/>
<line class="st1" x1="853.4" y1="213.8" x2="1200.5" y2="213.8"/>
<line x1="853.4" y1="176" x2="1200.5" y2="176"/>
<line class="st1" x1="853.4" y1="176" x2="1200.5" y2="176"/>
<line x1="853.4" y1="138.1" x2="1200.5" y2="138.1"/>
<line class="st1" x1="853.4" y1="138.1" x2="1200.5" y2="138.1"/>
<line x1="853.4" y1="100.3" x2="1200.5" y2="100.3"/>
<line class="st1" x1="853.4" y1="100.3" x2="1200.5" y2="100.3"/>
<line x1="1027" y1="67.1" x2="1027" y2="343.2"/>
<line class="st2" x1="1027" y1="67.1" x2="1027" y2="343.2"/>
<g>
	<defs>
		<rect id="SVGID_5_" x="853.4" y="67.1" width="347.2" height="276.1"/>
	</defs>
	<clipPath id="SVGID_6_">
		<use xlink:href="#SVGID_5_"  style="overflow:visible;"/>
	</clipPath>
	<polyline class="st10" points="853.4,297.4 855.1,305.1 856.9,299.3 858.6,303.3 860.3,305.4 862.1,300.7 863.8,301.4 865.5,302.3 
		867.3,314.2 869,299 870.7,300.2 872.5,303.3 874.2,296.1 879.4,292.5 881.2,300.7 882.9,304.5 884.6,286.4 886.4,306.6 
		888.1,289.4 889.8,305.5 891.6,294.8 893.3,290.8 895,290.4 896.8,300 898.5,290.8 900.3,297.5 902,296.3 903.7,291.7 905.5,291.9 
		907.2,296 908.9,293.8 910.7,298.5 912.4,293.3 914.1,297.9 915.9,307.4 917.6,287.2 919.3,290.4 921.1,302.6 922.8,301.4 
		924.6,305.6 926.3,303.4 928,283.4 929.8,302.7 931.5,298.7 933.2,298.7 935,309.9 936.7,289.9 938.4,284.2 940.2,298.7 941.9,298 
		943.6,295.4 945.4,291.9 947.1,296.7 948.9,308.7 950.6,298.8 952.3,301.4 954.1,294.5 955.8,295.4 957.5,299.9 959.3,293.9 
		961,300 962.7,291.7 964.5,299.4 966.2,300.4 967.9,294.1 969.7,297.7 971.4,293.2 973.2,284.4 974.9,296.7 976.6,304.6 
		978.4,297.9 980.1,292.5 981.8,295.5 983.6,286.7 985.3,287 987,289 988.8,283.7 990.5,288.4 992.2,278.1 994,279.9 995.7,279 
		997.5,279.8 999.2,287.4 1000.9,283.4 1002.7,269.3 1004.4,269.9 1006.1,259.9 1007.9,258.9 1009.6,256.1 1011.3,250.7 
		1013.1,255.8 1014.8,242.5 1016.6,242.5 1018.3,245 1020,238.3 1021.8,246.6 1023.5,238.8 1025.2,236.5 1027,235.6 1030.4,131.2 
		1032.2,139.7 1033.9,110 1035.6,139.5 1037.4,148.7 1039.1,150.8 1040.9,154.2 1042.6,155.4 1044.3,139.4 1046.1,161.4 
		1047.8,170.8 1049.5,170.5 1051.3,181.7 1053,204.6 1054.7,181.7 1056.5,193.4 1058.2,203.6 1059.9,222.9 1061.7,207.4 
		1063.4,213.7 1065.1,203.6 1066.9,204.6 1068.6,193.4 1070.4,206.6 1072.1,208 1073.8,216.1 1075.6,212.7 1077.3,232.4 1079,210.7 
		1080.8,211.6 1082.5,209.8 1084.2,199.5 1086,212.2 1087.7,215.8 1089.4,214.5 1091.2,212.5 1092.9,196.8 1094.7,206.9 
		1096.4,213.3 1098.1,213.6 1099.9,231.5 1101.6,215.4 1103.3,213.9 1105.1,236.9 1106.8,217 1108.5,225.5 1110.3,213.5 1112,220.3 
		1113.7,219.6 1115.5,227.4 1117.2,231.1 1119,226 1120.7,237.5 1122.4,221.5 1124.2,228.6 1125.9,223.5 1127.6,235.9 1129.4,226.9 
		1131.1,221.7 1132.8,232.6 1134.6,231.5 1136.3,215.2 1138,239.2 1139.8,216.5 1141.5,225.4 1143.3,228.4 1145,225.5 1146.7,232.9 
		1148.5,236.3 1150.2,232 1153.7,232.2 1155.4,223.9 1157.1,231.6 1158.9,229.8 1160.6,230.9 1162.3,223.6 1164.1,233.1 
		1165.8,224.7 1167.6,232.6 1169.3,230.7 1171,232.8 1172.8,236.2 1174.5,232.9 1176.2,224.8 1178,227 1179.7,239.8 1181.4,225.6 
		1183.2,236.3 1184.9,247.1 1186.7,238.9 1188.4,228.5 1190.1,230.6 1191.9,232.9 1193.6,239.1 1195.3,247.2 1197.1,228 
		1198.8,248.1 1200.5,248.1 	"/>
	<polyline class="st11" points="853.4,250.2 855.1,251.2 856.9,248.2 858.6,252 860.3,253.9 862.1,253.4 863.8,248.7 865.5,244.1 
		867.3,244.8 869,252.9 870.7,231.6 872.5,240.9 874.2,240.4 876,247.5 877.7,243.1 879.4,242.3 881.2,236 882.9,232.6 884.6,250.2 
		886.4,242.7 888.1,247.4 889.8,240.1 891.6,242.5 893.3,246.3 895,239.2 896.8,234.4 898.5,222.3 900.3,214.8 902,223 903.7,232.1 
		905.5,216.7 907.2,227.7 908.9,232.9 910.7,236.4 912.4,237.2 914.1,219.9 915.9,214 917.6,214.2 919.3,220.7 921.1,224.2 
		922.8,221.5 924.6,208.6 926.3,213.2 928,213.9 929.8,218.3 931.5,210.2 933.2,196.9 936.7,207.4 938.4,199.7 940.2,195.1 
		941.9,207.1 943.6,203.8 945.4,213.4 947.1,188.4 948.9,201.2 950.6,209.2 952.3,194.1 954.1,192.6 955.8,189.1 957.5,192.8 
		959.3,184.6 961,185.3 962.7,195.5 964.5,177.2 966.2,188.1 967.9,176.1 969.7,155.4 971.4,164.9 973.2,154.2 974.9,172.4 
		976.6,150.2 978.4,159.4 980.1,159.3 981.8,148.5 983.6,147.2 985.3,142 987,150.9 988.8,137.5 990.5,134.1 992.2,146.6 994,152 
		995.7,132.2 997.5,125.1 999.2,114.5 1000.9,128.7 1002.7,127.4 1004.4,114.9 1006.1,120.3 1007.9,108 1009.6,119.3 1011.3,88.9 
		1014.8,103.5 1016.6,137.7 1018.3,119.9 1020,141.8 1021.8,142.5 1023.5,163.7 1025.2,171.6 1027,243.5 1028.7,242.1 1030.4,239.9 
		1032.2,254.5 1033.9,250.9 1035.6,253.1 1037.4,266.2 1039.1,258.5 1040.9,257.1 1044.3,285.3 1046.1,278.6 1047.8,285.2 
		1049.5,280.1 1051.3,283.9 1053,285.2 1054.7,291.2 1056.5,293.5 1058.2,285 1059.9,290.2 1061.7,294.9 1063.4,292 1065.1,304 
		1066.9,295.2 1068.6,296.7 1070.4,304.5 1072.1,308.9 1073.8,300.1 1075.6,293.1 1077.3,300.4 1079,307.3 1080.8,303.6 
		1082.5,302.1 1084.2,313.6 1086,307.1 1087.7,310.1 1089.4,301.6 1091.2,301.3 1092.9,305.4 1094.7,318.4 1096.4,303.3 1098.1,315 
		1099.9,313.4 1101.6,313.8 1103.3,315.7 1105.1,314.1 1106.8,317.3 1108.5,310.1 1110.3,315.2 1112,311.8 1113.7,312.9 
		1115.5,326.4 1117.2,313 1119,318.8 1120.7,328.2 1122.4,317.7 1124.2,317.6 1125.9,315.7 1127.6,314 1129.4,314.9 1131.1,314.8 
		1132.8,313.1 1134.6,319.5 1136.3,315.2 1138,323.6 1139.8,314.4 1143.3,325 1145,320.4 1146.7,317.2 1148.5,317 1150.2,319.9 
		1151.9,318.4 1153.7,320.5 1155.4,325.2 1157.1,324.4 1158.9,321 1162.3,324.4 1164.1,322.5 1165.8,325.8 1167.6,324.2 
		1169.3,328.3 1171,324.6 1172.8,321.8 1174.5,329.8 1176.2,323.5 1178,323.4 1179.7,323.6 1181.4,327.4 1184.9,320.6 1186.7,321.7 
		1188.4,318.8 1190.1,321.4 1191.9,324.3 1193.6,318.2 1197.1,321.4 1198.8,329.6 1200.5,329.6 	"/>
</g>
<text transform="matrix(1 0 0 1 840.6587 358.9623)" class="st5 st6 st7">−10</text>
<text transform="matrix(1 0 0 1 931.6172 358.9623)" class="st5 st6 st7">−5</text>
<text transform="matrix(1 0 0 1 1022.791 358.9623)" class="st5 st6 st7">0</text>
<text transform="matrix(1 0 0 1 1109.5771 358.9623)" class="st5 st6 st7">5</text>
<text transform="matrix(1 0 0 1 1192.1973 358.9623)" class="st5 st6 st7">10</text>
<line x1="1333.1" y1="67.1" x2="1333.1" y2="343.2"/>
<line class="st1" x1="1333.1" y1="67.1" x2="1333.1" y2="343.2"/>
<line x1="1506.7" y1="67.1" x2="1506.7" y2="343.2"/>
<line class="st1" x1="1506.7" y1="67.1" x2="1506.7" y2="343.2"/>
<line x1="1246.3" y1="327.2" x2="1593.5" y2="327.2"/>
<line class="st1" x1="1246.3" y1="327.2" x2="1593.5" y2="327.2"/>
<line x1="1246.3" y1="289.4" x2="1593.5" y2="289.4"/>
<line class="st1" x1="1246.3" y1="289.4" x2="1593.5" y2="289.4"/>
<line x1="1246.3" y1="251.6" x2="1593.5" y2="251.6"/>
<line class="st1" x1="1246.3" y1="251.6" x2="1593.5" y2="251.6"/>
<line x1="1246.3" y1="213.8" x2="1593.5" y2="213.8"/>
<line class="st1" x1="1246.3" y1="213.8" x2="1593.5" y2="213.8"/>
<line x1="1246.3" y1="176" x2="1593.5" y2="176"/>
<line class="st1" x1="1246.3" y1="176" x2="1593.5" y2="176"/>
<line x1="1246.3" y1="138.1" x2="1593.5" y2="138.1"/>
<line class="st1" x1="1246.3" y1="138.1" x2="1593.5" y2="138.1"/>
<line x1="1246.3" y1="100.3" x2="1593.5" y2="100.3"/>
<line class="st1" x1="1246.3" y1="100.3" x2="1593.5" y2="100.3"/>
<line x1="1419.9" y1="67.1" x2="1419.9" y2="343.2"/>
<line class="st2" x1="1419.9" y1="67.1" x2="1419.9" y2="343.2"/>
<g>
	<defs>
		<rect id="SVGID_7_" x="1246.3" y="67.1" width="347.2" height="276.1"/>
	</defs>
	<clipPath id="SVGID_8_">
		<use xlink:href="#SVGID_7_"  style="overflow:visible;"/>
	</clipPath>
	<polyline class="st12" points="1246.3,228.1 1248.1,211.7 1249.8,227.1 1251.5,239.6 1253.3,230 1255,246.1 1256.7,236.3 
		1258.5,242.7 1260.2,218.9 1261.9,234.2 1263.7,232.1 1265.4,228 1267.1,228.9 1268.9,235.2 1270.6,222.7 1272.4,233.6 
		1274.1,227.7 1275.8,213.5 1277.6,221.7 1279.3,210.1 1281,225.7 1282.8,241.3 1284.5,217.3 1286.2,235.5 1288,228.4 1289.7,212.9 
		1291.5,229.9 1293.2,212 1294.9,223.4 1296.7,209.9 1298.4,211.7 1300.1,209.8 1301.9,232.5 1303.6,220.3 1305.3,221.4 
		1307.1,212.8 1308.8,212.3 1310.5,226.2 1312.3,215.7 1314,243.6 1315.8,226.6 1317.5,211 1319.2,223.8 1321,229.5 1322.7,215 
		1324.4,211.9 1326.2,225.3 1327.9,224.1 1329.6,232.2 1331.4,218 1333.1,215 1334.8,233.3 1336.6,215.1 1338.3,209.7 1340,229.9 
		1341.8,214.6 1343.5,210.8 1345.3,217.6 1347,212.3 1348.7,218 1350.5,215.2 1352.2,223.7 1353.9,217.8 1359.1,201 1360.9,214.7 
		1362.6,213.6 1364.3,208.7 1366.1,223.8 1367.8,219.5 1371.3,223.1 1373,210.7 1374.8,205.3 1376.5,221.7 1378.2,220 1380,200.5 
		1381.7,204.8 1383.4,203.2 1385.2,209.5 1386.9,196.9 1388.6,182.6 1390.4,193.6 1392.1,194.1 1393.9,207.5 1395.6,199.3 
		1397.3,186.9 1399.1,194.9 1400.8,190 1402.5,176.2 1404.3,175.9 1406,146.5 1407.7,151.7 1409.5,137.4 1411.2,129.7 1412.9,109.1 
		1414.7,141.6 1418.2,250.8 1419.9,236.6 1421.6,228.5 1423.4,251.6 1425.1,253.6 1426.8,247.9 1428.6,246.6 1430.3,249.3 
		1432,252.5 1433.8,262.4 1435.5,269 1437.2,291.1 1440.7,273.3 1442.5,281.6 1444.2,277.7 1445.9,279.6 1447.7,291.7 1449.4,287.7 
		1451.1,290.1 1452.9,296.3 1454.6,290.1 1456.3,290.3 1458.1,298.7 1459.8,288.2 1461.6,281.5 1463.3,292.3 1465,298.8 
		1466.8,285.1 1470.2,292 1472,299.6 1473.7,305.6 1475.4,297.1 1477.2,299.7 1478.9,308.3 1480.6,309.8 1482.4,293.3 1484.1,296.5 
		1485.9,293.7 1487.6,304.6 1489.3,306.2 1491.1,301.9 1492.8,302.9 1494.5,299.5 1496.3,298.9 1498,299.6 1499.7,277.2 
		1501.5,298.1 1503.2,303.9 1504.9,297.4 1506.7,296.1 1508.4,311.5 1510.2,299.5 1511.9,303.2 1513.6,296.6 1515.4,285.6 
		1517.1,303.2 1518.8,294.5 1520.6,297 1522.3,296.8 1524,302.3 1525.8,294.7 1527.5,305.3 1529.2,299.4 1531,296.3 1532.7,302.7 
		1534.5,300.9 1536.2,299.1 1537.9,298.7 1539.7,287.7 1541.4,301.6 1543.1,300.8 1544.9,298.1 1546.6,302.2 1548.3,297.1 
		1550.1,290.5 1551.8,297.7 1555.3,291.5 1557,301.7 1558.8,284.9 1560.5,295.6 1562.2,287.2 1564,289.1 1565.7,291.2 1567.4,281.9 
		1569.2,290.6 1570.9,286.6 1572.6,286.6 1574.4,283.2 1576.1,299.3 1577.8,293.3 1579.6,295.5 1581.3,290.6 1583.1,286.5 
		1584.8,292.3 1586.5,273.3 1588.3,290.2 1590,287.7 1591.7,295.2 1593.5,295.2 	"/>
	<polyline class="st13" points="1246.3,315.7 1248.1,319.4 1249.8,314 1251.5,326.6 1253.3,318.4 1255,320.9 1256.7,319.1 
		1258.5,319.6 1260.2,325.3 1263.7,318.3 1265.4,325.5 1267.1,321.4 1268.9,325.3 1270.6,316.9 1272.4,322.3 1274.1,317.1 
		1275.8,307.8 1277.6,318.9 1279.3,308.9 1281,309.1 1282.8,321.5 1284.5,314.9 1286.2,316 1288,327.4 1289.7,324.5 1291.5,324.4 
		1293.2,322 1294.9,323.8 1296.7,316.9 1298.4,312.3 1300.1,310.9 1301.9,327.5 1303.6,323.7 1305.3,326.5 1307.1,317.7 1308.8,325 
		1310.5,326.6 1312.3,313.4 1314,314 1315.8,319 1317.5,314.1 1319.2,330.4 1321,321.6 1322.7,324.7 1324.4,321.8 1326.2,317.8 
		1327.9,325.8 1329.6,327.2 1331.4,318.8 1333.1,319.6 1334.8,322.3 1336.6,319.7 1338.3,322.4 1340,318.4 1341.8,322.8 
		1343.5,309.6 1345.3,318.3 1347,307.1 1348.7,318.1 1350.5,318.8 1352.2,310.6 1353.9,321.2 1355.7,322.5 1357.4,316.2 1359.1,305 
		1360.9,308.2 1362.6,315 1364.3,319.8 1366.1,308 1367.8,314.5 1369.6,311.9 1371.3,315.3 1373,311.2 1374.8,313 1376.5,301.6 
		1378.2,303.9 1380,312.6 1383.4,298.5 1385.2,304.6 1386.9,296.7 1388.6,302.5 1390.4,302.7 1392.1,287.5 1393.9,280.3 
		1395.6,294.6 1397.3,288.8 1399.1,288.5 1400.8,277.1 1402.5,280.5 1404.3,287.1 1406,281.8 1407.7,268.5 1409.5,272.6 
		1411.2,269.9 1412.9,258 1414.7,246.4 1416.4,257.9 1418.2,245.6 1419.9,184 1421.6,173.4 1423.4,171.8 1425.1,137.4 1426.8,146.1 
		1428.6,126.3 1430.3,125 1432,110.4 1433.8,109.5 1435.5,110.5 1437.2,119.6 1440.7,114.7 1442.5,124 1444.2,132 1445.9,130.8 
		1447.7,137.8 1449.4,133.1 1451.1,147.6 1452.9,121.6 1454.6,152.8 1456.3,140.2 1459.8,151.4 1461.6,165.6 1463.3,165 1465,160.1 
		1468.5,178.9 1470.2,174.5 1472,189.4 1473.7,178.7 1475.4,179.9 1477.2,176.1 1478.9,172.4 1480.6,182.5 1482.4,184.3 
		1484.1,179.4 1485.9,191.7 1487.6,180.4 1489.3,173.8 1491.1,178.8 1494.5,192.8 1496.3,174.4 1499.7,185.8 1501.5,181.9 
		1503.2,195.4 1504.9,182.2 1506.7,202.6 1508.4,194.9 1510.2,212.6 1511.9,209.2 1513.6,212.7 1515.4,205.2 1517.1,221.9 
		1518.8,204.6 1520.6,202.4 1522.3,204.1 1524,202.4 1525.8,210.8 1527.5,213.3 1529.2,222.4 1531,212 1532.7,216.6 1534.5,233.5 
		1536.2,224.3 1537.9,233.1 1539.7,218.6 1541.4,226.7 1543.1,218.2 1544.9,224.8 1546.6,221.5 1548.3,231.9 1550.1,225 
		1551.8,220.8 1553.5,222 1555.3,235.9 1557,240.3 1558.8,233.6 1560.5,239 1562.2,235.4 1564,233.8 1565.7,248.3 1567.4,240 
		1569.2,243 1570.9,231.3 1572.6,239.8 1574.4,236.8 1576.1,244.8 1577.8,236.6 1579.6,255.3 1581.3,242.5 1583.1,247.2 
		1584.8,248.1 1586.5,242.6 1588.3,255.5 1590,245.3 1591.7,244.7 1593.5,244.7 	"/>
</g>
<text transform="matrix(1 0 0 1 1233.5908 358.9623)" class="st5 st6 st7">−10</text>
<text transform="matrix(1 0 0 1 1324.5488 358.9623)" class="st5 st6 st7">−5</text>
<text transform="matrix(1 0 0 1 1415.7236 358.9623)" class="st5 st6 st7">0</text>
<text transform="matrix(1 0 0 1 1502.5098 358.9623)" class="st5 st6 st7">5</text>
<text transform="matrix(1 0 0 1 1585.1299 358.9623)" class="st5 st6 st7">10</text>
<line x1="154.3" y1="433.4" x2="154.3" y2="709.4"/>
<line class="st1" x1="154.3" y1="433.4" x2="154.3" y2="709.4"/>
<line x1="327.9" y1="433.4" x2="327.9" y2="709.4"/>
<line class="st1" x1="327.9" y1="433.4" x2="327.9" y2="709.4"/>
<line x1="67.5" y1="689.7" x2="414.7" y2="689.7"/>
<line class="st1" x1="67.5" y1="689.7" x2="414.7" y2="689.7"/>
<line x1="67.5" y1="637.8" x2="414.7" y2="637.8"/>
<line class="st1" x1="67.5" y1="637.8" x2="414.7" y2="637.8"/>
<line x1="67.5" y1="585.9" x2="414.7" y2="585.9"/>
<line class="st1" x1="67.5" y1="585.9" x2="414.7" y2="585.9"/>
<line x1="67.5" y1="534" x2="414.7" y2="534"/>
<line class="st1" x1="67.5" y1="534" x2="414.7" y2="534"/>
<line x1="67.5" y1="482.2" x2="414.7" y2="482.2"/>
<line class="st1" x1="67.5" y1="482.2" x2="414.7" y2="482.2"/>
<line x1="241.1" y1="433.4" x2="241.1" y2="709.4"/>
<line class="st2" x1="241.1" y1="433.4" x2="241.1" y2="709.4"/>
<g>
	<defs>
		<rect id="SVGID_9_" x="67.5" y="433.4" width="347.2" height="276.1"/>
	</defs>
	<clipPath id="SVGID_10_">
		<use xlink:href="#SVGID_9_"  style="overflow:visible;"/>
	</clipPath>
	<polyline class="st14" points="67.5,649.9 69.3,650 71,657.9 72.7,652.1 74.5,654.2 76.2,655 77.9,645.8 79.7,646 81.4,650.1 
		83.1,645.2 84.9,653.7 86.6,638.1 88.3,650.5 90.1,659.4 91.8,636.1 93.6,649.4 95.3,645 97,640.7 98.8,644.4 100.5,654.6 
		102.2,651 104,644.7 105.7,650.4 107.4,643.9 109.2,655.1 110.9,640.3 112.7,652.4 114.4,647.7 116.1,644.7 117.9,650.6 
		119.6,646.9 121.3,643.3 123.1,645.2 124.8,662.4 126.5,651.4 128.3,641.2 130,644.8 131.7,649.1 133.5,649.8 135.2,630.1 
		137,634.2 138.7,644.8 140.4,631.3 143.9,658.1 145.6,643.2 147.4,637.6 149.1,649.3 150.8,628.5 152.6,632.1 156,639 157.8,648.7 
		159.5,630.3 161.3,631.3 163,638.6 164.7,639.5 166.5,639.7 168.2,645.1 169.9,628.3 171.7,646.3 173.4,639 175.1,643.2 
		176.9,641.5 178.6,630.2 180.3,623.9 182.1,646.6 185.6,629 187.3,634.7 189,656.1 190.8,632.6 192.5,635.8 194.2,627.9 196,623.1 
		197.7,628.4 199.4,636.5 201.2,625 202.9,625.3 204.6,619 206.4,614.5 208.1,607.6 209.9,626.4 211.6,619.2 213.3,623.1 
		215.1,624.6 216.8,604.8 218.5,611.4 220.3,614.7 222,585.4 223.7,609.8 225.5,601.9 227.2,591.7 228.9,570.1 230.7,581.7 
		232.4,569.7 235.9,544.9 237.6,549.1 239.4,550.5 241.1,564.5 246.3,586.6 248,596 249.8,589.2 251.5,594.6 253.2,601 255,617.2 
		256.7,610.4 258.5,623.1 260.2,622.9 261.9,617.6 263.7,608.1 265.4,640.5 267.1,623.6 268.9,629.6 270.6,638.8 272.3,622.5 
		274.1,627.9 275.8,639.8 277.5,633.2 279.3,655.3 281,641.5 282.8,647.6 284.5,629.4 286.2,642.4 288,638.1 289.7,649.3 
		291.4,635.4 293.2,641.9 294.9,635.2 296.6,643.1 298.4,625.4 300.1,629.1 301.9,647.5 303.6,652.9 305.3,630.1 307.1,658 
		308.8,651.7 310.5,652.8 312.3,654.5 314,640.4 315.7,643.9 317.5,649.5 319.2,654.9 320.9,651.1 322.7,637 324.4,648.8 
		326.2,651.1 327.9,647.9 329.6,652.6 331.4,644.7 333.1,647.7 334.8,645.6 336.6,638.8 338.3,644.6 340,647.5 341.8,645.5 
		345.2,662.9 347,650.7 350.5,666.1 352.2,655.5 353.9,652.5 355.7,676.3 359.1,644.8 360.9,664.1 362.6,657.5 364.3,664.8 
		366.1,660 367.8,659.2 369.5,663.4 371.3,656.5 373,646.5 374.8,649.1 376.5,654.8 378.2,670.9 380,646.9 381.7,659.1 383.4,654.8 
		385.2,663.2 386.9,665.8 388.6,653.9 390.4,657.8 392.1,647 393.8,665.2 395.6,653.5 397.3,651.4 399.1,658.8 400.8,661.5 
		402.5,649.3 404.3,659.8 406,662.7 407.7,657.9 409.5,656.5 411.2,659.4 412.9,671.4 414.7,671.4 	"/>
	<polyline class="st15" points="67.5,651.7 69.3,658.2 71,649.3 72.7,646 74.5,650.1 76.2,644.9 77.9,648 79.7,646.5 81.4,652.5 
		84.9,661.8 86.6,650.2 88.3,647.9 90.1,653.4 91.8,655.8 93.6,641.9 95.3,653 97,657.4 98.8,658 100.5,639 104,657.3 105.7,657.7 
		109.2,638.8 110.9,641.4 112.7,657.6 114.4,657 116.1,630.7 117.9,649.7 119.6,643.7 121.3,647.5 123.1,640.1 124.8,648.2 
		126.5,633.4 128.3,637.7 130,655.3 131.7,637.9 133.5,623.1 135.2,634.6 137,640.9 138.7,629.6 140.4,644.4 142.2,641.2 
		143.9,639.8 145.6,625 147.4,643 149.1,638.4 150.8,651.7 152.6,640.3 154.3,647.1 156,644.9 157.8,632.4 159.5,641.5 161.3,632.4 
		163,629.7 164.7,634.3 166.5,629 168.2,630.7 169.9,642.7 171.7,639.3 173.4,649.8 175.1,631.8 176.9,628.1 178.6,647.7 
		180.3,630.1 182.1,636.4 183.8,635.8 185.6,626.8 187.3,633.5 189,638.1 190.8,627.8 192.5,635.5 194.2,631.3 196,636.1 197.7,632 
		199.4,635.7 201.2,625.7 202.9,623.7 204.6,622.6 206.4,616.6 208.1,625.5 209.9,617.2 211.6,616.7 213.3,610.4 215.1,618.7 
		216.8,617.9 218.5,622.5 220.3,606.7 222,608.9 223.7,613.5 225.5,599 227.2,601.2 228.9,593.2 230.7,569.5 232.4,567.2 
		234.2,557.5 235.9,554.4 237.6,543.8 239.4,505.9 242.8,558.7 244.6,560.4 246.3,588.6 248,599.4 251.5,602.2 253.2,612.9 
		255,603.6 256.7,611 258.5,617.5 260.2,607.1 261.9,625.6 263.7,624.7 265.4,640.1 267.1,618.6 268.9,624.6 270.6,637.6 
		272.3,636.9 274.1,644.6 275.8,639 277.5,623.3 279.3,642.3 281,635.1 282.8,631.7 284.5,644.1 286.2,643.6 288,638.9 289.7,630.6 
		291.4,641 294.9,647.5 296.6,628.6 298.4,651.3 300.1,647.6 301.9,646.7 303.6,653.4 305.3,631.2 307.1,639 308.8,648.2 310.5,640 
		312.3,650.3 314,651.1 315.7,654.6 317.5,644.4 319.2,647.2 320.9,641 322.7,657 324.4,645.1 326.2,639.9 327.9,653.2 329.6,645.4 
		331.4,649 333.1,642.8 334.8,645.2 336.6,661.7 338.3,648.7 340,661.9 341.8,661.2 343.5,651.3 345.2,661.1 347,656.2 348.7,668.1 
		350.5,644.9 352.2,659.2 353.9,664.7 355.7,655.1 357.4,663.1 359.1,646.7 360.9,653.1 362.6,655.4 364.3,657.7 366.1,657.9 
		367.8,661.4 369.5,646.5 371.3,659.9 373,656.1 374.8,659.4 376.5,654.7 378.2,655.8 380,658.4 381.7,670.2 383.4,655.2 
		385.2,658.1 386.9,668.5 388.6,663.2 390.4,662.5 392.1,679.1 393.8,662.6 395.6,652.4 397.3,661.1 399.1,653 400.8,652.7 
		402.5,661.3 404.3,651.3 406,668.2 407.7,668.8 409.5,662.8 411.2,666.5 412.9,657.1 414.7,657.1 	"/>
</g>
<text transform="matrix(1 0 0 1 54.7939 725.2016)" class="st5 st6 st7">−10</text>
<text transform="matrix(1 0 0 1 145.752 725.2016)" class="st5 st6 st7">−5</text>
<text transform="matrix(1 0 0 1 236.9263 725.2016)" class="st5 st6 st7">0</text>
<text transform="matrix(1 0 0 1 323.7119 725.2016)" class="st5 st6 st7">5</text>
<text transform="matrix(1 0 0 1 406.333 725.2016)" class="st5 st6 st7">10</text>
<text transform="matrix(1 0 0 1 45.9116 694.9077)" class="st5 st6 st7">0.8</text>
<text transform="matrix(1 0 0 1 58.4248 643.0375)" class="st5 st6 st7">1</text>
<text transform="matrix(1 0 0 1 45.9116 591.1596)" class="st5 st6 st7">1.2</text>
<text transform="matrix(1 0 0 1 45.9116 539.2817)" class="st5 st6 st7">1.4</text>
<text transform="matrix(1 0 0 1 45.9116 487.4116)" class="st5 st6 st7">1.6</text>
<line x1="547.2" y1="433.4" x2="547.2" y2="709.4"/>
<line class="st1" x1="547.2" y1="433.4" x2="547.2" y2="709.4"/>
<line x1="720.8" y1="433.4" x2="720.8" y2="709.4"/>
<line class="st1" x1="720.8" y1="433.4" x2="720.8" y2="709.4"/>
<line x1="460.5" y1="689.7" x2="807.6" y2="689.7"/>
<line class="st1" x1="460.5" y1="689.7" x2="807.6" y2="689.7"/>
<line x1="460.5" y1="637.8" x2="807.6" y2="637.8"/>
<line class="st1" x1="460.5" y1="637.8" x2="807.6" y2="637.8"/>
<line x1="460.5" y1="585.9" x2="807.6" y2="585.9"/>
<line class="st1" x1="460.5" y1="585.9" x2="807.6" y2="585.9"/>
<line x1="460.5" y1="534" x2="807.6" y2="534"/>
<line class="st1" x1="460.5" y1="534" x2="807.6" y2="534"/>
<line x1="460.5" y1="482.2" x2="807.6" y2="482.2"/>
<line class="st1" x1="460.5" y1="482.2" x2="807.6" y2="482.2"/>
<line x1="634" y1="433.4" x2="634" y2="709.4"/>
<line class="st2" x1="634" y1="433.4" x2="634" y2="709.4"/>
<g>
	<defs>
		<rect id="SVGID_11_" x="460.5" y="433.4" width="347.2" height="276.1"/>
	</defs>
	<clipPath id="SVGID_12_">
		<use xlink:href="#SVGID_11_"  style="overflow:visible;"/>
	</clipPath>
	<polyline class="st16" points="460.5,647.8 463.9,656.2 465.7,650.1 467.4,648.7 469.1,657.9 474.3,644.2 476.1,645.4 477.8,651.5 
		479.5,651.8 481.3,644.1 483,654.8 484.8,658.2 486.5,645.4 488.2,658.5 490,625.2 491.7,649.9 493.4,646 495.2,643.8 496.9,640 
		498.6,639.4 500.4,635.2 502.1,632.5 503.8,647.6 507.3,651.3 509.1,651.9 510.8,645.8 512.5,656.7 514.3,644.7 516,648.7 
		517.7,643.8 519.5,652.5 521.2,642.8 522.9,651.9 526.4,644.5 528.1,649.8 531.6,645.7 533.4,647.2 535.1,645 536.8,637.9 
		538.6,643.4 540.3,643 542,658.4 543.8,662.5 545.5,643 547.2,649 549,657.9 550.7,650.3 552.4,641.4 554.2,640.6 555.9,640.1 
		557.7,633.1 559.4,639 561.1,634.4 562.9,640.3 564.6,656.5 566.3,636.4 568.1,642.4 569.8,660.3 571.5,640.5 575,649.8 
		576.8,629.1 578.5,651.7 580.2,651.8 582,635.4 583.7,657.5 585.4,639.9 587.2,644.4 588.9,640.6 590.6,649.6 594.1,635.6 
		595.8,631.4 597.6,637.8 599.3,641.9 601.1,633.8 602.8,637.8 604.5,637.4 606.3,625.4 608,618.6 609.7,619.7 611.5,625.4 
		613.2,606 614.9,612 616.7,604.9 618.4,620.1 620.1,621 621.9,605.7 623.6,608.2 625.4,612.7 627.1,586.5 628.8,581.9 630.6,557.2 
		632.3,582.3 634,547.4 635.8,541.3 637.5,555.2 639.2,577 641,563.6 642.7,582.1 644.4,581.5 646.2,579.3 647.9,590.8 653.1,615.1 
		654.9,592.3 656.6,612.3 658.3,611.6 660.1,603.2 661.8,620.3 663.5,625.7 665.3,623.4 667,615.7 668.7,612.8 670.5,635.7 
		672.2,619.1 674,621.8 675.7,629.5 677.4,627.1 679.2,623.8 680.9,616.4 682.6,631.1 684.4,637.7 686.1,627.2 687.8,628.5 
		689.6,628.5 691.3,631.9 693,623.4 696.5,640.7 698.3,637.9 700,635.5 701.7,645.1 703.5,645.5 705.2,646.9 706.9,638 708.7,650 
		710.4,639.2 712.1,646.2 713.9,652.2 715.6,638.7 717.3,640.6 719.1,652.3 720.8,644.9 722.5,648.5 724.3,649.7 726,646.7 
		727.8,636.6 729.5,635.8 731.2,659.7 733,651.4 734.7,647 736.4,645.8 738.2,650.8 739.9,661.9 741.7,654.2 743.4,650.5 
		745.1,661.6 746.9,659.6 748.6,652.6 750.3,671.4 753.8,654.8 755.5,652.2 757.3,641 759,648.6 760.7,657.7 762.5,639.1 
		764.2,651.7 766,646 767.7,644.1 769.4,653.5 771.2,660.6 772.9,643.3 774.6,660.5 776.4,657.2 778.1,651.2 779.8,659.6 
		781.6,658.9 783.3,658.7 785,665.5 786.8,669.2 788.5,663.6 790.2,670.2 792,660.8 793.7,655.3 795.5,662.4 797.2,664 798.9,663 
		800.7,642.7 804.1,659.2 805.9,661.8 807.6,661.8 	"/>
	<polyline class="st17" points="460.5,652.3 463.9,656.6 465.7,652.4 467.4,640.7 469.1,648.9 470.9,648.9 472.6,651.6 474.3,643.6 
		476.1,656.8 477.8,659.3 479.5,655.9 481.3,651 483,650.2 484.8,651.2 486.5,654.5 488.2,663.4 490,651 491.7,644.7 493.4,664.4 
		495.2,651.6 496.9,661.3 500.4,641.8 502.1,653.6 503.8,650.9 505.6,649.7 507.3,646.6 509.1,648.9 510.8,655 512.5,639.9 
		516,657.6 517.7,640.1 519.5,655.9 521.2,653.5 522.9,641.7 524.7,637.7 526.4,648.5 528.1,649.4 529.9,655.5 531.6,646.9 
		533.4,649.4 535.1,658.3 536.8,646.6 538.6,652.7 540.3,649.3 542,643.5 543.8,663.3 545.5,659 547.2,662.8 549,642.2 550.7,667.5 
		552.4,649.7 554.2,644.6 555.9,648.2 557.7,641.5 559.4,648.6 561.1,637.8 562.9,637.1 564.6,651.1 566.3,651.5 568.1,630.3 
		569.8,652.6 571.5,653.5 573.3,643.6 575,638 576.8,656.4 580.2,641.1 582,644 583.7,635.2 585.4,638.8 587.2,635.1 588.9,639.9 
		590.6,643.5 592.4,629.8 594.1,636.4 595.8,635.9 597.6,645.6 599.3,636.1 601.1,645 602.8,638.5 604.5,625.5 606.3,626.4 
		608,619.8 609.7,624.7 611.5,624.3 613.2,612.9 614.9,618 616.7,616.1 618.4,628.9 620.1,601.7 621.9,607.8 623.6,595.4 
		625.4,597.7 627.1,590.5 628.8,575 630.6,567.2 632.3,556.4 634,499 637.5,557.7 639.2,567.9 641,566.3 642.7,556.8 644.4,563.2 
		646.2,575.9 647.9,602.4 649.7,598.5 651.4,605.4 653.1,603.3 654.9,608.3 656.6,589.9 658.3,626.8 660.1,603.7 661.8,618.6 
		663.5,617.7 665.3,630.2 667,614.1 668.7,607.1 670.5,607.2 672.2,623.9 674,621.5 675.7,621.8 677.4,630.2 679.2,611 680.9,623 
		682.6,635.4 684.4,621.7 686.1,640.3 687.8,638.5 689.6,628 691.3,621.4 693,621.2 694.8,640.3 696.5,638.6 698.3,634.6 700,653.9 
		701.7,640.8 703.5,640.6 705.2,635.2 708.7,651.7 710.4,642.5 712.1,653.4 713.9,648.2 715.6,651.6 717.3,649.1 719.1,644 
		720.8,646.6 722.5,649.1 724.3,672.5 726,656.9 727.8,650.2 729.5,652.4 731.2,653.1 733,643.8 734.7,656.4 736.4,653.7 
		738.2,640.1 739.9,653.8 741.7,644 743.4,636.9 745.1,653.3 746.9,650.6 748.6,642.8 750.3,661 752.1,645.9 753.8,651.2 
		755.5,645.9 757.3,649 759,646.1 760.7,651.1 762.5,638.8 764.2,649.2 766,654.5 767.7,651.4 769.4,666.6 771.2,659.3 772.9,658.9 
		774.6,664.4 776.4,643.3 778.1,652.7 779.8,657.4 781.6,644.7 783.3,664.7 785,653.9 786.8,663.1 788.5,669.2 790.2,657.9 
		792,652.3 793.7,651.6 795.5,663.1 797.2,656.3 798.9,672.4 800.7,659.3 805.9,655.4 807.6,655.4 	"/>
</g>
<text transform="matrix(1 0 0 1 447.7266 725.2016)" class="st5 st6 st7">−10</text>
<text transform="matrix(1 0 0 1 538.6846 725.2016)" class="st5 st6 st7">−5</text>
<text transform="matrix(1 0 0 1 629.8589 725.2016)" class="st5 st6 st7">0</text>
<text transform="matrix(1 0 0 1 716.6445 725.2016)" class="st5 st6 st7">5</text>
<text transform="matrix(1 0 0 1 799.2656 725.2016)" class="st5 st6 st7">10</text>
<line x1="940.2" y1="433.4" x2="940.2" y2="709.4"/>
<line class="st1" x1="940.2" y1="433.4" x2="940.2" y2="709.4"/>
<line x1="1113.7" y1="433.4" x2="1113.7" y2="709.4"/>
<line class="st1" x1="1113.7" y1="433.4" x2="1113.7" y2="709.4"/>
<line x1="853.4" y1="689.7" x2="1200.5" y2="689.7"/>
<line class="st1" x1="853.4" y1="689.7" x2="1200.5" y2="689.7"/>
<line x1="853.4" y1="637.8" x2="1200.5" y2="637.8"/>
<line class="st1" x1="853.4" y1="637.8" x2="1200.5" y2="637.8"/>
<line x1="853.4" y1="585.9" x2="1200.5" y2="585.9"/>
<line class="st1" x1="853.4" y1="585.9" x2="1200.5" y2="585.9"/>
<line x1="853.4" y1="534" x2="1200.5" y2="534"/>
<line class="st1" x1="853.4" y1="534" x2="1200.5" y2="534"/>
<line x1="853.4" y1="482.2" x2="1200.5" y2="482.2"/>
<line class="st1" x1="853.4" y1="482.2" x2="1200.5" y2="482.2"/>
<line x1="1027" y1="433.4" x2="1027" y2="709.4"/>
<line class="st2" x1="1027" y1="433.4" x2="1027" y2="709.4"/>
<g>
	<defs>
		<rect id="SVGID_13_" x="853.4" y="433.4" width="347.2" height="276.1"/>
	</defs>
	<clipPath id="SVGID_14_">
		<use xlink:href="#SVGID_13_"  style="overflow:visible;"/>
	</clipPath>
	<polyline class="st18" points="853.4,665 855.1,664.7 856.9,656.2 858.6,641.7 860.3,656.1 862.1,654.9 863.8,682.9 865.5,653.8 
		867.3,656.4 869,678.4 870.7,657.2 872.5,660.8 874.2,650.5 877.7,637 879.4,654.7 881.2,645.3 882.9,645.4 884.6,646.9 
		886.4,652.2 888.1,660.6 889.8,663 891.6,655.1 893.3,665.6 896.8,653.4 898.5,650.6 900.3,651.8 902,668.8 903.7,648.8 
		905.5,647.6 907.2,658.9 908.9,655.4 910.7,643.1 912.4,673.1 914.1,653.8 915.9,677.3 917.6,636.3 919.3,657.3 921.1,655.2 
		922.8,661.5 924.6,657.4 926.3,646.8 928,644.6 929.8,664.9 931.5,635.8 933.2,644.9 935,662.5 936.7,647.6 938.4,648.6 
		940.2,654.1 943.6,641.1 945.4,647.1 947.1,647.8 948.9,651 950.6,628.6 952.3,640.5 954.1,655.8 955.8,637.5 957.5,641 
		959.3,633.2 961,648.9 962.7,633.1 964.5,642.9 966.2,626.2 969.7,653.7 971.4,650.2 973.2,631.3 974.9,644.6 976.6,641.8 
		978.4,636.2 980.1,626.9 981.8,634.6 983.6,643.7 985.3,648.4 987,633.1 988.8,636.6 992.2,616.2 994,628.9 995.7,600.3 
		997.5,629.8 999.2,615.6 1000.9,588.8 1002.7,602.7 1004.4,592.6 1006.1,579.8 1007.9,598.6 1011.3,567.9 1013.1,560.7 
		1014.8,560.6 1016.6,543.1 1018.3,525.2 1020,498.1 1021.8,501 1023.5,526.8 1025.2,466 1027,564.6 1028.7,523.6 1030.4,541.5 
		1032.2,565.3 1033.9,557.4 1035.6,561.5 1037.4,558.4 1039.1,566.6 1040.9,598 1042.6,595.4 1044.3,597.3 1046.1,603.5 
		1047.8,596.8 1049.5,613.1 1051.3,641.4 1053,649.1 1054.7,635.5 1056.5,623.8 1058.2,651.1 1059.9,646.9 1061.7,635.6 
		1063.4,633.1 1065.1,634.3 1066.9,649.7 1068.6,645.3 1070.4,629.1 1072.1,632.1 1073.8,648.6 1075.6,629.3 1077.3,632.5 
		1079,625.6 1082.5,645.4 1084.2,660.4 1086,648.4 1087.7,629.2 1089.4,641.3 1091.2,641.1 1092.9,628.1 1094.7,639.4 1096.4,633.3 
		1098.1,654.4 1099.9,630.6 1101.6,632.4 1103.3,644.4 1105.1,661.4 1108.5,649.4 1110.3,648.3 1112,651.6 1113.7,644 1115.5,666.9 
		1117.2,655.3 1119,661.5 1120.7,653.8 1122.4,664.8 1124.2,634.6 1125.9,657 1127.6,634.6 1129.4,671 1131.1,652.9 1132.8,657.4 
		1134.6,671.8 1136.3,648.6 1138,657.7 1139.8,649.2 1141.5,665 1143.3,671.4 1145,644.6 1146.7,677 1148.5,659.6 1150.2,645.1 
		1151.9,660.8 1153.7,657.2 1155.4,663.9 1157.1,658.1 1158.9,644.9 1160.6,653.4 1162.3,658.2 1164.1,678.7 1165.8,663.1 
		1167.6,658.9 1169.3,659.5 1171,653.3 1172.8,678.2 1174.5,658.2 1176.2,674.9 1178,676.1 1179.7,673.4 1181.4,665.1 1183.2,663 
		1184.9,654 1186.7,670.3 1188.4,668.4 1190.1,651.6 1191.9,668.6 1193.6,667 1195.3,675.1 1197.1,660.6 1198.8,665 1200.5,665 	"/>
	<polyline class="st19" points="853.4,668.2 855.1,649.2 856.9,654.3 858.6,663.7 860.3,663.9 862.1,660.2 863.8,647.8 865.5,642.9 
		867.3,661.6 869,669.1 870.7,654.2 872.5,653 874.2,667.1 876,647.4 877.7,655.7 879.4,654.8 881.2,643.4 882.9,647.5 884.6,648.2 
		886.4,651.4 888.1,660.8 889.8,659.7 891.6,662.1 893.3,674.1 895,667.6 896.8,659.2 898.5,657.8 900.3,648.4 902,649.3 
		903.7,655.5 905.5,643.5 907.2,648 908.9,647.6 910.7,648.7 912.4,657.9 914.1,662.6 915.9,657.5 917.6,647.2 919.3,660.4 
		921.1,646.9 922.8,641.2 924.6,642.6 926.3,638.4 929.8,654.8 931.5,636.9 933.2,663.4 935,642.2 936.7,643.4 938.4,643.8 
		940.2,654.9 941.9,654.5 943.6,639.1 945.4,637.3 947.1,638.8 948.9,651.8 950.6,651.9 952.3,630.1 954.1,656.4 955.8,628.5 
		957.5,643.2 959.3,652.3 961,635.1 962.7,650.4 964.5,636.3 966.2,655 967.9,640.1 969.7,634.3 971.4,624.8 973.2,636.8 
		974.9,644.2 976.6,633.5 978.4,638 980.1,659.8 981.8,633.5 983.6,642.6 985.3,638.7 987,633.1 988.8,619.1 990.5,612.3 
		992.2,609.8 994,612.1 995.7,601 997.5,606.1 999.2,594.6 1000.9,597 1002.7,600.4 1004.4,591.8 1006.1,564.5 1007.9,594.4 
		1009.6,564.7 1011.3,565 1013.1,561.6 1014.8,547.7 1016.6,554.8 1018.3,521.5 1020,536 1021.8,466.1 1023.5,469.9 1025.2,449.7 
		1027,537.2 1028.7,528.2 1030.4,551.3 1032.2,546.2 1033.9,553.1 1035.6,557.3 1037.4,562.5 1039.1,546.8 1040.9,587 1042.6,596.8 
		1044.3,575.1 1046.1,616.4 1047.8,613.3 1049.5,627.9 1051.3,628.1 1053,614.8 1054.7,609.5 1056.5,621.8 1058.2,637.2 
		1059.9,636.3 1061.7,640.7 1063.4,611.9 1065.1,636.1 1066.9,640.9 1068.6,635 1070.4,635.9 1072.1,632.5 1073.8,644.9 
		1075.6,629.3 1077.3,633.2 1079,647.6 1080.8,639.5 1082.5,639.1 1084.2,632.9 1086,662.8 1087.7,633.7 1089.4,648.4 1091.2,639.8 
		1092.9,657.5 1094.7,636.3 1096.4,645.2 1098.1,643.6 1099.9,667.4 1101.6,663.3 1103.3,658.2 1105.1,658.1 1106.8,659.8 
		1108.5,650.9 1110.3,650.5 1112,644.7 1113.7,650.7 1115.5,663.9 1117.2,643.1 1119,659.3 1120.7,658.3 1122.4,654.6 1124.2,654.2 
		1125.9,662.7 1127.6,649.6 1129.4,670.4 1131.1,665 1132.8,663.7 1134.6,672.8 1136.3,665.9 1138,672.6 1139.8,665.6 1143.3,676.8 
		1145,668.2 1146.7,673.9 1148.5,660 1150.2,658.7 1151.9,679.9 1153.7,679 1155.4,666.3 1157.1,658.8 1158.9,672.6 1160.6,677.6 
		1162.3,668.8 1164.1,663.7 1165.8,647.7 1167.6,695.8 1169.3,679.7 1171,663 1172.8,667.7 1174.5,674.3 1176.2,675.6 1178,666.5 
		1179.7,676.6 1181.4,668.5 1183.2,673.1 1184.9,654.1 1186.7,660.2 1188.4,649.5 1190.1,686.2 1193.6,657.8 1195.3,675.1 
		1197.1,660.4 1198.8,679.5 1200.5,679.5 	"/>
</g>
<text transform="matrix(1 0 0 1 840.6587 725.2016)" class="st5 st6 st7">−10</text>
<text transform="matrix(1 0 0 1 931.6172 725.2016)" class="st5 st6 st7">−5</text>
<text transform="matrix(1 0 0 1 1022.791 725.2016)" class="st5 st6 st7">0</text>
<text transform="matrix(1 0 0 1 1109.5771 725.2016)" class="st5 st6 st7">5</text>
<text transform="matrix(1 0 0 1 1192.1973 725.2016)" class="st5 st6 st7">10</text>
<line x1="1333.1" y1="433.4" x2="1333.1" y2="709.4"/>
<line class="st1" x1="1333.1" y1="433.4" x2="1333.1" y2="709.4"/>
<line x1="1506.7" y1="433.4" x2="1506.7" y2="709.4"/>
<line class="st1" x1="1506.7" y1="433.4" x2="1506.7" y2="709.4"/>
<line x1="1246.3" y1="689.7" x2="1593.5" y2="689.7"/>
<line class="st1" x1="1246.3" y1="689.7" x2="1593.5" y2="689.7"/>
<line x1="1246.3" y1="637.8" x2="1593.5" y2="637.8"/>
<line class="st1" x1="1246.3" y1="637.8" x2="1593.5" y2="637.8"/>
<line x1="1246.3" y1="585.9" x2="1593.5" y2="585.9"/>
<line class="st1" x1="1246.3" y1="585.9" x2="1593.5" y2="585.9"/>
<line x1="1246.3" y1="534" x2="1593.5" y2="534"/>
<line class="st1" x1="1246.3" y1="534" x2="1593.5" y2="534"/>
<line x1="1246.3" y1="482.2" x2="1593.5" y2="482.2"/>
<line class="st1" x1="1246.3" y1="482.2" x2="1593.5" y2="482.2"/>
<line x1="1419.9" y1="433.4" x2="1419.9" y2="709.4"/>
<line class="st2" x1="1419.9" y1="433.4" x2="1419.9" y2="709.4"/>
<g>
	<defs>
		<rect id="SVGID_15_" x="1246.3" y="433.4" width="347.2" height="276.1"/>
	</defs>
	<clipPath id="SVGID_16_">
		<use xlink:href="#SVGID_15_"  style="overflow:visible;"/>
	</clipPath>
	<polyline class="st20" points="1246.3,662.1 1248.1,653 1249.8,659.1 1251.5,682.6 1253.3,667.2 1255,659.1 1256.7,662.2 
		1258.5,675.7 1260.2,664.4 1261.9,658.2 1263.7,671.5 1265.4,673.8 1267.1,643.8 1270.6,670.7 1272.4,657.1 1274.1,670.2 
		1275.8,663.8 1277.6,665.7 1279.3,635.4 1281,653 1282.8,638.3 1284.5,652.5 1286.2,643.9 1288,657.9 1289.7,666.2 1291.5,655.6 
		1293.2,665.9 1294.9,654.6 1296.7,648.1 1298.4,667.9 1300.1,665.5 1301.9,651.8 1303.6,651.3 1305.3,668.1 1307.1,640.8 
		1308.8,646.1 1310.5,654.4 1312.3,649.1 1314,663.8 1315.8,657.6 1317.5,660.3 1319.2,656.8 1321,674 1322.7,642.8 1324.4,652.3 
		1326.2,649.2 1327.9,658.6 1329.6,651.8 1331.4,647.9 1333.1,649.6 1334.8,669.5 1336.6,636 1338.3,641.5 1340,649.8 1341.8,642.1 
		1343.5,648 1345.3,657.7 1348.7,638.5 1350.5,639.5 1352.2,657 1353.9,648.5 1355.7,661.6 1357.4,651.1 1359.1,665.3 1360.9,643.1 
		1362.6,647.7 1364.3,641.7 1366.1,631.6 1367.8,647.7 1369.6,640.9 1371.3,643.9 1373,645.3 1374.8,626.9 1376.5,638.1 
		1378.2,639.8 1380,623.2 1381.7,623.1 1383.4,639.7 1385.2,618 1388.6,625.5 1390.4,631.5 1392.1,601.9 1393.9,604.6 1397.3,621 
		1399.1,621.1 1400.8,599.1 1402.5,613.1 1404.3,589.7 1406,557 1407.7,586.6 1409.5,563.7 1411.2,539.2 1412.9,553.8 1414.7,520.6 
		1416.4,543.4 1418.2,560.1 1419.9,499.4 1423.4,520.5 1425.1,529.7 1426.8,532.5 1428.6,525.1 1432,572.7 1433.8,584 1435.5,571.9 
		1437.2,594.3 1439,591 1440.7,595.5 1442.5,601.5 1444.2,594.1 1445.9,616.5 1447.7,606.7 1449.4,603.7 1451.1,608.5 1452.9,626.4 
		1454.6,629.2 1456.3,633.5 1458.1,630.6 1459.8,621.9 1461.6,624.7 1463.3,640.1 1465,634.3 1466.8,634.3 1468.5,629 1470.2,636.8 
		1472,647.9 1473.7,660.9 1475.4,650.3 1477.2,651 1478.9,649.2 1480.6,643.4 1482.4,649.9 1485.9,636.6 1487.6,624 1489.3,643.7 
		1491.1,649.3 1492.8,642.4 1494.5,618.8 1496.3,642.9 1498,649.5 1499.7,640.5 1501.5,642.9 1503.2,670.2 1504.9,642.7 
		1506.7,660.9 1508.4,655.8 1510.2,654.3 1511.9,659.7 1513.6,663.5 1515.4,644.8 1517.1,651.3 1518.8,650.6 1520.6,647.4 
		1522.3,653.5 1524,646.1 1525.8,662.3 1527.5,657.5 1529.2,642.5 1531,667.9 1532.7,658.5 1534.5,653 1536.2,662.6 1537.9,641.6 
		1539.7,649.8 1543.1,653.3 1544.9,654 1546.6,670.8 1548.3,648.3 1551.8,658.4 1553.5,672.6 1555.3,661 1557,654.8 1558.8,644.1 
		1560.5,655.9 1562.2,655.3 1564,663.6 1565.7,666.9 1567.4,667.8 1569.2,650.6 1570.9,675.9 1572.6,657.9 1574.4,665.9 
		1576.1,664.4 1577.8,669 1579.6,651.9 1581.3,647.3 1583.1,654.4 1584.8,645.3 1586.5,659.8 1588.3,668.7 1590,651.2 1591.7,660.8 
		1593.5,660.8 	"/>
	<polyline class="st21" points="1246.3,676.1 1248.1,666.7 1249.8,672.6 1251.5,673.8 1253.3,677.4 1255,670.6 1256.7,671.3 
		1258.5,665.3 1260.2,672.9 1261.9,665 1263.7,684.9 1265.4,674.3 1267.1,669.2 1268.9,661 1270.6,669.2 1272.4,657.1 1274.1,661.2 
		1275.8,647.3 1277.6,666 1279.3,662.3 1281,662.9 1282.8,672 1284.5,655.1 1286.2,672.5 1288,675.6 1289.7,662.3 1291.5,677.9 
		1293.2,656.2 1294.9,662.5 1296.7,662.2 1298.4,668.5 1300.1,675.9 1301.9,670 1303.6,667 1305.3,674.9 1307.1,664.9 1308.8,660.8 
		1310.5,667 1312.3,669.9 1314,646 1315.8,658.6 1317.5,670.1 1319.2,670.2 1321,665.3 1322.7,654.6 1324.4,651.1 1326.2,651.5 
		1327.9,668 1329.6,667.5 1333.1,648.1 1334.8,677.4 1336.6,658.5 1338.3,666.2 1340,656.7 1341.8,657.7 1343.5,647.7 1345.3,642.5 
		1347,676 1348.7,655.7 1350.5,639.8 1352.2,644.9 1353.9,650.3 1355.7,669.6 1357.4,638.2 1359.1,667.4 1360.9,645.3 1362.6,650.1 
		1364.3,647.8 1366.1,651.4 1367.8,649.6 1369.6,640.7 1371.3,637 1373,639.9 1374.8,634.4 1376.5,655.8 1378.2,664.6 1380,640.7 
		1381.7,639.8 1383.4,623 1385.2,638.1 1386.9,609.9 1388.6,623.6 1390.4,618.6 1392.1,626 1393.9,609.4 1395.6,609.4 1397.3,625.3 
		1399.1,596.4 1400.8,605.4 1402.5,601.8 1404.3,580.9 1406,571.8 1407.7,581.2 1409.5,568.8 1411.2,562.7 1412.9,559.2 
		1414.7,558.6 1416.4,531.1 1418.2,551.9 1419.9,446.6 1421.6,482.3 1425.1,510 1426.8,534.2 1428.6,514.9 1430.3,539.1 1432,556.5 
		1433.8,548.1 1435.5,557.8 1437.2,576.3 1439,606.5 1440.7,566.1 1442.5,590.8 1444.2,577.4 1445.9,590.9 1447.7,593.9 
		1449.4,615.4 1451.1,593 1452.9,614 1454.6,620.3 1456.3,622.3 1458.1,606.7 1459.8,613.9 1461.6,613.7 1463.3,638.6 1465,629.8 
		1468.5,632 1470.2,629.3 1472,639.8 1473.7,636.3 1475.4,629 1477.2,645.1 1478.9,650.9 1480.6,631 1482.4,640.1 1484.1,643.5 
		1485.9,638.8 1487.6,628.1 1489.3,655.2 1491.1,641.6 1492.8,633.3 1494.5,639.7 1496.3,646.6 1498,639 1499.7,632.9 1501.5,650.5 
		1503.2,657.1 1504.9,653.3 1506.7,647.2 1508.4,656.2 1510.2,645.2 1511.9,668.4 1513.6,647.9 1515.4,638.3 1520.6,658.7 
		1522.3,652.5 1524,648.3 1525.8,649.4 1527.5,643.4 1529.2,646.1 1531,651.2 1532.7,651.9 1534.5,642 1536.2,647 1537.9,658 
		1539.7,676 1541.4,652 1543.1,654.2 1544.9,645.5 1546.6,655.2 1548.3,653.2 1550.1,640.6 1551.8,648 1553.5,649.4 1555.3,666.2 
		1557,649.2 1558.8,662.8 1560.5,668.9 1562.2,655.2 1564,651.8 1565.7,659.4 1567.4,663.6 1569.2,646.7 1570.9,651.4 1572.6,651.6 
		1574.4,659.7 1576.1,656.8 1577.8,661 1579.6,656.4 1581.3,665.1 1583.1,647 1584.8,655 1586.5,659.2 1588.3,659.2 1590,656.6 
		1591.7,659.8 1593.5,659.8 	"/>
</g>
<text transform="matrix(1 0 0 1 1233.5908 725.2016)" class="st5 st6 st7">−10</text>
<text transform="matrix(1 0 0 1 1324.5488 725.2016)" class="st5 st6 st7">−5</text>
<text transform="matrix(1 0 0 1 1415.7236 725.2016)" class="st5 st6 st7">0</text>
<text transform="matrix(1 0 0 1 1502.5098 725.2016)" class="st5 st6 st7">5</text>
<text transform="matrix(1 0 0 1 1585.1299 725.2016)" class="st5 st6 st7">10</text>
<text transform="matrix(1 0 0 1 126.0186 404.7255)" class="st5 st6 st22">Position Relative to TSS (kb)</text>
<text transform="matrix(1 0 0 1 518.9512 404.7255)" class="st5 st6 st22">Position Relative to TES (kb)</text>
<text transform="matrix(1 0 0 1 911.8828 404.7255)" class="st5 st6 st22">Position Relative to TSS (kb)</text>
<text transform="matrix(1 0 0 1 1304.8164 404.7255)" class="st5 st6 st22">Position Relative to TES (kb)</text>
<text transform="matrix(1 0 0 1 126.0186 758.1762)" class="st5 st6 st22">Position Relative to TSS (kb)</text>
<text transform="matrix(1 0 0 1 518.9512 758.1762)" class="st5 st6 st22">Position Relative to TES (kb)</text>
<text transform="matrix(1 0 0 1 911.8828 758.1762)" class="st5 st6 st22">Position Relative to TSS (kb)</text>
<text transform="matrix(1 0 0 1 1304.8164 758.1762)" class="st5 st6 st22">Position Relative to TES (kb)</text>
<text transform="matrix(6.123234e-17 -1 1 6.123234e-17 24.0068 293.7206)" class="st5 st6 st22">Relative CPD Repair</text>
<text transform="matrix(6.123234e-17 -1 1 6.123234e-17 24.0068 671.9692)" class="st5 st6 st22">Relative  (6-4)PP Repair</text>
<g>
	<rect x="294" y="94.1" class="st0" width="82.1" height="65.6"/>
	<text transform="matrix(1 0 0 1 332.6143 120.4369)" class="st5 st6 st23">TS</text>
	<line class="st24" x1="298.8" y1="112.9" x2="327.8" y2="112.9"/>
	<rect x="294" y="98.9" class="st25" width="120.7" height="28"/>
	<text transform="matrix(1 0 0 1 332.6143 148.4345)" class="st5 st6 st23">NTS</text>
	<line class="st26" x1="298.8" y1="140.9" x2="327.8" y2="140.9"/>
	<rect x="294" y="126.9" class="st25" width="120.7" height="28"/>
	<rect x="294" y="94.1" class="st27" width="82.1" height="65.6"/>
</g>
<line class="st28" x1="67.5" y1="54.1" x2="1593.5" y2="54.1"/>
<rect x="807.6" y="38.9" class="st29" width="45.8" height="30.9"/>
<text transform="matrix(1 0 0 1 400.5 38.8612)" class="st5 st6 st30">Human</text>
<text transform="matrix(1 0 0 1 1167.4072 38.8612)" class="st5 st6 st30">Mouse Lemur</text>
</svg>
